Rosalind Serif-Black.ufo
<glyph name="exclam" format="1">
  <advance width="629"/>
  <unicode hex="0021"/>
  <note>
	exclam
  </note>
  <outline>
    <contour>
      <point x="510" y="1589" type="line"/>
      <point x="428" y="483" type="line"/>
      <point x="202" y="483" type="line"/>
      <point x="111" y="1589" type="line"/>
    </contour>
    <contour>
      <point x="407" y="333"/>
      <point x="464" y="299"/>
      <point x="494" y="248" type="curve" smooth="yes"/>
      <point x="509" y="222"/>
      <point x="516" y="194"/>
      <point x="516" y="165" type="curve" smooth="yes"/>
      <point x="516" y="53"/>
      <point x="433" y="-12"/>
      <point x="305" y="-12" type="curve" smooth="yes"/>
      <point x="246" y="-12"/>
      <point x="190" y="19"/>
      <point x="158" y="69" type="curve" smooth="yes"/>
      <point x="141" y="94"/>
      <point x="133" y="122"/>
      <point x="133" y="154" type="curve" smooth="yes"/>
      <point x="133" y="223"/>
      <point x="172" y="281"/>
      <point x="233" y="311" type="curve" smooth="yes"/>
      <point x="264" y="326"/>
      <point x="298" y="333"/>
      <point x="335" y="333" type="curve" smooth="yes"/>
    </contour>
  </outline>
</glyph>
<glyph name="quotedbl" format="1">
  <advance width="1190"/>
  <unicode hex="0022"/>
  <note>
	quotedbl
  </note>
  <outline>
    <contour>
      <point x="1005" y="1529" type="line"/>
      <point x="955" y="733" type="line"/>
      <point x="751" y="733" type="line"/>
      <point x="703" y="1529" type="line"/>
    </contour>
    <contour>
      <point x="488" y="1529" type="line"/>
      <point x="438" y="733" type="line"/>
      <point x="234" y="733" type="line"/>
      <point x="186" y="1529" type="line"/>
    </contour>
  </outline>
</glyph>
<glyph name="numbersign" format="1">
  <advance width="1340"/>
  <unicode hex="0023"/>
  <note>
	numbersign
  </note>
  <outline>
    <contour>
      <point x="118" y="305" type="line"/>
      <point x="115" y="476" type="line"/>
      <point x="319" y="476" type="line"/>
      <point x="350" y="747" type="line"/>
      <point x="145" y="747" type="line"/>
      <point x="146" y="918" type="line"/>
      <point x="377" y="918" type="line"/>
      <point x="408" y="1208" type="line"/>
      <point x="664" y="1208" type="line"/>
      <point x="633" y="918" type="line"/>
      <point x="854" y="918" type="line"/>
      <point x="886" y="1208" type="line"/>
      <point x="1144" y="1208" type="line"/>
      <point x="1111" y="918" type="line"/>
      <point x="1307" y="918" type="line"/>
      <point x="1306" y="747" type="line"/>
      <point x="1084" y="747" type="line"/>
      <point x="1056" y="476" type="line"/>
      <point x="1267" y="476" type="line"/>
      <point x="1269" y="305" type="line"/>
      <point x="1034" y="305" type="line"/>
      <point x="999" y="0" type="line"/>
      <point x="743" y="0" type="line"/>
      <point x="776" y="305" type="line"/>
      <point x="553" y="305" type="line"/>
      <point x="517" y="0" type="line"/>
      <point x="260" y="0" type="line"/>
      <point x="297" y="305" type="line"/>
    </contour>
    <contour>
      <point x="828" y="747" type="line"/>
      <point x="605" y="747" type="line"/>
      <point x="576" y="476" type="line"/>
      <point x="794" y="476" type="line"/>
    </contour>
  </outline>
</glyph>
<glyph name="dollar" format="1">
  <advance width="1205"/>
  <unicode hex="0024"/>
  <note>
	dollar
  </note>
  <outline>
    <contour>
      <point x="700" y="-227" type="line"/>
      <point x="526" y="-227" type="line"/>
      <point x="528" y="-18" type="line"/>
      <point x="405" y="-11"/>
      <point x="309" y="11"/>
      <point x="193" y="43" type="curve" smooth="yes"/>
      <point x="165" y="51"/>
      <point x="145" y="56"/>
      <point x="134" y="58" type="curve"/>
      <point x="149" y="392" type="line"/>
      <point x="348" y="392" type="line"/>
      <point x="398" y="176" type="line"/>
      <point x="429" y="138"/>
      <point x="484" y="119"/>
      <point x="565" y="119" type="curve" smooth="yes"/>
      <point x="700" y="119"/>
      <point x="750" y="183"/>
      <point x="750" y="287" type="curve" smooth="yes"/>
      <point x="750" y="359"/>
      <point x="702" y="416"/>
      <point x="619" y="469" type="curve" smooth="yes"/>
      <point x="578" y="496"/>
      <point x="523" y="526"/>
      <point x="454" y="559" type="curve" smooth="yes"/>
      <point x="331" y="620"/>
      <point x="240" y="685"/>
      <point x="181" y="794" type="curve" smooth="yes"/>
      <point x="151" y="849"/>
      <point x="136" y="913"/>
      <point x="136" y="988" type="curve" smooth="yes"/>
      <point x="136" y="1103"/>
      <point x="194" y="1210"/>
      <point x="311" y="1282" type="curve" smooth="yes"/>
      <point x="370" y="1318"/>
      <point x="442" y="1341"/>
      <point x="527" y="1352" type="curve"/>
      <point x="527" y="1551" type="line"/>
      <point x="701" y="1551" type="line"/>
      <point x="701" y="1354" type="line"/>
      <point x="802" y="1346"/>
      <point x="890" y="1325"/>
      <point x="997" y="1300" type="curve"/>
      <point x="1000" y="1299"/>
      <point x="1009" y="1297"/>
      <point x="1024" y="1293" type="curve"/>
      <point x="1013" y="987" type="line"/>
      <point x="818" y="987" type="line"/>
      <point x="779" y="1181" type="line"/>
      <point x="758" y="1205"/>
      <point x="704" y="1225"/>
      <point x="651" y="1225" type="curve" smooth="yes"/>
      <point x="576" y="1225"/>
      <point x="523" y="1193"/>
      <point x="498" y="1146" type="curve" smooth="yes"/>
      <point x="485" y="1122"/>
      <point x="479" y="1097"/>
      <point x="479" y="1070" type="curve" smooth="yes"/>
      <point x="479" y="991"/>
      <point x="538" y="928"/>
      <point x="614" y="881" type="curve" smooth="yes"/>
      <point x="651" y="858"/>
      <point x="701" y="830"/>
      <point x="763" y="798" type="curve" smooth="yes"/>
      <point x="788" y="785" type="line" smooth="yes"/>
      <point x="912" y="720"/>
      <point x="1002" y="658"/>
      <point x="1063" y="561" type="curve" smooth="yes"/>
      <point x="1093" y="512"/>
      <point x="1108" y="457"/>
      <point x="1108" y="394" type="curve" smooth="yes"/>
      <point x="1108" y="271"/>
      <point x="1061" y="152"/>
      <point x="941" y="68" type="curve" smooth="yes"/>
      <point x="880" y="25"/>
      <point x="800" y="-2"/>
      <point x="701" y="-13" type="curve"/>
    </contour>
  </outline>
</glyph>
<glyph name="percent" format="1">
  <advance width="1981"/>
  <unicode hex="0025"/>
  <note>
	percent
  </note>
  <outline>
    <contour>
      <point x="71" y="1117"/>
      <point x="142" y="1244"/>
      <point x="261" y="1309" type="curve" smooth="yes"/>
      <point x="320" y="1341"/>
      <point x="388" y="1357"/>
      <point x="464" y="1357" type="curve" smooth="yes"/>
      <point x="719" y="1357"/>
      <point x="824" y="1200"/>
      <point x="824" y="959" type="curve" smooth="yes"/>
      <point x="824" y="790"/>
      <point x="751" y="665"/>
      <point x="632" y="602" type="curve" smooth="yes"/>
      <point x="572" y="570"/>
      <point x="505" y="554"/>
      <point x="430" y="554" type="curve" smooth="yes"/>
      <point x="275" y="554"/>
      <point x="166" y="629"/>
      <point x="112" y="749" type="curve" smooth="yes"/>
      <point x="85" y="808"/>
      <point x="71" y="875"/>
      <point x="71" y="948" type="curve" smooth="yes"/>
    </contour>
    <contour>
      <point x="1378" y="1353" type="line"/>
      <point x="801" y="0" type="line"/>
      <point x="592" y="0" type="line"/>
      <point x="1170" y="1353" type="line"/>
    </contour>
    <contour>
      <point x="551" y="1025"/>
      <point x="545" y="1096"/>
      <point x="532" y="1149" type="curve" smooth="yes"/>
      <point x="519" y="1202"/>
      <point x="493" y="1228"/>
      <point x="452" y="1228" type="curve" smooth="yes"/>
      <point x="411" y="1228"/>
      <point x="383" y="1205"/>
      <point x="368" y="1160" type="curve" smooth="yes"/>
      <point x="353" y="1114"/>
      <point x="346" y="1047"/>
      <point x="346" y="960" type="curve" smooth="yes"/>
      <point x="346" y="809"/>
      <point x="369" y="682"/>
      <point x="448" y="682" type="curve" smooth="yes"/>
      <point x="505" y="682"/>
      <point x="534" y="727"/>
      <point x="544" y="800" type="curve" smooth="yes"/>
      <point x="549" y="836"/>
      <point x="551" y="882"/>
      <point x="551" y="937" type="curve" smooth="yes"/>
    </contour>
    <contour>
      <point x="1801" y="812"/>
      <point x="1908" y="657"/>
      <point x="1908" y="414" type="curve" smooth="yes"/>
      <point x="1908" y="246"/>
      <point x="1835" y="121"/>
      <point x="1716" y="58" type="curve" smooth="yes"/>
      <point x="1656" y="26"/>
      <point x="1589" y="10"/>
      <point x="1514" y="10" type="curve" smooth="yes"/>
      <point x="1359" y="10"/>
      <point x="1250" y="85"/>
      <point x="1196" y="205" type="curve" smooth="yes"/>
      <point x="1169" y="264"/>
      <point x="1155" y="330"/>
      <point x="1155" y="403" type="curve" smooth="yes"/>
      <point x="1155" y="574"/>
      <point x="1228" y="699"/>
      <point x="1346" y="764" type="curve" smooth="yes"/>
      <point x="1405" y="796"/>
      <point x="1472" y="812"/>
      <point x="1548" y="812" type="curve" smooth="yes"/>
    </contour>
    <contour>
      <point x="1573" y="138"/>
      <point x="1601" y="160"/>
      <point x="1615" y="203" type="curve" smooth="yes"/>
      <point x="1628" y="246"/>
      <point x="1635" y="309"/>
      <point x="1635" y="393" type="curve" smooth="yes"/>
      <point x="1635" y="480"/>
      <point x="1629" y="551"/>
      <point x="1616" y="604" type="curve" smooth="yes"/>
      <point x="1603" y="657"/>
      <point x="1577" y="684"/>
      <point x="1536" y="684" type="curve" smooth="yes"/>
      <point x="1495" y="684"/>
      <point x="1467" y="661"/>
      <point x="1452" y="615" type="curve" smooth="yes"/>
      <point x="1437" y="569"/>
      <point x="1429" y="503"/>
      <point x="1429" y="416" type="curve" smooth="yes"/>
      <point x="1429" y="265"/>
      <point x="1454" y="138"/>
      <point x="1531" y="138" type="curve" smooth="yes"/>
    </contour>
  </outline>
</glyph>
<glyph name="ampersand" format="1">
  <advance width="1385"/>
  <unicode hex="0026"/>
  <note>
	ampersand
  </note>
  <outline>
    <contour>
      <point x="1375" y="752" type="line"/>
      <point x="1375" y="605" type="line"/>
      <point x="1258" y="577" type="line"/>
      <point x="1258" y="441"/>
      <point x="1206" y="330"/>
      <point x="1134" y="246" type="curve"/>
      <point x="1205" y="190"/>
      <point x="1272" y="158"/>
      <point x="1353" y="151" type="curve"/>
      <point x="1353" y="21" type="line"/>
      <point x="1324" y="0"/>
      <point x="1207" y="-14"/>
      <point x="1154" y="-14" type="curve" smooth="yes"/>
      <point x="1046" y="-14"/>
      <point x="983" y="1"/>
      <point x="906" y="48" type="curve"/>
      <point x="834" y="3"/>
      <point x="731" y="-22"/>
      <point x="583" y="-22" type="curve" smooth="yes"/>
      <point x="243" y="-22"/>
      <point x="50" y="96"/>
      <point x="50" y="329" type="curve" smooth="yes"/>
      <point x="50" y="433"/>
      <point x="110" y="519"/>
      <point x="192" y="577" type="curve" smooth="yes"/>
      <point x="233" y="606"/>
      <point x="275" y="628"/>
      <point x="320" y="645" type="curve"/>
      <point x="232" y="760"/>
      <point x="178" y="868"/>
      <point x="178" y="1001" type="curve" smooth="yes"/>
      <point x="178" y="1137"/>
      <point x="261" y="1250"/>
      <point x="395" y="1312" type="curve" smooth="yes"/>
      <point x="462" y="1343"/>
      <point x="536" y="1358"/>
      <point x="617" y="1358" type="curve" smooth="yes"/>
      <point x="785" y="1358"/>
      <point x="900" y="1302"/>
      <point x="954" y="1221" type="curve" smooth="yes"/>
      <point x="981" y="1180"/>
      <point x="994" y="1136"/>
      <point x="994" y="1089" type="curve" smooth="yes"/>
      <point x="994" y="968"/>
      <point x="953" y="886"/>
      <point x="866" y="818" type="curve" smooth="yes"/>
      <point x="822" y="783"/>
      <point x="762" y="749"/>
      <point x="687" y="716" type="curve"/>
      <point x="791" y="591"/>
      <point x="926" y="439"/>
      <point x="1003" y="368" type="curve" smooth="yes"/>
      <point x="1025" y="347" type="line"/>
      <point x="1048" y="404"/>
      <point x="1059" y="470"/>
      <point x="1059" y="543" type="curve"/>
      <point x="1058" y="577" type="line"/>
      <point x="928" y="605" type="line"/>
      <point x="928" y="752" type="line"/>
    </contour>
    <contour>
      <point x="691" y="885"/>
      <point x="715" y="984"/>
      <point x="715" y="1095" type="curve" smooth="yes"/>
      <point x="715" y="1172"/>
      <point x="691" y="1251"/>
      <point x="616" y="1251" type="curve" smooth="yes"/>
      <point x="538" y="1251"/>
      <point x="499" y="1191"/>
      <point x="499" y="1070" type="curve" smooth="yes"/>
      <point x="499" y="975"/>
      <point x="550" y="889"/>
      <point x="614" y="808" type="curve"/>
    </contour>
    <contour>
      <point x="671" y="225"/>
      <point x="548" y="356"/>
      <point x="405" y="536" type="curve"/>
      <point x="368" y="493"/>
      <point x="346" y="447"/>
      <point x="346" y="382" type="curve" smooth="yes"/>
      <point x="346" y="274"/>
      <point x="393" y="194"/>
      <point x="478" y="152" type="curve" smooth="yes"/>
      <point x="521" y="131"/>
      <point x="571" y="120"/>
      <point x="628" y="120" type="curve" smooth="yes"/>
      <point x="690" y="120"/>
      <point x="739" y="128"/>
      <point x="774" y="143" type="curve"/>
    </contour>
  </outline>
</glyph>
<glyph name="quotesingle" format="1">
  <advance width="673"/>
  <unicode hex="0027"/>
  <note>
	quotesingle
  </note>
  <outline>
    <contour>
      <point x="488" y="1529" type="line"/>
      <point x="438" y="733" type="line"/>
      <point x="234" y="733" type="line"/>
      <point x="186" y="1529" type="line"/>
    </contour>
  </outline>
</glyph>
<glyph name="parenleft" format="1">
  <advance width="823"/>
  <unicode hex="0028"/>
  <note>
	parenleft
  </note>
  <outline>
    <contour>
      <point x="699" y="1416" type="line"/>
      <point x="627" y="1373"/>
      <point x="525" y="1248"/>
      <point x="451" y="1023" type="curve" smooth="yes"/>
      <point x="414" y="910"/>
      <point x="393" y="777"/>
      <point x="389" y="624" type="curve"/>
      <point x="388" y="612"/>
      <point x="388" y="595"/>
      <point x="388" y="573" type="curve" smooth="yes"/>
      <point x="388" y="265"/>
      <point x="472" y="24"/>
      <point x="566" y="-117" type="curve" smooth="yes"/>
      <point x="613" y="-188"/>
      <point x="655" y="-236"/>
      <point x="694" y="-261" type="curve"/>
      <point x="583" y="-349" type="line"/>
      <point x="446" y="-266"/>
      <point x="309" y="-174"/>
      <point x="178" y="96" type="curve" smooth="yes"/>
      <point x="113" y="231"/>
      <point x="80" y="400"/>
      <point x="80" y="603" type="curve" smooth="yes"/>
      <point x="80" y="950"/>
      <point x="234" y="1213"/>
      <point x="385" y="1356" type="curve" smooth="yes"/>
      <point x="460" y="1427"/>
      <point x="526" y="1479"/>
      <point x="583" y="1511" type="curve"/>
    </contour>
  </outline>
</glyph>
<glyph name="parenright" format="1">
  <advance width="823"/>
  <unicode hex="0029"/>
  <note>
	parenright
  </note>
  <outline>
    <contour>
      <point x="125" y="-254" type="line"/>
      <point x="197" y="-213"/>
      <point x="300" y="-87"/>
      <point x="374" y="138" type="curve" smooth="yes"/>
      <point x="411" y="251"/>
      <point x="431" y="384"/>
      <point x="435" y="538" type="curve"/>
      <point x="436" y="549"/>
      <point x="436" y="566"/>
      <point x="436" y="589" type="curve" smooth="yes"/>
      <point x="436" y="896"/>
      <point x="353" y="1138"/>
      <point x="258" y="1279" type="curve" smooth="yes"/>
      <point x="211" y="1349"/>
      <point x="168" y="1397"/>
      <point x="129" y="1423" type="curve"/>
      <point x="240" y="1511" type="line"/>
      <point x="377" y="1427"/>
      <point x="514" y="1337"/>
      <point x="646" y="1066" type="curve" smooth="yes"/>
      <point x="711" y="931"/>
      <point x="744" y="762"/>
      <point x="744" y="559" type="curve" smooth="yes"/>
      <point x="744" y="211"/>
      <point x="590" y="-51"/>
      <point x="439" y="-194" type="curve" smooth="yes"/>
      <point x="364" y="-265"/>
      <point x="297" y="-317"/>
      <point x="240" y="-349" type="curve"/>
    </contour>
  </outline>
</glyph>
<glyph name="asterisk" format="1">
  <advance width="1227"/>
  <unicode hex="002A"/>
  <note>
	asterisk
  </note>
  <outline>
    <contour>
      <point x="232" y="962" type="line"/>
      <point x="517" y="1045" type="line"/>
      <point x="232" y="1125" type="line"/>
      <point x="100" y="1185" type="line"/>
      <point x="229" y="1406" type="line"/>
      <point x="351" y="1322" type="line"/>
      <point x="566" y="1121" type="line"/>
      <point x="486" y="1396" type="line"/>
      <point x="471" y="1552" type="line"/>
      <point x="738" y="1552" type="line"/>
      <point x="726" y="1400" type="line"/>
      <point x="660" y="1126" type="line"/>
      <point x="869" y="1326" type="line"/>
      <point x="991" y="1413" type="line"/>
      <point x="1124" y="1195" type="line"/>
      <point x="1001" y="1126" type="line"/>
      <point x="708" y="1045" type="line"/>
      <point x="1001" y="971" type="line"/>
      <point x="1129" y="910" type="line"/>
      <point x="994" y="683" type="line"/>
      <point x="882" y="766" type="line"/>
      <point x="660" y="964" type="line"/>
      <point x="740" y="691" type="line"/>
      <point x="756" y="538" type="line"/>
      <point x="488" y="538" type="line"/>
      <point x="500" y="691" type="line"/>
      <point x="566" y="967" type="line"/>
      <point x="356" y="765" type="line"/>
      <point x="236" y="675" type="line"/>
      <point x="104" y="895" type="line"/>
    </contour>
  </outline>
</glyph>
<glyph name="plus" format="1">
  <advance width="1190"/>
  <unicode hex="002B"/>
  <note>
	plus
  </note>
  <outline>
    <contour>
      <point x="325" y="640" type="line"/>
      <point x="495" y="629" type="line"/>
      <point x="488" y="760" type="line"/>
      <point x="488" y="961" type="line"/>
      <point x="702" y="961" type="line"/>
      <point x="702" y="760" type="line"/>
      <point x="694" y="629" type="line"/>
      <point x="839" y="640" type="line"/>
      <point x="1015" y="640" type="line"/>
      <point x="1015" y="436" type="line"/>
      <point x="839" y="436" type="line"/>
      <point x="694" y="443" type="line"/>
      <point x="702" y="314" type="line"/>
      <point x="702" y="103" type="line"/>
      <point x="488" y="103" type="line"/>
      <point x="488" y="314" type="line"/>
      <point x="495" y="443" type="line"/>
      <point x="325" y="436" type="line"/>
      <point x="176" y="436" type="line"/>
      <point x="176" y="640" type="line"/>
    </contour>
  </outline>
</glyph>
<glyph name="comma" format="1">
  <advance width="602"/>
  <unicode hex="002C"/>
  <note>
	comma
  </note>
  <outline>
    <contour>
      <point x="305" y="336" type="line" smooth="yes"/>
      <point x="380" y="336"/>
      <point x="439" y="291"/>
      <point x="471" y="209" type="curve" smooth="yes"/>
      <point x="487" y="168"/>
      <point x="495" y="119"/>
      <point x="495" y="63" type="curve" smooth="yes"/>
      <point x="495" y="-90"/>
      <point x="432" y="-238"/>
      <point x="351" y="-336" type="curve" smooth="yes"/>
      <point x="310" y="-385"/>
      <point x="272" y="-419"/>
      <point x="235" y="-436" type="curve"/>
      <point x="232" y="-436" type="line"/>
      <point x="133" y="-365" type="line"/>
      <point x="133" y="-332" type="line"/>
      <point x="210" y="-276"/>
      <point x="258" y="-185"/>
      <point x="258" y="-85" type="curve" smooth="yes"/>
      <point x="258" y="-46"/>
      <point x="239" y="-25"/>
      <point x="198" y="11" type="curve" smooth="yes"/>
      <point x="163" y="42"/>
      <point x="143" y="61"/>
      <point x="128" y="98" type="curve" smooth="yes"/>
      <point x="120" y="117"/>
      <point x="116" y="139"/>
      <point x="116" y="164" type="curve" smooth="yes"/>
      <point x="116" y="233"/>
      <point x="148" y="287"/>
      <point x="201" y="315" type="curve" smooth="yes"/>
      <point x="227" y="329"/>
      <point x="257" y="336"/>
      <point x="291" y="336" type="curve" smooth="yes"/>
    </contour>
  </outline>
</glyph>
<glyph name="hyphen" format="1">
  <advance width="1142"/>
  <unicode hex="002D"/>
  <note>
	hyphen
  </note>
  <outline>
    <contour>
      <point x="940" y="652" type="line"/>
      <point x="940" y="432" type="line"/>
      <point x="202" y="432" type="line"/>
      <point x="202" y="652" type="line"/>
    </contour>
  </outline>
</glyph>
<glyph name="period" format="1">
  <advance width="598"/>
  <unicode hex="002E"/>
  <note>
	period
  </note>
  <outline>
    <contour>
      <point x="106" y="226"/>
      <point x="145" y="283"/>
      <point x="207" y="312" type="curve" smooth="yes"/>
      <point x="238" y="327"/>
      <point x="272" y="334"/>
      <point x="310" y="334" type="curve" smooth="yes"/>
      <point x="381" y="334"/>
      <point x="439" y="300"/>
      <point x="469" y="249" type="curve" smooth="yes"/>
      <point x="484" y="223"/>
      <point x="491" y="195"/>
      <point x="491" y="166" type="curve" smooth="yes"/>
      <point x="491" y="54"/>
      <point x="408" y="-12"/>
      <point x="280" y="-12" type="curve" smooth="yes"/>
      <point x="221" y="-12"/>
      <point x="164" y="18"/>
      <point x="131" y="69" type="curve" smooth="yes"/>
      <point x="114" y="94"/>
      <point x="106" y="123"/>
      <point x="106" y="155" type="curve" smooth="yes"/>
    </contour>
  </outline>
</glyph>
<glyph name="slash" format="1">
  <advance width="776"/>
  <unicode hex="002F"/>
  <note>
	slash
  </note>
  <outline>
    <contour>
      <point x="722" y="1407" type="line"/>
      <point x="279" y="-319" type="line"/>
      <point x="55" y="-319" type="line"/>
      <point x="497" y="1407" type="line"/>
    </contour>
  </outline>
</glyph>
<glyph name="zero" format="1">
  <advance width="1219"/>
  <unicode hex="0030"/>
  <note>
	zero
  </note>
  <outline>
    <contour>
      <point x="88" y="811"/>
      <point x="196" y="989"/>
      <point x="363" y="1072" type="curve" smooth="yes"/>
      <point x="446" y="1113"/>
      <point x="539" y="1134"/>
      <point x="642" y="1134" type="curve" smooth="yes"/>
      <point x="842" y="1134"/>
      <point x="991" y="1057"/>
      <point x="1072" y="891" type="curve" smooth="yes"/>
      <point x="1112" y="808"/>
      <point x="1132" y="703"/>
      <point x="1132" y="578" type="curve" smooth="yes"/>
      <point x="1132" y="305"/>
      <point x="1025" y="126"/>
      <point x="858" y="42" type="curve" smooth="yes"/>
      <point x="691" y="-42"/>
      <point x="466" y="-40"/>
      <point x="319" y="41" type="curve" smooth="yes"/>
      <point x="172" y="121"/>
      <point x="88" y="287"/>
      <point x="88" y="538" type="curve" smooth="yes"/>
    </contour>
    <contour>
      <point x="764" y="667"/>
      <point x="759" y="760"/>
      <point x="749" y="826" type="curve" smooth="yes"/>
      <point x="728" y="958"/>
      <point x="686" y="1004"/>
      <point x="610" y="1004" type="curve" smooth="yes"/>
      <point x="561" y="1004"/>
      <point x="523" y="969"/>
      <point x="496" y="898" type="curve" smooth="yes"/>
      <point x="469" y="827"/>
      <point x="456" y="717"/>
      <point x="456" y="568" type="curve" smooth="yes"/>
      <point x="456" y="450"/>
      <point x="462" y="358"/>
      <point x="473" y="292" type="curve" smooth="yes"/>
      <point x="496" y="159"/>
      <point x="540" y="111"/>
      <point x="615" y="111" type="curve" smooth="yes"/>
      <point x="664" y="111"/>
      <point x="701" y="146"/>
      <point x="726" y="216" type="curve" smooth="yes"/>
      <point x="751" y="286"/>
      <point x="764" y="396"/>
      <point x="764" y="547" type="curve" smooth="yes"/>
    </contour>
  </outline>
</glyph>
<glyph name="one" format="1">
  <advance width="872"/>
  <unicode hex="0031"/>
  <note>
	one
  </note>
  <outline>
    <contour>
      <point x="297" y="154" type="line"/>
      <point x="297" y="817" type="line"/>
      <point x="254" y="806"/>
      <point x="124" y="785"/>
      <point x="84" y="784" type="curve"/>
      <point x="61" y="946" type="line"/>
      <point x="201" y="971"/>
      <point x="384" y="1059"/>
      <point x="473" y="1135" type="curve"/>
      <point x="473" y="1135" type="line"/>
      <point x="664" y="1112" type="line"/>
      <point x="664" y="155" type="line"/>
      <point x="844" y="132" type="line"/>
      <point x="844" y="0" type="line"/>
      <point x="100" y="0" type="line"/>
      <point x="100" y="132" type="line"/>
    </contour>
  </outline>
</glyph>
<glyph name="two" format="1">
  <advance width="1106"/>
  <unicode hex="0032"/>
  <note>
	two
  </note>
  <outline>
    <contour>
      <point x="47" y="128" type="line"/>
      <point x="371" y="333"/>
      <point x="564" y="529"/>
      <point x="564" y="742" type="curve" smooth="yes"/>
      <point x="564" y="839"/>
      <point x="495" y="900"/>
      <point x="386" y="900" type="curve" smooth="yes"/>
      <point x="319" y="900"/>
      <point x="264" y="881"/>
      <point x="227" y="858" type="curve" smooth="yes"/>
      <point x="208" y="846"/>
      <point x="188" y="831"/>
      <point x="165" y="814" type="curve" smooth="yes"/>
      <point x="144" y="799" type="line"/>
      <point x="61" y="922" type="line"/>
      <point x="104" y="982"/>
      <point x="206" y="1056"/>
      <point x="333" y="1101" type="curve" smooth="yes"/>
      <point x="396" y="1123"/>
      <point x="459" y="1134"/>
      <point x="522" y="1134" type="curve" smooth="yes"/>
      <point x="709" y="1134"/>
      <point x="837" y="1071"/>
      <point x="898" y="972" type="curve" smooth="yes"/>
      <point x="928" y="923"/>
      <point x="943" y="868"/>
      <point x="943" y="808" type="curve" smooth="yes"/>
      <point x="943" y="589"/>
      <point x="714" y="381"/>
      <point x="369" y="189" type="curve"/>
      <point x="834" y="234" type="line"/>
      <point x="911" y="373" type="line"/>
      <point x="1052" y="345" type="line"/>
      <point x="1001" y="0" type="line"/>
      <point x="97" y="0" type="line"/>
    </contour>
  </outline>
</glyph>
<glyph name="three" format="1">
  <advance width="1035"/>
  <unicode hex="0033"/>
  <note>
	three
  </note>
  <outline>
    <contour>
      <point x="391" y="-104"/>
      <point x="496" y="-53"/>
      <point x="550" y="28" type="curve" smooth="yes"/>
      <point x="577" y="68"/>
      <point x="590" y="114"/>
      <point x="590" y="165" type="curve" smooth="yes"/>
      <point x="590" y="304"/>
      <point x="515" y="379"/>
      <point x="364" y="388" type="curve"/>
      <point x="264" y="364" type="line"/>
      <point x="217" y="496" type="line"/>
      <point x="258" y="501"/>
      <point x="308" y="516"/>
      <point x="365" y="542" type="curve" smooth="yes"/>
      <point x="490" y="602"/>
      <point x="545" y="686"/>
      <point x="545" y="775" type="curve" smooth="yes"/>
      <point x="545" y="871"/>
      <point x="474" y="919"/>
      <point x="381" y="919" type="curve" smooth="yes"/>
      <point x="289" y="919"/>
      <point x="207" y="891"/>
      <point x="136" y="835" type="curve"/>
      <point x="55" y="982" type="line"/>
      <point x="98" y="1025"/>
      <point x="198" y="1077"/>
      <point x="319" y="1110" type="curve" smooth="yes"/>
      <point x="379" y="1126"/>
      <point x="438" y="1134"/>
      <point x="497" y="1134" type="curve" smooth="yes"/>
      <point x="660" y="1134"/>
      <point x="787" y="1093"/>
      <point x="859" y="1003" type="curve" smooth="yes"/>
      <point x="894" y="958"/>
      <point x="912" y="902"/>
      <point x="912" y="835" type="curve" smooth="yes"/>
      <point x="912" y="655"/>
      <point x="765" y="534"/>
      <point x="554" y="461" type="curve"/>
      <point x="575" y="463"/>
      <point x="595" y="464"/>
      <point x="614" y="464" type="curve" smooth="yes"/>
      <point x="754" y="464"/>
      <point x="870" y="418"/>
      <point x="935" y="328" type="curve" smooth="yes"/>
      <point x="967" y="283"/>
      <point x="983" y="228"/>
      <point x="983" y="165" type="curve" smooth="yes"/>
      <point x="983" y="-3"/>
      <point x="877" y="-147"/>
      <point x="681" y="-227" type="curve" smooth="yes"/>
      <point x="583" y="-268"/>
      <point x="468" y="-288"/>
      <point x="335" y="-288" type="curve" smooth="yes"/>
      <point x="242" y="-288"/>
      <point x="118" y="-269"/>
      <point x="62" y="-248" type="curve"/>
      <point x="62" y="-75" type="line"/>
      <point x="121" y="-95"/>
      <point x="172" y="-104"/>
      <point x="252" y="-104" type="curve" smooth="yes"/>
    </contour>
  </outline>
</glyph>
<glyph name="four" format="1">
  <advance width="1233"/>
  <unicode hex="0034"/>
  <note>
	four
  </note>
  <outline>
    <contour>
      <point x="33" y="114" type="line"/>
      <point x="137" y="303"/>
      <point x="373" y="881"/>
      <point x="509" y="1229" type="curve"/>
      <point x="574" y="1229" type="line"/>
      <point x="859" y="1086" type="line"/>
      <point x="796" y="966"/>
      <point x="617" y="630"/>
      <point x="480" y="374" type="curve" smooth="yes"/>
      <point x="440" y="297" type="line"/>
      <point x="354" y="171" type="line"/>
      <point x="703" y="196" type="line"/>
      <point x="737" y="514" type="line"/>
      <point x="994" y="532" type="line"/>
      <point x="994" y="217" type="line"/>
      <point x="1191" y="231" type="line"/>
      <point x="1191" y="0" type="line"/>
      <point x="994" y="0" type="line"/>
      <point x="994" y="-289" type="line"/>
      <point x="700" y="-289" type="line"/>
      <point x="700" y="0" type="line"/>
      <point x="111" y="0" type="line"/>
    </contour>
  </outline>
</glyph>
<glyph name="five" format="1">
  <advance width="1148"/>
  <unicode hex="0035"/>
  <note>
	five
  </note>
  <outline>
    <contour>
      <point x="409" y="-128"/>
      <point x="546" y="-57"/>
      <point x="621" y="51" type="curve" smooth="yes"/>
      <point x="658" y="105"/>
      <point x="677" y="163"/>
      <point x="677" y="224" type="curve" smooth="yes"/>
      <point x="677" y="372"/>
      <point x="598" y="424"/>
      <point x="449" y="424" type="curve" smooth="yes"/>
      <point x="370" y="424"/>
      <point x="271" y="402"/>
      <point x="212" y="378" type="curve"/>
      <point x="137" y="429" type="line"/>
      <point x="222" y="1115" type="line"/>
      <point x="842" y="1115" type="line"/>
      <point x="860" y="1149" type="line"/>
      <point x="1001" y="1149" type="line"/>
      <point x="955" y="869" type="line"/>
      <point x="439" y="869" type="line"/>
      <point x="374" y="558" type="line"/>
      <point x="379" y="560"/>
      <point x="396" y="568"/>
      <point x="426" y="582" type="curve" smooth="yes"/>
      <point x="485" y="610"/>
      <point x="576" y="632"/>
      <point x="664" y="632" type="curve" smooth="yes"/>
      <point x="928" y="632"/>
      <point x="1057" y="500"/>
      <point x="1057" y="287" type="curve" smooth="yes"/>
      <point x="1057" y="52"/>
      <point x="911" y="-127"/>
      <point x="675" y="-220" type="curve" smooth="yes"/>
      <point x="556" y="-267"/>
      <point x="424" y="-290"/>
      <point x="277" y="-290" type="curve" smooth="yes"/>
      <point x="228" y="-290"/>
      <point x="186" y="-286"/>
      <point x="151" y="-277" type="curve"/>
      <point x="152" y="-124" type="line"/>
      <point x="182" y="-127"/>
      <point x="216" y="-128"/>
      <point x="254" y="-128" type="curve" smooth="yes"/>
    </contour>
  </outline>
</glyph>
<glyph name="six" format="1">
  <advance width="1229"/>
  <unicode hex="0036"/>
  <note>
	six
  </note>
  <outline>
    <contour>
      <point x="105" y="877"/>
      <point x="285" y="1144"/>
      <point x="527" y="1293" type="curve" smooth="yes"/>
      <point x="648" y="1367"/>
      <point x="767" y="1408"/>
      <point x="885" y="1417" type="curve"/>
      <point x="953" y="1294" type="line"/>
      <point x="728" y="1231"/>
      <point x="580" y="1063"/>
      <point x="512" y="834" type="curve"/>
      <point x="577" y="881"/>
      <point x="658" y="905"/>
      <point x="757" y="905" type="curve" smooth="yes"/>
      <point x="904" y="905"/>
      <point x="1025" y="837"/>
      <point x="1091" y="713" type="curve" smooth="yes"/>
      <point x="1124" y="651"/>
      <point x="1140" y="577"/>
      <point x="1140" y="492" type="curve" smooth="yes"/>
      <point x="1140" y="309"/>
      <point x="1057" y="143"/>
      <point x="901" y="48" type="curve" smooth="yes"/>
      <point x="822" y="1"/>
      <point x="729" y="-23"/>
      <point x="620" y="-23" type="curve" smooth="yes"/>
      <point x="405" y="-23"/>
      <point x="246" y="83"/>
      <point x="166" y="260" type="curve" smooth="yes"/>
      <point x="125" y="348"/>
      <point x="105" y="448"/>
      <point x="105" y="561" type="curve" smooth="yes"/>
    </contour>
    <contour>
      <point x="473" y="634"/>
      <point x="470" y="578"/>
      <point x="470" y="517" type="curve" smooth="yes"/>
      <point x="470" y="246"/>
      <point x="522" y="111"/>
      <point x="627" y="111" type="curve" smooth="yes"/>
      <point x="726" y="111"/>
      <point x="782" y="234"/>
      <point x="782" y="430" type="curve" smooth="yes"/>
      <point x="782" y="633"/>
      <point x="728" y="734"/>
      <point x="621" y="734" type="curve" smooth="yes"/>
      <point x="568" y="734"/>
      <point x="513" y="712"/>
      <point x="480" y="683" type="curve"/>
    </contour>
  </outline>
</glyph>
<glyph name="seven" format="1">
  <advance width="1085"/>
  <unicode hex="0037"/>
  <note>
	seven
  </note>
  <outline>
    <contour>
      <point x="366" y="913" type="line"/>
      <point x="246" y="615" type="line"/>
      <point x="48" y="655" type="line"/>
      <point x="100" y="1115" type="line"/>
      <point x="1016" y="1115" type="line"/>
      <point x="1075" y="1038" type="line"/>
      <point x="600" y="-344" type="line"/>
      <point x="233" y="-246" type="line"/>
      <point x="385" y="41"/>
      <point x="528" y="369"/>
      <point x="701" y="778" type="curve" smooth="yes"/>
      <point x="763" y="922" type="line"/>
    </contour>
  </outline>
</glyph>
<glyph name="eight" format="1">
  <advance width="1178"/>
  <unicode hex="0038"/>
  <note>
	eight
  </note>
  <outline>
    <contour>
      <point x="204" y="730"/>
      <point x="128" y="836"/>
      <point x="128" y="996" type="curve" smooth="yes"/>
      <point x="128" y="1145"/>
      <point x="214" y="1258"/>
      <point x="357" y="1316" type="curve" smooth="yes"/>
      <point x="428" y="1345"/>
      <point x="509" y="1359"/>
      <point x="598" y="1359" type="curve" smooth="yes"/>
      <point x="786" y="1359"/>
      <point x="919" y="1302"/>
      <point x="984" y="1210" type="curve" smooth="yes"/>
      <point x="1017" y="1164"/>
      <point x="1033" y="1112"/>
      <point x="1033" y="1055" type="curve" smooth="yes"/>
      <point x="1033" y="927"/>
      <point x="955" y="825"/>
      <point x="803" y="762" type="curve"/>
      <point x="926" y="691"/>
      <point x="1014" y="625"/>
      <point x="1070" y="525" type="curve" smooth="yes"/>
      <point x="1097" y="474"/>
      <point x="1111" y="416"/>
      <point x="1111" y="351" type="curve" smooth="yes"/>
      <point x="1111" y="199"/>
      <point x="1021" y="84"/>
      <point x="859" y="24" type="curve" smooth="yes"/>
      <point x="778" y="-7"/>
      <point x="682" y="-22"/>
      <point x="573" y="-22" type="curve" smooth="yes"/>
      <point x="389" y="-22"/>
      <point x="230" y="24"/>
      <point x="138" y="128" type="curve" smooth="yes"/>
      <point x="92" y="180"/>
      <point x="69" y="246"/>
      <point x="69" y="326" type="curve" smooth="yes"/>
      <point x="69" y="461"/>
      <point x="161" y="577"/>
      <point x="329" y="642" type="curve"/>
    </contour>
    <contour>
      <point x="747" y="876"/>
      <point x="782" y="948"/>
      <point x="782" y="1016" type="curve" smooth="yes"/>
      <point x="782" y="1155"/>
      <point x="722" y="1228"/>
      <point x="601" y="1228" type="curve" smooth="yes"/>
      <point x="544" y="1228"/>
      <point x="492" y="1205"/>
      <point x="461" y="1160" type="curve" smooth="yes"/>
      <point x="446" y="1137"/>
      <point x="438" y="1109"/>
      <point x="438" y="1076" type="curve" smooth="yes"/>
      <point x="438" y="1005"/>
      <point x="486" y="950"/>
      <point x="554" y="904" type="curve" smooth="yes"/>
      <point x="588" y="881"/>
      <point x="633" y="854"/>
      <point x="688" y="824" type="curve"/>
    </contour>
    <contour>
      <point x="432" y="580" type="line"/>
      <point x="377" y="529"/>
      <point x="345" y="458"/>
      <point x="345" y="375" type="curve" smooth="yes"/>
      <point x="345" y="275"/>
      <point x="381" y="194"/>
      <point x="450" y="150" type="curve" smooth="yes"/>
      <point x="485" y="127"/>
      <point x="526" y="116"/>
      <point x="575" y="116" type="curve" smooth="yes"/>
      <point x="639" y="116"/>
      <point x="699" y="145"/>
      <point x="734" y="198" type="curve" smooth="yes"/>
      <point x="751" y="225"/>
      <point x="760" y="256"/>
      <point x="760" y="291" type="curve" smooth="yes"/>
      <point x="760" y="364"/>
      <point x="710" y="420"/>
      <point x="643" y="463" type="curve" smooth="yes"/>
      <point x="609" y="484"/>
      <point x="563" y="510"/>
      <point x="505" y="541" type="curve" smooth="yes"/>
    </contour>
  </outline>
</glyph>
<glyph name="nine" format="1">
  <advance width="1195"/>
  <unicode hex="0039"/>
  <note>
	nine
  </note>
  <outline>
    <contour>
      <point x="1105" y="240"/>
      <point x="938" y="-33"/>
      <point x="702" y="-185" type="curve" smooth="yes"/>
      <point x="583" y="-262"/>
      <point x="463" y="-304"/>
      <point x="341" y="-312" type="curve"/>
      <point x="274" y="-190" type="line"/>
      <point x="499" y="-127"/>
      <point x="640" y="40"/>
      <point x="701" y="277" type="curve"/>
      <point x="639" y="230"/>
      <point x="560" y="207"/>
      <point x="465" y="207" type="curve" smooth="yes"/>
      <point x="318" y="207"/>
      <point x="191" y="280"/>
      <point x="122" y="412" type="curve" smooth="yes"/>
      <point x="87" y="477"/>
      <point x="70" y="553"/>
      <point x="70" y="638" type="curve" smooth="yes"/>
      <point x="70" y="819"/>
      <point x="153" y="978"/>
      <point x="312" y="1067" type="curve" smooth="yes"/>
      <point x="391" y="1112"/>
      <point x="486" y="1134"/>
      <point x="595" y="1134" type="curve" smooth="yes"/>
      <point x="812" y="1134"/>
      <point x="967" y="1033"/>
      <point x="1046" y="861" type="curve" smooth="yes"/>
      <point x="1085" y="774"/>
      <point x="1105" y="674"/>
      <point x="1105" y="561" type="curve" smooth="yes"/>
    </contour>
    <contour>
      <point x="737" y="486"/>
      <point x="740" y="545"/>
      <point x="740" y="606" type="curve" smooth="yes"/>
      <point x="740" y="738"/>
      <point x="726" y="837"/>
      <point x="698" y="902" type="curve" smooth="yes"/>
      <point x="670" y="967"/>
      <point x="629" y="1000"/>
      <point x="576" y="1000" type="curve" smooth="yes"/>
      <point x="480" y="1000"/>
      <point x="427" y="877"/>
      <point x="427" y="696" type="curve" smooth="yes"/>
      <point x="427" y="481"/>
      <point x="489" y="380"/>
      <point x="592" y="380" type="curve" smooth="yes"/>
      <point x="645" y="380"/>
      <point x="697" y="400"/>
      <point x="730" y="428" type="curve"/>
    </contour>
  </outline>
</glyph>
<glyph name="colon" format="1">
  <advance width="608"/>
  <unicode hex="003A"/>
  <note>
	colon
  </note>
  <outline>
    <contour>
      <point x="111" y="949"/>
      <point x="150" y="1006"/>
      <point x="212" y="1035" type="curve" smooth="yes"/>
      <point x="243" y="1050"/>
      <point x="277" y="1057"/>
      <point x="315" y="1057" type="curve" smooth="yes"/>
      <point x="386" y="1057"/>
      <point x="444" y="1023"/>
      <point x="474" y="972" type="curve" smooth="yes"/>
      <point x="489" y="946"/>
      <point x="496" y="918"/>
      <point x="496" y="889" type="curve" smooth="yes"/>
      <point x="496" y="777"/>
      <point x="413" y="711"/>
      <point x="285" y="711" type="curve" smooth="yes"/>
      <point x="226" y="711"/>
      <point x="169" y="741"/>
      <point x="136" y="792" type="curve" smooth="yes"/>
      <point x="119" y="817"/>
      <point x="111" y="846"/>
      <point x="111" y="878" type="curve" smooth="yes"/>
    </contour>
    <contour>
      <point x="111" y="226"/>
      <point x="150" y="283"/>
      <point x="212" y="312" type="curve" smooth="yes"/>
      <point x="243" y="327"/>
      <point x="277" y="334"/>
      <point x="315" y="334" type="curve" smooth="yes"/>
      <point x="386" y="334"/>
      <point x="444" y="300"/>
      <point x="474" y="249" type="curve" smooth="yes"/>
      <point x="489" y="223"/>
      <point x="496" y="195"/>
      <point x="496" y="166" type="curve" smooth="yes"/>
      <point x="496" y="54"/>
      <point x="413" y="-12"/>
      <point x="285" y="-12" type="curve" smooth="yes"/>
      <point x="226" y="-12"/>
      <point x="169" y="18"/>
      <point x="136" y="69" type="curve" smooth="yes"/>
      <point x="119" y="94"/>
      <point x="111" y="123"/>
      <point x="111" y="155" type="curve" smooth="yes"/>
    </contour>
  </outline>
</glyph>
<glyph name="semicolon" format="1">
  <advance width="608"/>
  <unicode hex="003B"/>
  <note>
	semicolon
  </note>
  <outline>
    <contour>
      <point x="313" y="336" type="line" smooth="yes"/>
      <point x="388" y="336"/>
      <point x="447" y="291"/>
      <point x="479" y="209" type="curve" smooth="yes"/>
      <point x="495" y="168"/>
      <point x="503" y="119"/>
      <point x="503" y="63" type="curve" smooth="yes"/>
      <point x="503" y="-90"/>
      <point x="440" y="-238"/>
      <point x="359" y="-336" type="curve" smooth="yes"/>
      <point x="318" y="-385"/>
      <point x="280" y="-419"/>
      <point x="243" y="-436" type="curve"/>
      <point x="240" y="-436" type="line"/>
      <point x="141" y="-365" type="line"/>
      <point x="141" y="-332" type="line"/>
      <point x="218" y="-276"/>
      <point x="266" y="-185"/>
      <point x="266" y="-85" type="curve" smooth="yes"/>
      <point x="266" y="-46"/>
      <point x="247" y="-25"/>
      <point x="206" y="11" type="curve" smooth="yes"/>
      <point x="171" y="42"/>
      <point x="151" y="61"/>
      <point x="136" y="98" type="curve" smooth="yes"/>
      <point x="128" y="117"/>
      <point x="124" y="139"/>
      <point x="124" y="164" type="curve" smooth="yes"/>
      <point x="124" y="233"/>
      <point x="156" y="287"/>
      <point x="209" y="315" type="curve" smooth="yes"/>
      <point x="235" y="329"/>
      <point x="265" y="336"/>
      <point x="299" y="336" type="curve" smooth="yes"/>
    </contour>
    <contour>
      <point x="112" y="949"/>
      <point x="151" y="1006"/>
      <point x="213" y="1035" type="curve" smooth="yes"/>
      <point x="244" y="1050"/>
      <point x="278" y="1057"/>
      <point x="316" y="1057" type="curve" smooth="yes"/>
      <point x="387" y="1057"/>
      <point x="445" y="1023"/>
      <point x="475" y="972" type="curve" smooth="yes"/>
      <point x="490" y="946"/>
      <point x="497" y="918"/>
      <point x="497" y="889" type="curve" smooth="yes"/>
      <point x="497" y="777"/>
      <point x="414" y="711"/>
      <point x="286" y="711" type="curve" smooth="yes"/>
      <point x="227" y="711"/>
      <point x="170" y="741"/>
      <point x="137" y="792" type="curve" smooth="yes"/>
      <point x="120" y="817"/>
      <point x="112" y="846"/>
      <point x="112" y="878" type="curve" smooth="yes"/>
    </contour>
  </outline>
</glyph>
<glyph name="equal" format="1">
  <advance width="1176"/>
  <unicode hex="003D"/>
  <note>
	equal
  </note>
  <outline>
    <contour>
      <point x="1010" y="884" type="line"/>
      <point x="1010" y="683" type="line"/>
      <point x="174" y="683" type="line"/>
      <point x="174" y="884" type="line"/>
    </contour>
    <contour>
      <point x="1010" y="400" type="line"/>
      <point x="1010" y="199" type="line"/>
      <point x="174" y="199" type="line"/>
      <point x="174" y="400" type="line"/>
    </contour>
  </outline>
</glyph>
<glyph name="question" format="1">
  <advance width="949"/>
  <unicode hex="003F"/>
  <note>
	question
  </note>
  <outline>
    <contour>
      <point x="247" y="441" type="line"/>
      <point x="233" y="504" type="line" smooth="yes"/>
      <point x="232" y="511"/>
      <point x="230" y="517"/>
      <point x="229" y="523" type="curve" smooth="yes"/>
      <point x="220" y="559"/>
      <point x="214" y="586"/>
      <point x="214" y="625" type="curve" smooth="yes"/>
      <point x="214" y="719"/>
      <point x="239" y="802"/>
      <point x="291" y="877" type="curve" smooth="yes"/>
      <point x="334" y="940"/>
      <point x="387" y="987"/>
      <point x="438" y="1032" type="curve" smooth="yes"/>
      <point x="478" y="1067"/>
      <point x="516" y="1100"/>
      <point x="542" y="1136" type="curve" smooth="yes"/>
      <point x="567" y="1170"/>
      <point x="578" y="1203"/>
      <point x="578" y="1243" type="curve" smooth="yes"/>
      <point x="578" y="1291"/>
      <point x="564" y="1327"/>
      <point x="537" y="1351" type="curve" smooth="yes"/>
      <point x="522" y="1364"/>
      <point x="504" y="1374"/>
      <point x="481" y="1381" type="curve" smooth="yes"/>
      <point x="454" y="1389"/>
      <point x="422" y="1394"/>
      <point x="386" y="1394" type="curve" smooth="yes"/>
      <point x="315" y="1394"/>
      <point x="237" y="1371"/>
      <point x="182" y="1336" type="curve" smooth="yes"/>
      <point x="95" y="1279" type="line"/>
      <point x="14" y="1501" type="line"/>
      <point x="57" y="1537" type="line" smooth="yes"/>
      <point x="81" y="1558"/>
      <point x="133" y="1598"/>
      <point x="210" y="1630" type="curve" smooth="yes"/>
      <point x="286" y="1662"/>
      <point x="365" y="1678"/>
      <point x="445" y="1678" type="curve" smooth="yes"/>
      <point x="517" y="1678"/>
      <point x="583" y="1670"/>
      <point x="641" y="1653" type="curve" smooth="yes"/>
      <point x="702" y="1635"/>
      <point x="755" y="1608"/>
      <point x="798" y="1572" type="curve" smooth="yes"/>
      <point x="843" y="1536"/>
      <point x="877" y="1490"/>
      <point x="900" y="1438" type="curve" smooth="yes"/>
      <point x="922" y="1386"/>
      <point x="934" y="1328"/>
      <point x="934" y="1265" type="curve" smooth="yes"/>
      <point x="934" y="1173"/>
      <point x="903" y="1092"/>
      <point x="841" y="1015" type="curve" smooth="yes"/>
      <point x="791" y="953"/>
      <point x="727" y="903"/>
      <point x="666" y="855" type="curve" smooth="yes"/>
      <point x="613" y="813"/>
      <point x="562" y="774"/>
      <point x="527" y="731" type="curve" smooth="yes"/>
      <point x="493" y="690"/>
      <point x="477" y="652"/>
      <point x="477" y="608" type="curve" smooth="yes"/>
      <point x="477" y="599"/>
      <point x="478" y="596"/>
      <point x="480" y="588" type="curve" smooth="yes"/>
      <point x="481" y="583"/>
      <point x="482" y="577"/>
      <point x="483" y="568" type="curve" smooth="yes"/>
      <point x="485" y="557"/>
      <point x="487" y="545"/>
      <point x="489" y="532" type="curve" smooth="yes"/>
      <point x="500" y="441" type="line"/>
    </contour>
    <contour>
      <point x="307" y="0"/>
      <point x="269" y="14"/>
      <point x="239" y="39" type="curve" smooth="yes"/>
      <point x="209" y="64"/>
      <point x="189" y="99"/>
      <point x="182" y="138" type="curve"/>
      <point x="180" y="145"/>
      <point x="180" y="152"/>
      <point x="180" y="159" type="curve" smooth="yes"/>
      <point x="180" y="222"/>
      <point x="217" y="281"/>
      <point x="277" y="312" type="curve" smooth="yes"/>
      <point x="305" y="327"/>
      <point x="337" y="334"/>
      <point x="370" y="334" type="curve" smooth="yes"/>
      <point x="413" y="334"/>
      <point x="452" y="320"/>
      <point x="483" y="294" type="curve" smooth="yes"/>
      <point x="512" y="269"/>
      <point x="532" y="233"/>
      <point x="539" y="194" type="curve" smooth="yes"/>
      <point x="539" y="192" type="line"/>
      <point x="539" y="188" type="line" smooth="yes"/>
      <point x="540" y="180"/>
      <point x="541" y="173"/>
      <point x="541" y="167" type="curve" smooth="yes"/>
      <point x="541" y="121"/>
      <point x="524" y="82"/>
      <point x="491" y="52" type="curve" smooth="yes"/>
      <point x="460" y="24"/>
      <point x="418" y="7"/>
      <point x="369" y="2" type="curve" smooth="yes"/>
      <point x="367" y="2"/>
      <point x="365" y="2"/>
      <point x="364" y="1" type="curve" smooth="yes"/>
      <point x="357" y="1"/>
      <point x="351" y="0"/>
      <point x="345" y="0" type="curve" smooth="yes"/>
    </contour>
  </outline>
</glyph>
<glyph name="at" format="1">
  <advance width="1966"/>
  <unicode hex="0040"/>
  <note>
	at
  </note>
  <outline>
    <contour>
      <point x="1428" y="1380"/>
      <point x="1643" y="1275"/>
      <point x="1757" y="1077" type="curve" smooth="yes"/>
      <point x="1814" y="978"/>
      <point x="1842" y="859"/>
      <point x="1842" y="721" type="curve" smooth="yes"/>
      <point x="1842" y="414"/>
      <point x="1679" y="178"/>
      <point x="1493" y="55" type="curve" smooth="yes"/>
      <point x="1400" y="-6"/>
      <point x="1323" y="-37"/>
      <point x="1262" y="-37" type="curve" smooth="yes"/>
      <point x="1217" y="-37"/>
      <point x="1179" y="-12"/>
      <point x="1157" y="39" type="curve" smooth="yes"/>
      <point x="1146" y="64"/>
      <point x="1140" y="95"/>
      <point x="1140" y="130" type="curve" smooth="yes"/>
      <point x="1140" y="176"/>
      <point x="1151" y="259"/>
      <point x="1172" y="378" type="curve"/>
      <point x="1079" y="121"/>
      <point x="954" y="-63"/>
      <point x="795" y="-63" type="curve" smooth="yes"/>
      <point x="706" y="-63"/>
      <point x="614" y="3"/>
      <point x="561" y="121" type="curve" smooth="yes"/>
      <point x="534" y="180"/>
      <point x="521" y="248"/>
      <point x="521" y="325" type="curve" smooth="yes"/>
      <point x="521" y="541"/>
      <point x="608" y="751"/>
      <point x="761" y="872" type="curve" smooth="yes"/>
      <point x="838" y="932"/>
      <point x="926" y="962"/>
      <point x="1025" y="962" type="curve" smooth="yes"/>
      <point x="1096" y="962"/>
      <point x="1175" y="945"/>
      <point x="1243" y="913" type="curve"/>
      <point x="1250" y="936"/>
      <point x="1285" y="961"/>
      <point x="1309" y="957" type="curve"/>
      <point x="1320" y="954"/>
      <point x="1345" y="945"/>
      <point x="1384" y="932" type="curve" smooth="yes"/>
      <point x="1423" y="918"/>
      <point x="1455" y="908"/>
      <point x="1480" y="901" type="curve"/>
      <point x="1468" y="848" type="line" smooth="yes"/>
      <point x="1412" y="613"/>
      <point x="1373" y="424"/>
      <point x="1369" y="287" type="curve"/>
      <point x="1368" y="281"/>
      <point x="1368" y="272"/>
      <point x="1368" y="260" type="curve" smooth="yes"/>
      <point x="1368" y="232"/>
      <point x="1371" y="209"/>
      <point x="1376" y="190" type="curve" smooth="yes"/>
      <point x="1381" y="171"/>
      <point x="1386" y="162"/>
      <point x="1392" y="162" type="curve" smooth="yes"/>
      <point x="1475" y="162"/>
      <point x="1562" y="251"/>
      <point x="1614" y="400" type="curve" smooth="yes"/>
      <point x="1640" y="474"/>
      <point x="1653" y="557"/>
      <point x="1653" y="649" type="curve" smooth="yes"/>
      <point x="1653" y="922"/>
      <point x="1527" y="1089"/>
      <point x="1347" y="1160" type="curve" smooth="yes"/>
      <point x="1257" y="1195"/>
      <point x="1159" y="1213"/>
      <point x="1052" y="1213" type="curve" smooth="yes"/>
      <point x="783" y="1213"/>
      <point x="555" y="1061"/>
      <point x="430" y="797" type="curve" smooth="yes"/>
      <point x="367" y="665"/>
      <point x="336" y="513"/>
      <point x="336" y="342" type="curve" smooth="yes"/>
      <point x="336" y="59"/>
      <point x="446" y="-135"/>
      <point x="614" y="-228" type="curve" smooth="yes"/>
      <point x="697" y="-275"/>
      <point x="790" y="-298"/>
      <point x="891" y="-298" type="curve" smooth="yes"/>
      <point x="1032" y="-298"/>
      <point x="1180" y="-265"/>
      <point x="1247" y="-221" type="curve"/>
      <point x="1296" y="-334" type="line"/>
      <point x="1196" y="-419"/>
      <point x="1023" y="-466"/>
      <point x="840" y="-466" type="curve" smooth="yes"/>
      <point x="545" y="-466"/>
      <point x="325" y="-341"/>
      <point x="212" y="-113" type="curve" smooth="yes"/>
      <point x="155" y="0"/>
      <point x="127" y="135"/>
      <point x="127" y="290" type="curve" smooth="yes"/>
      <point x="127" y="683"/>
      <point x="333" y="1038"/>
      <point x="646" y="1234" type="curve" smooth="yes"/>
      <point x="803" y="1331"/>
      <point x="969" y="1380"/>
      <point x="1145" y="1380" type="curve" smooth="yes"/>
    </contour>
    <contour>
      <point x="918" y="189"/>
      <point x="984" y="263"/>
      <point x="1044" y="371" type="curve" smooth="yes"/>
      <point x="1073" y="424"/>
      <point x="1097" y="478"/>
      <point x="1115" y="533" type="curve" smooth="yes"/>
      <point x="1143" y="625"/>
      <point x="1159" y="687"/>
      <point x="1163" y="718" type="curve"/>
      <point x="1147" y="738"/>
      <point x="1094" y="766"/>
      <point x="1045" y="783" type="curve" smooth="yes"/>
      <point x="1020" y="792"/>
      <point x="1001" y="796"/>
      <point x="987" y="796" type="curve" smooth="yes"/>
      <point x="899" y="796"/>
      <point x="838" y="716"/>
      <point x="807" y="597" type="curve" smooth="yes"/>
      <point x="792" y="538"/>
      <point x="784" y="474"/>
      <point x="784" y="406" type="curve" smooth="yes"/>
      <point x="784" y="350"/>
      <point x="796" y="274"/>
      <point x="823" y="226" type="curve" smooth="yes"/>
      <point x="836" y="201"/>
      <point x="852" y="189"/>
      <point x="870" y="189" type="curve" smooth="yes"/>
    </contour>
  </outline>
</glyph>
<glyph name="C" format="1">
  <advance width="1200"/>
  <unicode hex="0043"/>
  <note>
	C
  </note>
  <outline>
    <contour>
      <point x="40" y="943"/>
      <point x="163" y="1161"/>
      <point x="368" y="1271" type="curve" smooth="yes"/>
      <point x="470" y="1326"/>
      <point x="587" y="1353"/>
      <point x="718" y="1353" type="curve" smooth="yes"/>
      <point x="815" y="1353"/>
      <point x="896" y="1343"/>
      <point x="1024" y="1327" type="curve" smooth="yes"/>
      <point x="1076" y="1320"/>
      <point x="1126" y="1314"/>
      <point x="1153" y="1314" type="curve"/>
      <point x="1129" y="872" type="line"/>
      <point x="901" y="872" type="line"/>
      <point x="832" y="1174" type="line"/>
      <point x="809" y="1199"/>
      <point x="766" y="1211"/>
      <point x="703" y="1211" type="curve" smooth="yes"/>
      <point x="623" y="1211"/>
      <point x="561" y="1167"/>
      <point x="517" y="1079" type="curve" smooth="yes"/>
      <point x="473" y="990"/>
      <point x="451" y="857"/>
      <point x="451" y="679" type="curve" smooth="yes"/>
      <point x="451" y="454"/>
      <point x="491" y="283"/>
      <point x="568" y="192" type="curve" smooth="yes"/>
      <point x="606" y="147"/>
      <point x="653" y="124"/>
      <point x="708" y="124" type="curve" smooth="yes"/>
      <point x="792" y="124"/>
      <point x="826" y="143"/>
      <point x="857" y="176" type="curve"/>
      <point x="943" y="378" type="line"/>
      <point x="1149" y="361" type="line"/>
      <point x="1120" y="49" type="line"/>
      <point x="1079" y="45"/>
      <point x="1045" y="37"/>
      <point x="988" y="22" type="curve" smooth="yes"/>
      <point x="888" y="-5"/>
      <point x="813" y="-20"/>
      <point x="685" y="-20" type="curve" smooth="yes"/>
      <point x="398" y="-20"/>
      <point x="206" y="94"/>
      <point x="111" y="295" type="curve" smooth="yes"/>
      <point x="64" y="395"/>
      <point x="40" y="514"/>
      <point x="40" y="651" type="curve" smooth="yes"/>
    </contour>
  </outline>
</glyph>
<glyph name="F" format="1">
  <advance width="1129"/>
  <unicode hex="0046"/>
  <note>
	F
  </note>
  <outline>
    <contour>
      <point x="184" y="155" type="line"/>
      <point x="184" y="1170" type="line"/>
      <point x="46" y="1197" type="line"/>
      <point x="46" y="1339" type="line"/>
      <point x="1082" y="1339" type="line"/>
      <point x="1104" y="987" type="line"/>
      <point x="919" y="987" type="line"/>
      <point x="838" y="1180" type="line"/>
      <point x="550" y="1208" type="line"/>
      <point x="550" y="722" type="line"/>
      <point x="740" y="726" type="line"/>
      <point x="779" y="893" type="line"/>
      <point x="921" y="893" type="line"/>
      <point x="921" y="384" type="line"/>
      <point x="781" y="384" type="line"/>
      <point x="740" y="555" type="line"/>
      <point x="550" y="562" type="line"/>
      <point x="550" y="155" type="line"/>
      <point x="822" y="134" type="line"/>
      <point x="822" y="0" type="line"/>
      <point x="52" y="0" type="line"/>
      <point x="52" y="134" type="line"/>
    </contour>
  </outline>
</glyph>
<glyph name="H" format="1">
  <advance width="1521"/>
  <unicode hex="0048"/>
  <note>
	H
  </note>
  <outline>
    <contour>
      <point x="184" y="154" type="line"/>
      <point x="184" y="1171" type="line"/>
      <point x="62" y="1197" type="line"/>
      <point x="62" y="1339" type="line"/>
      <point x="692" y="1339" type="line"/>
      <point x="692" y="1197" type="line"/>
      <point x="548" y="1171" type="line"/>
      <point x="548" y="766" type="line"/>
      <point x="973" y="766" type="line"/>
      <point x="973" y="1170" type="line"/>
      <point x="841" y="1197" type="line"/>
      <point x="841" y="1339" type="line"/>
      <point x="1466" y="1339" type="line"/>
      <point x="1466" y="1197" type="line"/>
      <point x="1338" y="1171" type="line"/>
      <point x="1338" y="154" type="line"/>
      <point x="1466" y="134" type="line"/>
      <point x="1466" y="0" type="line"/>
      <point x="842" y="0" type="line"/>
      <point x="842" y="134" type="line"/>
      <point x="973" y="155" type="line"/>
      <point x="973" y="593" type="line"/>
      <point x="548" y="593" type="line"/>
      <point x="548" y="154" type="line"/>
      <point x="692" y="134" type="line"/>
      <point x="692" y="0" type="line"/>
      <point x="60" y="0" type="line"/>
      <point x="60" y="134" type="line"/>
    </contour>
  </outline>
</glyph>
<glyph name="J" format="1">
  <advance width="730"/>
  <unicode hex="004A"/>
  <note>
	J
  </note>
  <outline>
    <contour>
      <point x="-43" y="-244" type="line"/>
      <point x="44" y="-211"/>
      <point x="129" y="-130"/>
      <point x="172" y="-9" type="curve" smooth="yes"/>
      <point x="197" y="62"/>
      <point x="209" y="167"/>
      <point x="209" y="305" type="curve" smooth="yes"/>
      <point x="209" y="1170" type="line"/>
      <point x="64" y="1197" type="line"/>
      <point x="64" y="1339" type="line"/>
      <point x="704" y="1339" type="line"/>
      <point x="704" y="1197" type="line"/>
      <point x="571" y="1171" type="line"/>
      <point x="571" y="495" type="line" smooth="yes"/>
      <point x="571" y="246"/>
      <point x="561" y="89"/>
      <point x="542" y="22" type="curve" smooth="yes"/>
      <point x="481" y="-175"/>
      <point x="314" y="-318"/>
      <point x="35" y="-362" type="curve"/>
    </contour>
  </outline>
</glyph>
<glyph name="K" format="1">
  <advance width="1395"/>
  <unicode hex="004B"/>
  <note>
	K
  </note>
  <outline>
    <contour>
      <point x="991" y="0" type="line" smooth="yes"/>
      <point x="976" y="0"/>
      <point x="956" y="22"/>
      <point x="933" y="66" type="curve" smooth="yes"/>
      <point x="910" y="109"/>
      <point x="877" y="177"/>
      <point x="835" y="269" type="curve" smooth="yes"/>
      <point x="767" y="420"/>
      <point x="720" y="518"/>
      <point x="673" y="587" type="curve"/>
      <point x="548" y="437" type="line"/>
      <point x="548" y="154" type="line"/>
      <point x="691" y="133" type="line"/>
      <point x="691" y="0" type="line"/>
      <point x="50" y="0" type="line"/>
      <point x="50" y="134" type="line"/>
      <point x="184" y="155" type="line"/>
      <point x="184" y="1170" type="line"/>
      <point x="50" y="1197" type="line"/>
      <point x="50" y="1339" type="line"/>
      <point x="671" y="1339" type="line"/>
      <point x="671" y="1197" type="line"/>
      <point x="548" y="1170" type="line"/>
      <point x="548" y="642" type="line"/>
      <point x="943" y="1170" type="line"/>
      <point x="799" y="1197" type="line"/>
      <point x="798" y="1339" type="line"/>
      <point x="1346" y="1339" type="line"/>
      <point x="1346" y="1198" type="line"/>
      <point x="1178" y="1171" type="line"/>
      <point x="887" y="839" type="line"/>
      <point x="971" y="760"/>
      <point x="1055" y="614"/>
      <point x="1179" y="385" type="curve" smooth="yes"/>
      <point x="1218" y="313"/>
      <point x="1249" y="259"/>
      <point x="1270" y="223" type="curve" smooth="yes"/>
      <point x="1291" y="186"/>
      <point x="1309" y="163"/>
      <point x="1322" y="154" type="curve"/>
      <point x="1407" y="134" type="line"/>
      <point x="1407" y="0" type="line"/>
    </contour>
  </outline>
</glyph>
<glyph name="L" format="1">
  <advance width="1159"/>
  <unicode hex="004C"/>
  <note>
	L
  </note>
  <outline>
    <contour>
      <point x="184" y="154" type="line"/>
      <point x="184" y="1170" type="line"/>
      <point x="54" y="1197" type="line"/>
      <point x="54" y="1339" type="line"/>
      <point x="717" y="1339" type="line"/>
      <point x="717" y="1197" type="line"/>
      <point x="550" y="1170" type="line"/>
      <point x="550" y="158" type="line"/>
      <point x="826" y="177" type="line"/>
      <point x="950" y="560" type="line"/>
      <point x="1148" y="535" type="line"/>
      <point x="1101" y="0" type="line"/>
      <point x="53" y="0" type="line"/>
      <point x="53" y="134" type="line"/>
    </contour>
  </outline>
</glyph>
<glyph name="N" format="1">
  <advance width="1456"/>
  <unicode hex="004E"/>
  <note>
	N
  </note>
  <outline>
    <contour>
      <point x="189" y="154" type="line"/>
      <point x="189" y="1171" type="line"/>
      <point x="48" y="1197" type="line"/>
      <point x="48" y="1339" type="line"/>
      <point x="558" y="1339" type="line"/>
      <point x="1007" y="627" type="line"/>
      <point x="1109" y="398" type="line"/>
      <point x="1109" y="1171" type="line"/>
      <point x="957" y="1197" type="line"/>
      <point x="957" y="1339" type="line"/>
      <point x="1435" y="1339" type="line"/>
      <point x="1435" y="1197" type="line"/>
      <point x="1302" y="1171" type="line"/>
      <point x="1302" y="0" type="line"/>
      <point x="978" y="0" type="line"/>
      <point x="491" y="786" type="line"/>
      <point x="383" y="1023" type="line"/>
      <point x="383" y="155" type="line"/>
      <point x="583" y="134" type="line"/>
      <point x="583" y="0" type="line"/>
      <point x="48" y="0" type="line"/>
      <point x="48" y="134" type="line"/>
    </contour>
  </outline>
</glyph>
<glyph name="Q" format="1">
  <advance width="1325"/>
  <unicode hex="0051"/>
  <note>
	Q
  </note>
  <outline>
    <contour>
      <point x="42" y="947"/>
      <point x="146" y="1161"/>
      <point x="334" y="1274" type="curve" smooth="yes"/>
      <point x="428" y="1330"/>
      <point x="539" y="1358"/>
      <point x="668" y="1358" type="curve" smooth="yes"/>
      <point x="1097" y="1358"/>
      <point x="1283" y="1123"/>
      <point x="1283" y="695" type="curve" smooth="yes"/>
      <point x="1283" y="410"/>
      <point x="1175" y="182"/>
      <point x="980" y="65" type="curve"/>
      <point x="1047" y="50"/>
      <point x="1104" y="26"/>
      <point x="1220" y="-26" type="curve" smooth="yes"/>
      <point x="1368" y="-93"/>
      <point x="1454" y="-126"/>
      <point x="1538" y="-126" type="curve" smooth="yes"/>
      <point x="1540" y="-126" type="line" smooth="yes"/>
      <point x="1594" y="-126"/>
      <point x="1632" y="-122"/>
      <point x="1654" y="-114" type="curve"/>
      <point x="1683" y="-202" type="line"/>
      <point x="1654" y="-242"/>
      <point x="1632" y="-274"/>
      <point x="1564" y="-305" type="curve" smooth="yes"/>
      <point x="1530" y="-320"/>
      <point x="1487" y="-328"/>
      <point x="1435" y="-328" type="curve" smooth="yes"/>
      <point x="1426" y="-328" type="line" smooth="yes"/>
      <point x="1319" y="-328"/>
      <point x="1219" y="-287"/>
      <point x="1139" y="-237" type="curve" smooth="yes"/>
      <point x="1099" y="-212"/>
      <point x="1051" y="-179"/>
      <point x="994" y="-137" type="curve" smooth="yes"/>
      <point x="899" y="-69"/>
      <point x="847" y="-34"/>
      <point x="786" y="-7" type="curve"/>
      <point x="738" y="-16"/>
      <point x="693" y="-20"/>
      <point x="651" y="-20" type="curve" smooth="yes"/>
      <point x="228" y="-20"/>
      <point x="42" y="234"/>
      <point x="42" y="670" type="curve" smooth="yes"/>
    </contour>
    <contour>
      <point x="443" y="473"/>
      <point x="462" y="331"/>
      <point x="499" y="244" type="curve" smooth="yes"/>
      <point x="536" y="157"/>
      <point x="590" y="113"/>
      <point x="661" y="113" type="curve" smooth="yes"/>
      <point x="732" y="113"/>
      <point x="786" y="163"/>
      <point x="825" y="263" type="curve" smooth="yes"/>
      <point x="863" y="362"/>
      <point x="882" y="506"/>
      <point x="882" y="694" type="curve" smooth="yes"/>
      <point x="882" y="827"/>
      <point x="873" y="933"/>
      <point x="856" y="1011" type="curve" smooth="yes"/>
      <point x="821" y="1167"/>
      <point x="759" y="1225"/>
      <point x="664" y="1225" type="curve" smooth="yes"/>
      <point x="591" y="1225"/>
      <point x="536" y="1179"/>
      <point x="499" y="1088" type="curve" smooth="yes"/>
      <point x="462" y="996"/>
      <point x="443" y="857"/>
      <point x="443" y="671" type="curve" smooth="yes"/>
    </contour>
  </outline>
</glyph>
<glyph name="S" format="1">
  <advance width="1110"/>
  <unicode hex="0053"/>
  <note>
	S
  </note>
  <outline>
    <contour>
      <point x="106" y="400" type="line"/>
      <point x="301" y="400" type="line"/>
      <point x="351" y="173" type="line"/>
      <point x="372" y="144"/>
      <point x="436" y="120"/>
      <point x="529" y="120" type="curve" smooth="yes"/>
      <point x="658" y="120"/>
      <point x="719" y="177"/>
      <point x="719" y="277" type="curve" smooth="yes"/>
      <point x="719" y="349"/>
      <point x="672" y="402"/>
      <point x="592" y="450" type="curve" smooth="yes"/>
      <point x="551" y="474"/>
      <point x="495" y="503"/>
      <point x="423" y="537" type="curve" smooth="yes"/>
      <point x="203" y="640"/>
      <point x="93" y="788"/>
      <point x="93" y="979" type="curve" smooth="yes"/>
      <point x="93" y="1114"/>
      <point x="158" y="1233"/>
      <point x="306" y="1305" type="curve" smooth="yes"/>
      <point x="380" y="1340"/>
      <point x="474" y="1358"/>
      <point x="588" y="1358" type="curve" smooth="yes"/>
      <point x="724" y="1358"/>
      <point x="812" y="1338"/>
      <point x="921" y="1309" type="curve" smooth="yes"/>
      <point x="955" y="1299"/>
      <point x="978" y="1294"/>
      <point x="990" y="1294" type="curve"/>
      <point x="979" y="964" type="line"/>
      <point x="788" y="964" type="line"/>
      <point x="744" y="1184" type="line"/>
      <point x="732" y="1204"/>
      <point x="677" y="1223"/>
      <point x="609" y="1223" type="curve" smooth="yes"/>
      <point x="490" y="1223"/>
      <point x="438" y="1157"/>
      <point x="438" y="1074" type="curve" smooth="yes"/>
      <point x="438" y="997"/>
      <point x="498" y="936"/>
      <point x="575" y="889" type="curve" smooth="yes"/>
      <point x="614" y="866"/>
      <point x="667" y="837"/>
      <point x="736" y="803" type="curve"/>
      <point x="739" y="802"/>
      <point x="747" y="797"/>
      <point x="761" y="790" type="curve" smooth="yes"/>
      <point x="876" y="734"/>
      <point x="968" y="676"/>
      <point x="1033" y="574" type="curve" smooth="yes"/>
      <point x="1066" y="523"/>
      <point x="1082" y="463"/>
      <point x="1082" y="395" type="curve" smooth="yes"/>
      <point x="1082" y="259"/>
      <point x="1031" y="127"/>
      <point x="874" y="43" type="curve" smooth="yes"/>
      <point x="795" y="1"/>
      <point x="688" y="-20"/>
      <point x="552" y="-20" type="curve" smooth="yes"/>
      <point x="413" y="-20"/>
      <point x="303" y="3"/>
      <point x="176" y="39" type="curve" smooth="yes"/>
      <point x="135" y="50"/>
      <point x="107" y="56"/>
      <point x="91" y="58" type="curve"/>
    </contour>
  </outline>
</glyph>
<glyph name="U" format="1">
  <advance width="1346"/>
  <unicode hex="0055"/>
  <note>
	U
  </note>
  <outline>
    <contour>
      <point x="126" y="1170" type="line"/>
      <point x="21" y="1197" type="line"/>
      <point x="21" y="1339" type="line"/>
      <point x="654" y="1339" type="line"/>
      <point x="654" y="1197" type="line"/>
      <point x="504" y="1167" type="line"/>
      <point x="504" y="506" type="line" smooth="yes"/>
      <point x="504" y="251"/>
      <point x="589" y="124"/>
      <point x="759" y="124" type="curve" smooth="yes"/>
      <point x="931" y="124"/>
      <point x="1003" y="273"/>
      <point x="1003" y="506" type="curve" smooth="yes"/>
      <point x="1003" y="1170" type="line"/>
      <point x="846" y="1197" type="line"/>
      <point x="846" y="1339" type="line"/>
      <point x="1338" y="1339" type="line"/>
      <point x="1338" y="1197" type="line"/>
      <point x="1227" y="1170" type="line"/>
      <point x="1227" y="526" type="line" smooth="yes"/>
      <point x="1227" y="153"/>
      <point x="1026" y="-14"/>
      <point x="702" y="-14" type="curve" smooth="yes"/>
      <point x="318" y="-14"/>
      <point x="126" y="155"/>
      <point x="126" y="536" type="curve" smooth="yes"/>
    </contour>
  </outline>
</glyph>
<glyph name="V" format="1">
  <advance width="1279"/>
  <unicode hex="0056"/>
  <note>
	V
  </note>
  <outline>
    <contour>
      <point x="-38" y="1197" type="line"/>
      <point x="-38" y="1339" type="line"/>
      <point x="606" y="1339" type="line"/>
      <point x="606" y="1197" type="line"/>
      <point x="465" y="1171" type="line"/>
      <point x="693" y="418" type="line"/>
      <point x="726" y="290" type="line"/>
      <point x="751" y="418" type="line"/>
      <point x="976" y="1170" type="line"/>
      <point x="836" y="1197" type="line"/>
      <point x="836" y="1339" type="line"/>
      <point x="1323" y="1339" type="line"/>
      <point x="1323" y="1197" type="line"/>
      <point x="1206" y="1170" type="line"/>
      <point x="807" y="-13" type="line"/>
      <point x="510" y="-13" type="line"/>
      <point x="67" y="1170" type="line"/>
    </contour>
  </outline>
</glyph>
<glyph name="W" format="1">
  <advance width="1877"/>
  <unicode hex="0057"/>
  <note>
	W
  </note>
  <outline>
    <contour>
      <point x="-31" y="1197" type="line"/>
      <point x="-31" y="1339" type="line"/>
      <point x="588" y="1339" type="line"/>
      <point x="588" y="1197" type="line"/>
      <point x="446" y="1170" type="line"/>
      <point x="646" y="396" type="line"/>
      <point x="671" y="271" type="line"/>
      <point x="687" y="396" type="line"/>
      <point x="857" y="1016" type="line"/>
      <point x="805" y="1170" type="line"/>
      <point x="700" y="1197" type="line"/>
      <point x="700" y="1339" type="line"/>
      <point x="1348" y="1339" type="line"/>
      <point x="1348" y="1197" type="line"/>
      <point x="1178" y="1170" type="line"/>
      <point x="1380" y="396" type="line"/>
      <point x="1409" y="258" type="line"/>
      <point x="1430" y="396" type="line"/>
      <point x="1605" y="1170" type="line"/>
      <point x="1465" y="1197" type="line"/>
      <point x="1465" y="1339" type="line"/>
      <point x="1907" y="1339" type="line"/>
      <point x="1907" y="1197" type="line"/>
      <point x="1796" y="1170" type="line"/>
      <point x="1478" y="-9" type="line"/>
      <point x="1153" y="-9" type="line"/>
      <point x="942" y="744" type="line"/>
      <point x="746" y="-9" type="line"/>
      <point x="423" y="-9" type="line"/>
      <point x="66" y="1170" type="line"/>
    </contour>
  </outline>
</glyph>
<glyph name="X" format="1">
  <advance width="1312"/>
  <unicode hex="0058"/>
  <note>
	X
  </note>
  <outline>
    <contour>
      <point x="156" y="153" type="line"/>
      <point x="480" y="633" type="line"/>
      <point x="124" y="1170" type="line"/>
      <point x="12" y="1197" type="line"/>
      <point x="12" y="1339" type="line"/>
      <point x="673" y="1339" type="line"/>
      <point x="673" y="1197" type="line"/>
      <point x="548" y="1169" type="line"/>
      <point x="745" y="828" type="line"/>
      <point x="960" y="1170" type="line"/>
      <point x="813" y="1197" type="line"/>
      <point x="813" y="1339" type="line"/>
      <point x="1302" y="1339" type="line"/>
      <point x="1302" y="1197" type="line"/>
      <point x="1155" y="1170" type="line"/>
      <point x="827" y="726" type="line"/>
      <point x="1208" y="155" type="line"/>
      <point x="1318" y="134" type="line"/>
      <point x="1318" y="0" type="line"/>
      <point x="658" y="0" type="line"/>
      <point x="658" y="134" type="line"/>
      <point x="786" y="156" type="line"/>
      <point x="566" y="527" type="line"/>
      <point x="356" y="153" type="line"/>
      <point x="516" y="134" type="line"/>
      <point x="516" y="0" type="line"/>
      <point x="9" y="0" type="line"/>
      <point x="9" y="134" type="line"/>
    </contour>
  </outline>
</glyph>
<glyph name="Y" format="1">
  <advance width="1191"/>
  <unicode hex="0059"/>
  <note>
	Y
  </note>
  <outline>
    <contour>
      <point x="412" y="155" type="line"/>
      <point x="412" y="545" type="line"/>
      <point x="55" y="1171" type="line"/>
      <point x="-42" y="1197" type="line"/>
      <point x="-42" y="1339" type="line"/>
      <point x="577" y="1339" type="line"/>
      <point x="577" y="1197" type="line"/>
      <point x="470" y="1170" type="line"/>
      <point x="653" y="790" type="line"/>
      <point x="690" y="683" type="line"/>
      <point x="728" y="788" type="line"/>
      <point x="889" y="1170" type="line"/>
      <point x="756" y="1197" type="line"/>
      <point x="756" y="1339" type="line"/>
      <point x="1241" y="1339" type="line"/>
      <point x="1241" y="1197" type="line"/>
      <point x="1134" y="1175" type="line"/>
      <point x="803" y="546" type="line"/>
      <point x="803" y="154" type="line"/>
      <point x="990" y="134" type="line"/>
      <point x="990" y="0" type="line"/>
      <point x="233" y="0" type="line"/>
      <point x="233" y="134" type="line"/>
    </contour>
  </outline>
</glyph>
<glyph name="Z" format="1">
  <advance width="1182"/>
  <unicode hex="005A"/>
  <note>
	Z
  </note>
  <outline>
    <contour>
      <point x="631" y="1097" type="line"/>
      <point x="741" y="1216" type="line"/>
      <point x="363" y="1188" type="line"/>
      <point x="258" y="935" type="line"/>
      <point x="77" y="962" type="line"/>
      <point x="125" y="1343" type="line"/>
      <point x="1094" y="1343" type="line"/>
      <point x="1141" y="1221" type="line"/>
      <point x="536" y="244" type="line"/>
      <point x="404" y="133" type="line"/>
      <point x="863" y="172" type="line"/>
      <point x="972" y="449" type="line"/>
      <point x="1153" y="413" type="line"/>
      <point x="1113" y="0" type="line"/>
      <point x="77" y="0" type="line"/>
      <point x="9" y="117" type="line"/>
    </contour>
  </outline>
</glyph>
<glyph name="bracketleft" format="1">
  <advance width="782"/>
  <unicode hex="005B"/>
  <note>
	bracketleft
  </note>
  <outline>
    <contour>
      <point x="149" y="1246" type="line" smooth="yes"/>
      <point x="149" y="1357"/>
      <point x="192" y="1413"/>
      <point x="265" y="1434" type="curve" smooth="yes"/>
      <point x="301" y="1444"/>
      <point x="346" y="1449"/>
      <point x="401" y="1449" type="curve" smooth="yes"/>
      <point x="488" y="1449"/>
      <point x="562" y="1435"/>
      <point x="658" y="1411" type="curve"/>
      <point x="658" y="1300" type="line"/>
      <point x="451" y="1300" type="line"/>
      <point x="451" y="-96" type="line"/>
      <point x="658" y="-96" type="line"/>
      <point x="658" y="-209" type="line"/>
      <point x="568" y="-234"/>
      <point x="482" y="-247"/>
      <point x="401" y="-247" type="curve" smooth="yes"/>
      <point x="292" y="-247"/>
      <point x="220" y="-231"/>
      <point x="180" y="-171" type="curve"/>
      <point x="159" y="-142"/>
      <point x="149" y="-99"/>
      <point x="149" y="-44" type="curve" smooth="yes"/>
    </contour>
  </outline>
</glyph>
<glyph name="backslash" format="1">
  <advance width="776"/>
  <unicode hex="005C"/>
  <note>
	backslash
  </note>
  <outline>
    <contour>
      <point x="683" y="-319" type="line"/>
      <point x="458" y="-319" type="line"/>
      <point x="16" y="1407" type="line"/>
      <point x="240" y="1407" type="line"/>
    </contour>
  </outline>
</glyph>
<glyph name="bracketright" format="1">
  <advance width="782"/>
  <unicode hex="005D"/>
  <note>
	bracketright
  </note>
  <outline>
    <contour>
      <point x="634" y="-44" type="line" smooth="yes"/>
      <point x="634" y="-155"/>
      <point x="590" y="-211"/>
      <point x="518" y="-231" type="curve" smooth="yes"/>
      <point x="482" y="-242"/>
      <point x="436" y="-247"/>
      <point x="381" y="-247" type="curve" smooth="yes"/>
      <point x="300" y="-247"/>
      <point x="215" y="-234"/>
      <point x="124" y="-209" type="curve"/>
      <point x="124" y="-96" type="line"/>
      <point x="332" y="-96" type="line"/>
      <point x="332" y="1300" type="line"/>
      <point x="124" y="1300" type="line"/>
      <point x="124" y="1411" type="line"/>
      <point x="220" y="1435"/>
      <point x="296" y="1449"/>
      <point x="381" y="1449" type="curve" smooth="yes"/>
      <point x="492" y="1449"/>
      <point x="562" y="1433"/>
      <point x="603" y="1374" type="curve" smooth="yes"/>
      <point x="624" y="1344"/>
      <point x="634" y="1301"/>
      <point x="634" y="1246" type="curve" smooth="yes"/>
    </contour>
  </outline>
</glyph>
<glyph name="asciicircum" format="1">
  <advance width="1199"/>
  <unicode hex="005E"/>
  <note>
	asciicircum
  </note>
  <outline>
    <contour>
      <point x="706" y="1347" type="line"/>
      <point x="1068" y="241" type="line"/>
      <point x="796" y="241" type="line"/>
      <point x="598" y="1009" type="line"/>
      <point x="401" y="241" type="line"/>
      <point x="131" y="241" type="line"/>
      <point x="489" y="1347" type="line"/>
    </contour>
  </outline>
</glyph>
<glyph name="grave" format="1">
  <advance width="599"/>
  <unicode hex="0060"/>
  <note>
	grave
  </note>
  <outline>
    <contour>
      <point x="129" y="1632" type="line"/>
      <point x="130" y="1632" type="line"/>
      <point x="465" y="1235" type="line"/>
      <point x="334" y="1132" type="line"/>
      <point x="331" y="1132" type="line"/>
      <point x="256" y="1160"/>
      <point x="138" y="1241"/>
      <point x="43" y="1332" type="curve" smooth="yes"/>
      <point x="-4" y="1377"/>
      <point x="-39" y="1419"/>
      <point x="-62" y="1457" type="curve"/>
    </contour>
  </outline>
</glyph>
<glyph name="b" format="1">
  <advance width="1143"/>
  <unicode hex="0062"/>
  <note>
	b
  </note>
  <outline>
    <contour>
      <point x="4" y="1313" type="line"/>
      <point x="4" y="1432" type="line"/>
      <point x="391" y="1478" type="line"/>
      <point x="395" y="1478" type="line"/>
      <point x="462" y="1438" type="line"/>
      <point x="462" y="920" type="line"/>
      <point x="518" y="981"/>
      <point x="610" y="1028"/>
      <point x="707" y="1028" type="curve" smooth="yes"/>
      <point x="859" y="1028"/>
      <point x="978" y="963"/>
      <point x="1043" y="815" type="curve" smooth="yes"/>
      <point x="1076" y="741"/>
      <point x="1092" y="647"/>
      <point x="1092" y="532" type="curve" smooth="yes"/>
      <point x="1092" y="321"/>
      <point x="1001" y="147"/>
      <point x="834" y="52" type="curve" smooth="yes"/>
      <point x="751" y="4"/>
      <point x="653" y="-20"/>
      <point x="540" y="-20" type="curve" smooth="yes"/>
      <point x="383" y="-20"/>
      <point x="261" y="1"/>
      <point x="194" y="22" type="curve" smooth="yes"/>
      <point x="160" y="33"/>
      <point x="136" y="42"/>
      <point x="122" y="49" type="curve"/>
      <point x="122" y="1287" type="line"/>
    </contour>
    <contour>
      <point x="462" y="129" type="line"/>
      <point x="471" y="113"/>
      <point x="507" y="99"/>
      <point x="548" y="99" type="curve" smooth="yes"/>
      <point x="603" y="99"/>
      <point x="646" y="134"/>
      <point x="677" y="203" type="curve" smooth="yes"/>
      <point x="708" y="272"/>
      <point x="724" y="375"/>
      <point x="724" y="510" type="curve" smooth="yes"/>
      <point x="724" y="621"/>
      <point x="711" y="702"/>
      <point x="686" y="753" type="curve" smooth="yes"/>
      <point x="661" y="803"/>
      <point x="624" y="828"/>
      <point x="576" y="828" type="curve" smooth="yes"/>
      <point x="531" y="828"/>
      <point x="486" y="805"/>
      <point x="462" y="776" type="curve"/>
    </contour>
  </outline>
</glyph>
<glyph name="f" format="1">
  <advance width="755"/>
  <unicode hex="0066"/>
  <note>
	f
  </note>
  <outline>
    <contour>
      <point x="178" y="152" type="line"/>
      <point x="178" y="836" type="line"/>
      <point x="52" y="836" type="line"/>
      <point x="52" y="960" type="line"/>
      <point x="178" y="998" type="line"/>
      <point x="178" y="1070" type="line" smooth="yes"/>
      <point x="178" y="1237"/>
      <point x="275" y="1380"/>
      <point x="430" y="1459" type="curve" smooth="yes"/>
      <point x="507" y="1498"/>
      <point x="592" y="1518"/>
      <point x="683" y="1518" type="curve" smooth="yes"/>
      <point x="746" y="1518"/>
      <point x="779" y="1509"/>
      <point x="811" y="1498" type="curve"/>
      <point x="811" y="1194" type="line"/>
      <point x="794" y="1215"/>
      <point x="746" y="1241"/>
      <point x="691" y="1257" type="curve" smooth="yes"/>
      <point x="663" y="1265"/>
      <point x="637" y="1269"/>
      <point x="612" y="1269" type="curve" smooth="yes"/>
      <point x="545" y="1269"/>
      <point x="524" y="1239"/>
      <point x="524" y="1170" type="curve" smooth="yes"/>
      <point x="524" y="1001" type="line"/>
      <point x="727" y="1001" type="line"/>
      <point x="727" y="836" type="line"/>
      <point x="524" y="836" type="line"/>
      <point x="524" y="151" type="line"/>
      <point x="699" y="133" type="line"/>
      <point x="699" y="0" type="line"/>
      <point x="49" y="0" type="line"/>
      <point x="49" y="133" type="line"/>
    </contour>
  </outline>
</glyph>
<glyph name="g" format="1">
  <advance width="1158"/>
  <unicode hex="0067"/>
  <note>
	g
  </note>
  <outline>
    <contour>
      <point x="518" y="345" type="line" smooth="yes"/>
      <point x="463" y="345"/>
      <point x="414" y="349"/>
      <point x="370" y="356" type="curve"/>
      <point x="366" y="329"/>
      <point x="363" y="301"/>
      <point x="363" y="286" type="curve" smooth="yes"/>
      <point x="363" y="241"/>
      <point x="384" y="219"/>
      <point x="438" y="209" type="curve" smooth="yes"/>
      <point x="465" y="204"/>
      <point x="503" y="201"/>
      <point x="554" y="201" type="curve" smooth="yes"/>
      <point x="730" y="201" type="line" smooth="yes"/>
      <point x="994" y="201"/>
      <point x="1130" y="112"/>
      <point x="1130" y="-84" type="curve" smooth="yes"/>
      <point x="1130" y="-251"/>
      <point x="1002" y="-376"/>
      <point x="817" y="-439" type="curve" smooth="yes"/>
      <point x="724" y="-470"/>
      <point x="628" y="-486"/>
      <point x="527" y="-486" type="curve" smooth="yes"/>
      <point x="526" y="-486" type="line" smooth="yes"/>
      <point x="182" y="-486"/>
      <point x="40" y="-369"/>
      <point x="40" y="-197" type="curve" smooth="yes"/>
      <point x="40" y="-136"/>
      <point x="71" y="-74"/>
      <point x="123" y="-25" type="curve" smooth="yes"/>
      <point x="148" y="-1"/>
      <point x="177" y="18"/>
      <point x="210" y="31" type="curve"/>
      <point x="155" y="66"/>
      <point x="128" y="118"/>
      <point x="128" y="187" type="curve" smooth="yes"/>
      <point x="128" y="262"/>
      <point x="186" y="341"/>
      <point x="277" y="378" type="curve"/>
      <point x="128" y="430"/>
      <point x="69" y="538"/>
      <point x="69" y="693" type="curve" smooth="yes"/>
      <point x="69" y="829"/>
      <point x="158" y="934"/>
      <point x="304" y="988" type="curve" smooth="yes"/>
      <point x="377" y="1015"/>
      <point x="457" y="1028"/>
      <point x="546" y="1028" type="curve" smooth="yes"/>
      <point x="547" y="1028" type="line" smooth="yes"/>
      <point x="711" y="1028"/>
      <point x="828" y="999"/>
      <point x="897" y="942" type="curve"/>
      <point x="930" y="987"/>
      <point x="1011" y="1032"/>
      <point x="1084" y="1032" type="curve" smooth="yes"/>
      <point x="1152" y="1032" type="line"/>
      <point x="1152" y="782" type="line"/>
      <point x="982" y="782" type="line"/>
      <point x="986" y="759"/>
      <point x="988" y="733"/>
      <point x="988" y="704" type="curve" smooth="yes"/>
      <point x="989" y="559"/>
      <point x="921" y="449"/>
      <point x="781" y="390" type="curve" smooth="yes"/>
      <point x="711" y="360"/>
      <point x="624" y="345"/>
      <point x="519" y="345" type="curve" smooth="yes"/>
    </contour>
    <contour>
      <point x="538" y="901" type="line" smooth="yes"/>
      <point x="451" y="901"/>
      <point x="416" y="827"/>
      <point x="416" y="695" type="curve" smooth="yes"/>
      <point x="416" y="547"/>
      <point x="452" y="477"/>
      <point x="537" y="477" type="curve" smooth="yes"/>
      <point x="538" y="477" type="line" smooth="yes"/>
      <point x="619" y="477"/>
      <point x="651" y="554"/>
      <point x="651" y="686" type="curve" smooth="yes"/>
      <point x="651" y="838"/>
      <point x="619" y="901"/>
      <point x="539" y="901" type="curve" smooth="yes"/>
    </contour>
    <contour>
      <point x="385" y="-47"/>
      <point x="380" y="-86"/>
      <point x="380" y="-134" type="curve" smooth="yes"/>
      <point x="380" y="-261"/>
      <point x="440" y="-334"/>
      <point x="568" y="-334" type="curve" smooth="yes"/>
      <point x="570" y="-334" type="line" smooth="yes"/>
      <point x="637" y="-334"/>
      <point x="695" y="-308"/>
      <point x="731" y="-251" type="curve" smooth="yes"/>
      <point x="748" y="-223"/>
      <point x="757" y="-188"/>
      <point x="757" y="-147" type="curve" smooth="yes"/>
      <point x="757" y="-52"/>
      <point x="712" y="-18"/>
      <point x="607" y="-18" type="curve" smooth="yes"/>
      <point x="436" y="-18" type="line" smooth="yes"/>
      <point x="425" y="-18"/>
      <point x="412" y="-17"/>
      <point x="395" y="-16" type="curve"/>
    </contour>
  </outline>
</glyph>
<glyph name="k" format="1">
  <advance width="1208"/>
  <unicode hex="006B"/>
  <note>
	k
  </note>
  <outline>
    <contour>
      <point x="147" y="151" type="line"/>
      <point x="147" y="1280" type="line"/>
      <point x="32" y="1307" type="line"/>
      <point x="32" y="1432" type="line"/>
      <point x="429" y="1478" type="line"/>
      <point x="434" y="1478" type="line"/>
      <point x="494" y="1434" type="line"/>
      <point x="494" y="613" type="line"/>
      <point x="488" y="533" type="line"/>
      <point x="787" y="854" type="line"/>
      <point x="656" y="873" type="line"/>
      <point x="656" y="1001" type="line"/>
      <point x="1174" y="1001" type="line"/>
      <point x="1174" y="873" type="line"/>
      <point x="1020" y="848" type="line"/>
      <point x="859" y="700" type="line"/>
      <point x="1138" y="152" type="line"/>
      <point x="1222" y="134" type="line"/>
      <point x="1222" y="0" type="line"/>
      <point x="688" y="0" type="line"/>
      <point x="688" y="133" type="line"/>
      <point x="755" y="152" type="line"/>
      <point x="615" y="477" type="line"/>
      <point x="486" y="342" type="line"/>
      <point x="492" y="250" type="line"/>
      <point x="492" y="152" type="line"/>
      <point x="583" y="133" type="line"/>
      <point x="583" y="0" type="line"/>
      <point x="56" y="0" type="line"/>
      <point x="56" y="134" type="line"/>
    </contour>
  </outline>
</glyph>
<glyph name="l" format="1">
  <advance width="629"/>
  <unicode hex="006C"/>
  <note>
	l
  </note>
  <outline>
    <contour>
      <point x="147" y="152" type="line"/>
      <point x="147" y="1280" type="line"/>
      <point x="30" y="1307" type="line"/>
      <point x="30" y="1432" type="line"/>
      <point x="428" y="1478" type="line"/>
      <point x="433" y="1478" type="line"/>
      <point x="493" y="1434" type="line"/>
      <point x="493" y="152" type="line"/>
      <point x="590" y="134" type="line"/>
      <point x="590" y="0" type="line"/>
      <point x="49" y="0" type="line"/>
      <point x="49" y="134" type="line"/>
    </contour>
  </outline>
</glyph>
<glyph name="m" format="1">
  <advance width="1870"/>
  <unicode hex="006D"/>
  <note>
	m
  </note>
  <outline>
    <contour>
      <point x="171" y="151" type="line"/>
      <point x="171" y="788" type="line"/>
      <point x="75" y="822" type="line"/>
      <point x="75" y="984" type="line"/>
      <point x="438" y="1027" type="line"/>
      <point x="443" y="1027" type="line"/>
      <point x="495" y="986" type="line"/>
      <point x="495" y="925" type="line"/>
      <point x="494" y="882" type="line"/>
      <point x="545" y="935"/>
      <point x="641" y="980"/>
      <point x="734" y="1005" type="curve" smooth="yes"/>
      <point x="780" y="1017"/>
      <point x="818" y="1023"/>
      <point x="849" y="1023" type="curve" smooth="yes"/>
      <point x="980" y="1023"/>
      <point x="1057" y="979"/>
      <point x="1100" y="886" type="curve"/>
      <point x="1183" y="971"/>
      <point x="1305" y="1023"/>
      <point x="1436" y="1023" type="curve" smooth="yes"/>
      <point x="1576" y="1023"/>
      <point x="1662" y="971"/>
      <point x="1705" y="859" type="curve" smooth="yes"/>
      <point x="1726" y="802"/>
      <point x="1737" y="728"/>
      <point x="1737" y="637" type="curve" smooth="yes"/>
      <point x="1737" y="151" type="line"/>
      <point x="1834" y="133" type="line"/>
      <point x="1834" y="0" type="line"/>
      <point x="1316" y="0" type="line"/>
      <point x="1316" y="133" type="line"/>
      <point x="1382" y="151" type="line"/>
      <point x="1382" y="628" type="line" smooth="yes"/>
      <point x="1382" y="681"/>
      <point x="1378" y="723"/>
      <point x="1371" y="752" type="curve" smooth="yes"/>
      <point x="1356" y="810"/>
      <point x="1326" y="831"/>
      <point x="1270" y="831" type="curve" smooth="yes"/>
      <point x="1225" y="831"/>
      <point x="1178" y="810"/>
      <point x="1131" y="769" type="curve"/>
      <point x="1137" y="732"/>
      <point x="1140" y="688"/>
      <point x="1140" y="637" type="curve" smooth="yes"/>
      <point x="1140" y="151" type="line"/>
      <point x="1228" y="133" type="line"/>
      <point x="1228" y="0" type="line"/>
      <point x="708" y="0" type="line"/>
      <point x="708" y="133" type="line"/>
      <point x="782" y="151" type="line"/>
      <point x="782" y="636" type="line" smooth="yes"/>
      <point x="782" y="687"/>
      <point x="779" y="727"/>
      <point x="772" y="755" type="curve" smooth="yes"/>
      <point x="759" y="810"/>
      <point x="730" y="831"/>
      <point x="671" y="831" type="curve" smooth="yes"/>
      <point x="614" y="831"/>
      <point x="563" y="804"/>
      <point x="527" y="769" type="curve"/>
      <point x="527" y="151" type="line"/>
      <point x="613" y="133" type="line"/>
      <point x="613" y="0" type="line"/>
      <point x="83" y="0" type="line"/>
      <point x="83" y="133" type="line"/>
    </contour>
  </outline>
</glyph>
<glyph name="n" format="1">
  <advance width="1269"/>
  <unicode hex="006E"/>
  <note>
	n
  </note>
  <outline>
    <contour>
      <point x="171" y="151" type="line"/>
      <point x="171" y="788" type="line"/>
      <point x="75" y="822" type="line"/>
      <point x="75" y="984" type="line"/>
      <point x="438" y="1027" type="line"/>
      <point x="443" y="1027" type="line"/>
      <point x="495" y="986" type="line"/>
      <point x="495" y="925" type="line"/>
      <point x="494" y="883" type="line"/>
      <point x="575" y="963"/>
      <point x="705" y="1023"/>
      <point x="850" y="1023" type="curve" smooth="yes"/>
      <point x="990" y="1023"/>
      <point x="1072" y="977"/>
      <point x="1112" y="865" type="curve" smooth="yes"/>
      <point x="1131" y="809"/>
      <point x="1141" y="733"/>
      <point x="1141" y="637" type="curve" smooth="yes"/>
      <point x="1141" y="152" type="line"/>
      <point x="1229" y="136" type="line"/>
      <point x="1229" y="0" type="line"/>
      <point x="708" y="0" type="line"/>
      <point x="708" y="134" type="line"/>
      <point x="783" y="152" type="line"/>
      <point x="783" y="636" type="line" smooth="yes"/>
      <point x="783" y="687"/>
      <point x="780" y="727"/>
      <point x="773" y="755" type="curve" smooth="yes"/>
      <point x="760" y="810"/>
      <point x="730" y="831"/>
      <point x="673" y="831" type="curve" smooth="yes"/>
      <point x="624" y="831"/>
      <point x="576" y="810"/>
      <point x="527" y="769" type="curve"/>
      <point x="527" y="151" type="line"/>
      <point x="615" y="134" type="line"/>
      <point x="615" y="0" type="line"/>
      <point x="80" y="0" type="line"/>
      <point x="80" y="134" type="line"/>
    </contour>
  </outline>
</glyph>
<glyph name="q" format="1">
  <advance width="1122"/>
  <unicode hex="0071"/>
  <note>
	q
  </note>
  <outline>
    <contour>
      <point x="51" y="675"/>
      <point x="134" y="851"/>
      <point x="300" y="952" type="curve" smooth="yes"/>
      <point x="383" y="1003"/>
      <point x="484" y="1028"/>
      <point x="604" y="1028" type="curve" smooth="yes"/>
      <point x="657" y="1028"/>
      <point x="725" y="1015"/>
      <point x="808" y="990" type="curve"/>
      <point x="975" y="1018" type="line"/>
      <point x="979" y="1018" type="line"/>
      <point x="1023" y="986" type="line"/>
      <point x="1023" y="-288" type="line"/>
      <point x="1144" y="-312" type="line"/>
      <point x="1144" y="-436" type="line"/>
      <point x="492" y="-436" type="line"/>
      <point x="492" y="-312" type="line"/>
      <point x="683" y="-287" type="line"/>
      <point x="683" y="-42" type="line"/>
      <point x="688" y="82" type="line"/>
      <point x="627" y="18"/>
      <point x="533" y="-20"/>
      <point x="440" y="-20" type="curve" smooth="yes"/>
      <point x="288" y="-20"/>
      <point x="168" y="47"/>
      <point x="101" y="196" type="curve" smooth="yes"/>
      <point x="68" y="270"/>
      <point x="51" y="364"/>
      <point x="51" y="479" type="curve" smooth="yes"/>
    </contour>
    <contour>
      <point x="683" y="861" type="line"/>
      <point x="668" y="877"/>
      <point x="634" y="890"/>
      <point x="595" y="890" type="curve" smooth="yes"/>
      <point x="542" y="890"/>
      <point x="500" y="860"/>
      <point x="468" y="801" type="curve" smooth="yes"/>
      <point x="436" y="741"/>
      <point x="420" y="641"/>
      <point x="420" y="500" type="curve" smooth="yes"/>
      <point x="420" y="385"/>
      <point x="433" y="299"/>
      <point x="460" y="244" type="curve" smooth="yes"/>
      <point x="486" y="188"/>
      <point x="522" y="160"/>
      <point x="569" y="160" type="curve" smooth="yes"/>
      <point x="616" y="160"/>
      <point x="660" y="184"/>
      <point x="683" y="213" type="curve"/>
    </contour>
  </outline>
</glyph>
<glyph name="t" format="1">
  <advance width="737"/>
  <unicode hex="0074"/>
  <note>
	t
  </note>
  <outline>
    <contour>
      <point x="29" y="837" type="line"/>
      <point x="29" y="952" type="line"/>
      <point x="28" y="953"/>
      <point x="37" y="957"/>
      <point x="55" y="965" type="curve"/>
      <point x="73" y="972"/>
      <point x="87" y="978"/>
      <point x="98" y="983" type="curve" smooth="yes"/>
      <point x="110" y="988"/>
      <point x="120" y="993"/>
      <point x="129" y="996" type="curve"/>
      <point x="137" y="999"/>
      <point x="142" y="1002"/>
      <point x="144" y="1003" type="curve"/>
      <point x="192" y="1055"/>
      <point x="222" y="1123"/>
      <point x="269" y="1278" type="curve"/>
      <point x="467" y="1278" type="line"/>
      <point x="480" y="1001" type="line"/>
      <point x="717" y="1001" type="line"/>
      <point x="717" y="837" type="line"/>
      <point x="484" y="837" type="line"/>
      <point x="484" y="396" type="line" smooth="yes"/>
      <point x="484" y="331"/>
      <point x="486" y="286"/>
      <point x="489" y="261" type="curve" smooth="yes"/>
      <point x="496" y="209"/>
      <point x="511" y="198"/>
      <point x="559" y="198" type="curve" smooth="yes"/>
      <point x="560" y="198" type="line" smooth="yes"/>
      <point x="609" y="198"/>
      <point x="646" y="206"/>
      <point x="699" y="219" type="curve"/>
      <point x="700" y="219" type="line"/>
      <point x="743" y="92" type="line"/>
      <point x="668" y="33"/>
      <point x="525" y="-14"/>
      <point x="377" y="-14" type="curve" smooth="yes"/>
      <point x="375" y="-14" type="line" smooth="yes"/>
      <point x="207" y="-14"/>
      <point x="130" y="65"/>
      <point x="130" y="217" type="curve" smooth="yes"/>
      <point x="130" y="837" type="line"/>
    </contour>
  </outline>
</glyph>
<glyph name="v" format="1">
  <advance width="1036"/>
  <unicode hex="0076"/>
  <note>
	v
  </note>
  <outline>
    <contour>
      <point x="-24" y="872" type="line"/>
      <point x="-24" y="1001" type="line"/>
      <point x="534" y="1001" type="line"/>
      <point x="534" y="872" type="line"/>
      <point x="429" y="851" type="line"/>
      <point x="567" y="397" type="line"/>
      <point x="597" y="265" type="line"/>
      <point x="622" y="397" type="line"/>
      <point x="756" y="851" type="line"/>
      <point x="650" y="872" type="line"/>
      <point x="650" y="1001" type="line"/>
      <point x="1095" y="1001" type="line"/>
      <point x="1095" y="872" type="line"/>
      <point x="999" y="851" type="line"/>
      <point x="679" y="-14" type="line"/>
      <point x="396" y="-14" type="line"/>
      <point x="42" y="851" type="line"/>
    </contour>
  </outline>
</glyph>
<glyph name="w" format="1">
  <advance width="1518"/>
  <unicode hex="0077"/>
  <note>
	w
  </note>
  <outline>
    <contour>
      <point x="-42" y="872" type="line"/>
      <point x="-42" y="1001" type="line"/>
      <point x="488" y="1001" type="line"/>
      <point x="488" y="872" type="line"/>
      <point x="377" y="852" type="line"/>
      <point x="485" y="444" type="line"/>
      <point x="515" y="292" type="line"/>
      <point x="538" y="443" type="line"/>
      <point x="683" y="1001" type="line"/>
      <point x="961" y="1001" type="line"/>
      <point x="1140" y="444" type="line"/>
      <point x="1169" y="294" type="line"/>
      <point x="1194" y="443" type="line"/>
      <point x="1292" y="851" type="line"/>
      <point x="1166" y="872" type="line"/>
      <point x="1166" y="1001" type="line"/>
      <point x="1580" y="1001" type="line"/>
      <point x="1580" y="872" type="line"/>
      <point x="1496" y="854" type="line"/>
      <point x="1225" y="-14" type="line"/>
      <point x="967" y="-14" type="line"/>
      <point x="796" y="496" type="line"/>
      <point x="763" y="698" type="line"/>
      <point x="741" y="496" type="line"/>
      <point x="590" y="-14" type="line"/>
      <point x="325" y="-14" type="line"/>
      <point x="37" y="854" type="line"/>
    </contour>
  </outline>
</glyph>
<glyph name="braceleft" format="1">
  <advance width="962"/>
  <unicode hex="007B"/>
  <note>
	braceleft
  </note>
  <outline>
    <contour>
      <point x="368" y="457"/>
      <point x="362" y="489"/>
      <point x="299" y="512" type="curve" smooth="yes"/>
      <point x="267" y="523"/>
      <point x="217" y="529"/>
      <point x="148" y="529" type="curve"/>
      <point x="148" y="693" type="line"/>
      <point x="218" y="693"/>
      <point x="269" y="697"/>
      <point x="300" y="706" type="curve" smooth="yes"/>
      <point x="363" y="722"/>
      <point x="368" y="747"/>
      <point x="368" y="806" type="curve" smooth="yes"/>
      <point x="368" y="874"/>
      <point x="346" y="924"/>
      <point x="305" y="1005" type="curve" smooth="yes"/>
      <point x="264" y="1088"/>
      <point x="240" y="1141"/>
      <point x="240" y="1214" type="curve" smooth="yes"/>
      <point x="240" y="1375"/>
      <point x="335" y="1463"/>
      <point x="564" y="1463" type="curve" smooth="yes"/>
      <point x="648" y="1463"/>
      <point x="711" y="1451"/>
      <point x="811" y="1428" type="curve" smooth="yes"/>
      <point x="851" y="1419" type="line"/>
      <point x="851" y="1297" type="line"/>
      <point x="715" y="1297" type="line" smooth="yes"/>
      <point x="624" y="1297"/>
      <point x="569" y="1268"/>
      <point x="569" y="1169" type="curve" smooth="yes"/>
      <point x="569" y="1129"/>
      <point x="583" y="1086"/>
      <point x="608" y="1011" type="curve" smooth="yes"/>
      <point x="637" y="926"/>
      <point x="653" y="872"/>
      <point x="653" y="817" type="curve" smooth="yes"/>
      <point x="653" y="693"/>
      <point x="542" y="630"/>
      <point x="369" y="605" type="curve"/>
      <point x="540" y="582"/>
      <point x="653" y="512"/>
      <point x="653" y="388" type="curve" smooth="yes"/>
      <point x="653" y="333"/>
      <point x="637" y="281"/>
      <point x="608" y="196" type="curve" smooth="yes"/>
      <point x="583" y="127"/>
      <point x="569" y="83"/>
      <point x="569" y="43" type="curve" smooth="yes"/>
      <point x="569" y="-58"/>
      <point x="624" y="-86"/>
      <point x="715" y="-86" type="curve" smooth="yes"/>
      <point x="851" y="-86" type="line"/>
      <point x="851" y="-215" type="line"/>
      <point x="811" y="-224" type="line" smooth="yes"/>
      <point x="711" y="-245"/>
      <point x="648" y="-258"/>
      <point x="564" y="-258" type="curve" smooth="yes"/>
      <point x="335" y="-258"/>
      <point x="240" y="-170"/>
      <point x="240" y="-10" type="curve" smooth="yes"/>
      <point x="240" y="65"/>
      <point x="262" y="115"/>
      <point x="305" y="196" type="curve" smooth="yes"/>
      <point x="346" y="275"/>
      <point x="368" y="324"/>
      <point x="368" y="392" type="curve" smooth="yes"/>
    </contour>
  </outline>
</glyph>
<glyph name="bar" format="1">
  <advance width="761"/>
  <unicode hex="007C"/>
  <note>
	bar
  </note>
  <outline>
    <contour>
      <point x="492" y="1566" type="line"/>
      <point x="492" y="-164" type="line"/>
      <point x="269" y="-164" type="line"/>
      <point x="269" y="1566" type="line"/>
    </contour>
  </outline>
</glyph>
<glyph name="braceright" format="1">
  <advance width="962"/>
  <unicode hex="007D"/>
  <note>
	braceright
  </note>
  <outline>
    <contour>
      <point x="722" y="-170"/>
      <point x="628" y="-258"/>
      <point x="399" y="-258" type="curve" smooth="yes"/>
      <point x="315" y="-258"/>
      <point x="252" y="-245"/>
      <point x="151" y="-224" type="curve" smooth="yes"/>
      <point x="112" y="-215" type="line"/>
      <point x="112" y="-86" type="line"/>
      <point x="247" y="-86" type="line" smooth="yes"/>
      <point x="339" y="-86"/>
      <point x="393" y="-58"/>
      <point x="393" y="43" type="curve" smooth="yes"/>
      <point x="393" y="83"/>
      <point x="380" y="127"/>
      <point x="355" y="196" type="curve" smooth="yes"/>
      <point x="326" y="281"/>
      <point x="310" y="333"/>
      <point x="310" y="388" type="curve" smooth="yes"/>
      <point x="310" y="512"/>
      <point x="423" y="582"/>
      <point x="594" y="605" type="curve"/>
      <point x="421" y="630"/>
      <point x="310" y="693"/>
      <point x="310" y="817" type="curve" smooth="yes"/>
      <point x="310" y="872"/>
      <point x="326" y="926"/>
      <point x="355" y="1011" type="curve" smooth="yes"/>
      <point x="380" y="1086"/>
      <point x="393" y="1129"/>
      <point x="393" y="1169" type="curve" smooth="yes"/>
      <point x="393" y="1268"/>
      <point x="339" y="1297"/>
      <point x="247" y="1297" type="curve" smooth="yes"/>
      <point x="112" y="1297" type="line"/>
      <point x="112" y="1419" type="line"/>
      <point x="151" y="1428" type="line" smooth="yes"/>
      <point x="252" y="1451"/>
      <point x="315" y="1463"/>
      <point x="399" y="1463" type="curve" smooth="yes"/>
      <point x="628" y="1463"/>
      <point x="722" y="1375"/>
      <point x="722" y="1214" type="curve" smooth="yes"/>
      <point x="722" y="1141"/>
      <point x="700" y="1088"/>
      <point x="657" y="1005" type="curve" smooth="yes"/>
      <point x="617" y="924"/>
      <point x="595" y="874"/>
      <point x="595" y="806" type="curve" smooth="yes"/>
      <point x="595" y="747"/>
      <point x="600" y="722"/>
      <point x="663" y="706" type="curve" smooth="yes"/>
      <point x="694" y="697"/>
      <point x="745" y="693"/>
      <point x="815" y="693" type="curve"/>
      <point x="815" y="529" type="line"/>
      <point x="746" y="529"/>
      <point x="696" y="523"/>
      <point x="665" y="512" type="curve" smooth="yes"/>
      <point x="601" y="489"/>
      <point x="595" y="457"/>
      <point x="595" y="392" type="curve" smooth="yes"/>
      <point x="595" y="324"/>
      <point x="617" y="275"/>
      <point x="657" y="196" type="curve" smooth="yes"/>
      <point x="701" y="115"/>
      <point x="722" y="65"/>
      <point x="722" y="-10" type="curve" smooth="yes"/>
    </contour>
  </outline>
</glyph>
<glyph name="asciitilde" format="1">
  <advance width="1265"/>
  <unicode hex="007E"/>
  <note>
	asciitilde
  </note>
  <outline>
    <contour>
      <point x="169" y="517" type="line"/>
      <point x="193" y="577"/>
      <point x="255" y="647"/>
      <point x="336" y="689" type="curve" smooth="yes"/>
      <point x="377" y="710"/>
      <point x="419" y="720"/>
      <point x="462" y="720" type="curve" smooth="yes"/>
      <point x="526" y="720"/>
      <point x="581" y="699"/>
      <point x="623" y="672" type="curve" smooth="yes"/>
      <point x="644" y="658"/>
      <point x="667" y="641"/>
      <point x="693" y="620" type="curve"/>
      <point x="748" y="580"/>
      <point x="776" y="560"/>
      <point x="811" y="560" type="curve" smooth="yes"/>
      <point x="870" y="560"/>
      <point x="911" y="578"/>
      <point x="940" y="606" type="curve" smooth="yes"/>
      <point x="954" y="619"/>
      <point x="969" y="636"/>
      <point x="986" y="657" type="curve"/>
      <point x="1083" y="542" type="line"/>
      <point x="1052" y="471"/>
      <point x="992" y="404"/>
      <point x="913" y="365" type="curve" smooth="yes"/>
      <point x="874" y="345"/>
      <point x="832" y="335"/>
      <point x="789" y="335" type="curve" smooth="yes"/>
      <point x="733" y="335"/>
      <point x="685" y="356"/>
      <point x="649" y="381" type="curve" smooth="yes"/>
      <point x="631" y="393"/>
      <point x="610" y="409"/>
      <point x="586" y="429" type="curve" smooth="yes"/>
      <point x="529" y="476"/>
      <point x="497" y="497"/>
      <point x="452" y="497" type="curve" smooth="yes"/>
      <point x="377" y="497"/>
      <point x="318" y="460"/>
      <point x="266" y="404" type="curve"/>
    </contour>
  </outline>
</glyph>
<glyph name="exclamdown" format="1">
  <advance width="630"/>
  <unicode hex="00A1"/>
  <note>
	exclamdown
  </note>
  <outline>
    <contour>
      <point x="222" y="913"/>
      <point x="165" y="947"/>
      <point x="136" y="999" type="curve" smooth="yes"/>
      <point x="121" y="1025"/>
      <point x="114" y="1052"/>
      <point x="114" y="1081" type="curve" smooth="yes"/>
      <point x="114" y="1193"/>
      <point x="196" y="1258"/>
      <point x="324" y="1258" type="curve" smooth="yes"/>
      <point x="383" y="1258"/>
      <point x="439" y="1228"/>
      <point x="472" y="1178" type="curve" smooth="yes"/>
      <point x="488" y="1153"/>
      <point x="496" y="1124"/>
      <point x="496" y="1092" type="curve" smooth="yes"/>
      <point x="496" y="1023"/>
      <point x="459" y="966"/>
      <point x="397" y="936" type="curve" smooth="yes"/>
      <point x="366" y="921"/>
      <point x="331" y="913"/>
      <point x="294" y="913" type="curve" smooth="yes"/>
    </contour>
    <contour>
      <point x="120" y="-343" type="line"/>
      <point x="202" y="763" type="line"/>
      <point x="427" y="763" type="line"/>
      <point x="518" y="-343" type="line"/>
    </contour>
  </outline>
</glyph>
<glyph name="cent" format="1">
  <advance width="1048"/>
  <unicode hex="00A2"/>
  <note>
	cent
  </note>
  <outline>
    <contour>
      <point x="525" y="1210" type="line"/>
      <point x="700" y="1210" type="line"/>
      <point x="690" y="1024" type="line"/>
      <point x="758" y="1019"/>
      <point x="806" y="1006"/>
      <point x="862" y="990" type="curve" smooth="yes"/>
      <point x="897" y="979"/>
      <point x="923" y="974"/>
      <point x="938" y="973" type="curve"/>
      <point x="923" y="622" type="line"/>
      <point x="709" y="622" type="line"/>
      <point x="659" y="841" type="line" smooth="yes"/>
      <point x="652" y="869"/>
      <point x="625" y="882"/>
      <point x="593" y="882" type="curve" smooth="yes"/>
      <point x="538" y="882"/>
      <point x="500" y="850"/>
      <point x="477" y="751" type="curve" smooth="yes"/>
      <point x="465" y="701"/>
      <point x="459" y="632"/>
      <point x="459" y="544" type="curve" smooth="yes"/>
      <point x="459" y="311"/>
      <point x="527" y="184"/>
      <point x="646" y="184" type="curve" smooth="yes"/>
      <point x="747" y="184"/>
      <point x="816" y="208"/>
      <point x="885" y="247" type="curve"/>
      <point x="941" y="125" type="line"/>
      <point x="913" y="92"/>
      <point x="851" y="49"/>
      <point x="761" y="15" type="curve" smooth="yes"/>
      <point x="716" y="-2"/>
      <point x="666" y="-13"/>
      <point x="613" y="-18" type="curve"/>
      <point x="604" y="-214" type="line"/>
      <point x="429" y="-214" type="line"/>
      <point x="440" y="-9" type="line"/>
      <point x="200" y="38"/>
      <point x="88" y="223"/>
      <point x="87" y="495" type="curve"/>
      <point x="87" y="691"/>
      <point x="164" y="845"/>
      <point x="293" y="934" type="curve" smooth="yes"/>
      <point x="357" y="979"/>
      <point x="431" y="1008"/>
      <point x="516" y="1021" type="curve"/>
    </contour>
  </outline>
</glyph>
<glyph name="currency" format="1">
  <advance width="1361"/>
  <unicode hex="00A4"/>
  <note>
	currency
  </note>
  <outline>
    <contour>
      <point x="342" y="443" type="line"/>
      <point x="297" y="507"/>
      <point x="272" y="584"/>
      <point x="272" y="671" type="curve" smooth="yes"/>
      <point x="272" y="759"/>
      <point x="299" y="843"/>
      <point x="346" y="912" type="curve"/>
      <point x="138" y="1117" type="line"/>
      <point x="258" y="1239" type="line"/>
      <point x="468" y="1029" type="line"/>
      <point x="532" y="1069"/>
      <point x="602" y="1089"/>
      <point x="678" y="1089" type="curve" smooth="yes"/>
      <point x="755" y="1089"/>
      <point x="826" y="1070"/>
      <point x="891" y="1032" type="curve"/>
      <point x="1101" y="1241" type="line"/>
      <point x="1222" y="1119" type="line"/>
      <point x="1016" y="917" type="line"/>
      <point x="1063" y="848"/>
      <point x="1087" y="773"/>
      <point x="1087" y="690" type="curve" smooth="yes"/>
      <point x="1087" y="603"/>
      <point x="1059" y="520"/>
      <point x="1011" y="449" type="curve"/>
      <point x="1219" y="245" type="line"/>
      <point x="1097" y="123" type="line"/>
      <point x="888" y="333" type="line"/>
      <point x="823" y="293"/>
      <point x="753" y="273"/>
      <point x="678" y="273" type="curve" smooth="yes"/>
      <point x="601" y="273"/>
      <point x="530" y="291"/>
      <point x="467" y="327" type="curve"/>
      <point x="260" y="120" type="line"/>
      <point x="138" y="241" type="line"/>
    </contour>
    <contour>
      <point x="837" y="746"/>
      <point x="804" y="801"/>
      <point x="754" y="829" type="curve" smooth="yes"/>
      <point x="729" y="843"/>
      <point x="702" y="850"/>
      <point x="675" y="850" type="curve" smooth="yes"/>
      <point x="611" y="850"/>
      <point x="564" y="816"/>
      <point x="540" y="763" type="curve" smooth="yes"/>
      <point x="527" y="736"/>
      <point x="521" y="708"/>
      <point x="521" y="677" type="curve" smooth="yes"/>
      <point x="521" y="617"/>
      <point x="553" y="563"/>
      <point x="602" y="533" type="curve" smooth="yes"/>
      <point x="627" y="518"/>
      <point x="652" y="510"/>
      <point x="679" y="510" type="curve" smooth="yes"/>
      <point x="779" y="510"/>
      <point x="837" y="581"/>
      <point x="837" y="677" type="curve" smooth="yes"/>
    </contour>
  </outline>
</glyph>
<glyph name="yen" format="1">
  <advance width="1516"/>
  <unicode hex="00A5"/>
  <note>
	yen
  </note>
  <outline>
    <contour>
      <point x="514" y="704" type="line"/>
      <point x="231" y="1174" type="line"/>
      <point x="107" y="1200" type="line"/>
      <point x="107" y="1339" type="line"/>
      <point x="770" y="1339" type="line"/>
      <point x="770" y="1200" type="line"/>
      <point x="645" y="1176" type="line"/>
      <point x="819" y="810" type="line"/>
      <point x="858" y="710" type="line"/>
      <point x="897" y="810" type="line"/>
      <point x="1074" y="1176" type="line"/>
      <point x="927" y="1200" type="line"/>
      <point x="927" y="1339" type="line"/>
      <point x="1423" y="1339" type="line"/>
      <point x="1423" y="1200" type="line"/>
      <point x="1287" y="1174" type="line"/>
      <point x="1037" y="704" type="line"/>
      <point x="1356" y="704" type="line"/>
      <point x="1356" y="573" type="line"/>
      <point x="973" y="573" type="line"/>
      <point x="973" y="416" type="line"/>
      <point x="1356" y="416" type="line"/>
      <point x="1356" y="284" type="line"/>
      <point x="973" y="284" type="line"/>
      <point x="973" y="151" type="line"/>
      <point x="1161" y="130" type="line"/>
      <point x="1161" y="0" type="line"/>
      <point x="429" y="0" type="line"/>
      <point x="429" y="130" type="line"/>
      <point x="596" y="151" type="line"/>
      <point x="596" y="284" type="line"/>
      <point x="221" y="284" type="line"/>
      <point x="221" y="416" type="line"/>
      <point x="596" y="416" type="line"/>
      <point x="596" y="573" type="line"/>
      <point x="221" y="573" type="line"/>
      <point x="221" y="704" type="line"/>
    </contour>
  </outline>
</glyph>
<glyph name="brokenbar" format="1">
  <advance width="761"/>
  <unicode hex="00A6"/>
  <note>
	brokenbar
  </note>
  <outline>
    <contour>
      <point x="492" y="1566" type="line"/>
      <point x="492" y="836" type="line"/>
      <point x="269" y="836" type="line"/>
      <point x="269" y="1566" type="line"/>
    </contour>
    <contour>
      <point x="492" y="564" type="line"/>
      <point x="492" y="-164" type="line"/>
      <point x="269" y="-164" type="line"/>
      <point x="269" y="564" type="line"/>
    </contour>
  </outline>
</glyph>
<glyph name="section" format="1">
  <advance width="1251"/>
  <unicode hex="00A7"/>
  <note>
	section
  </note>
  <outline>
    <contour>
      <point x="392" y="192" type="line"/>
      <point x="434" y="27" type="line"/>
      <point x="446" y="6"/>
      <point x="485" y="-17"/>
      <point x="540" y="-32" type="curve" smooth="yes"/>
      <point x="567" y="-39"/>
      <point x="595" y="-43"/>
      <point x="624" y="-43" type="curve" smooth="yes"/>
      <point x="725" y="-43"/>
      <point x="778" y="-5"/>
      <point x="778" y="63" type="curve" smooth="yes"/>
      <point x="778" y="112"/>
      <point x="736" y="150"/>
      <point x="677" y="181" type="curve" smooth="yes"/>
      <point x="647" y="196"/>
      <point x="603" y="216"/>
      <point x="546" y="241" type="curve" smooth="yes"/>
      <point x="514" y="255" type="line" smooth="yes"/>
      <point x="343" y="331"/>
      <point x="240" y="418"/>
      <point x="189" y="527" type="curve" smooth="yes"/>
      <point x="164" y="582"/>
      <point x="151" y="644"/>
      <point x="151" y="714" type="curve" smooth="yes"/>
      <point x="151" y="809"/>
      <point x="199" y="892"/>
      <point x="295" y="963" type="curve"/>
      <point x="230" y="1027"/>
      <point x="197" y="1101"/>
      <point x="197" y="1186" type="curve" smooth="yes"/>
      <point x="197" y="1302"/>
      <point x="273" y="1395"/>
      <point x="408" y="1446" type="curve" smooth="yes"/>
      <point x="475" y="1471"/>
      <point x="553" y="1484"/>
      <point x="642" y="1484" type="curve" smooth="yes"/>
      <point x="750" y="1484"/>
      <point x="845" y="1464"/>
      <point x="958" y="1433" type="curve" smooth="yes"/>
      <point x="985" y="1425"/>
      <point x="1006" y="1420"/>
      <point x="1023" y="1417" type="curve"/>
      <point x="1011" y="1148" type="line"/>
      <point x="830" y="1148" type="line"/>
      <point x="775" y="1285" type="line"/>
      <point x="768" y="1297"/>
      <point x="738" y="1318"/>
      <point x="694" y="1331" type="curve" smooth="yes"/>
      <point x="672" y="1337"/>
      <point x="648" y="1340"/>
      <point x="623" y="1340" type="curve" smooth="yes"/>
      <point x="536" y="1340"/>
      <point x="488" y="1303"/>
      <point x="488" y="1240" type="curve" smooth="yes"/>
      <point x="488" y="1187"/>
      <point x="522" y="1152"/>
      <point x="571" y="1125" type="curve" smooth="yes"/>
      <point x="596" y="1112"/>
      <point x="635" y="1093"/>
      <point x="688" y="1068" type="curve" smooth="yes"/>
      <point x="745" y="1041" type="line" smooth="yes"/>
      <point x="888" y="977"/>
      <point x="982" y="926"/>
      <point x="1057" y="830" type="curve" smooth="yes"/>
      <point x="1094" y="781"/>
      <point x="1113" y="724"/>
      <point x="1113" y="658" type="curve" smooth="yes"/>
      <point x="1113" y="514"/>
      <point x="1062" y="419"/>
      <point x="978" y="348" type="curve"/>
      <point x="1037" y="287"/>
      <point x="1067" y="217"/>
      <point x="1067" y="136" type="curve" smooth="yes"/>
      <point x="1067" y="28"/>
      <point x="1006" y="-73"/>
      <point x="871" y="-133" type="curve" smooth="yes"/>
      <point x="804" y="-164"/>
      <point x="719" y="-179"/>
      <point x="618" y="-179" type="curve" smooth="yes"/>
      <point x="489" y="-179"/>
      <point x="385" y="-153"/>
      <point x="254" y="-116" type="curve" smooth="yes"/>
      <point x="211" y="-104"/>
      <point x="184" y="-97"/>
      <point x="171" y="-96" type="curve"/>
      <point x="187" y="192" type="line"/>
    </contour>
    <contour>
      <point x="896" y="452"/>
      <point x="905" y="481"/>
      <point x="905" y="512" type="curve" smooth="yes"/>
      <point x="905" y="581"/>
      <point x="858" y="632"/>
      <point x="786" y="676" type="curve" smooth="yes"/>
      <point x="750" y="697"/>
      <point x="696" y="727"/>
      <point x="625" y="764" type="curve"/>
      <point x="618" y="767"/>
      <point x="612" y="771"/>
      <point x="607" y="774" type="curve"/>
      <point x="601" y="777"/>
      <point x="596" y="779"/>
      <point x="591" y="781" type="curve"/>
      <point x="540" y="807" type="line" smooth="yes"/>
      <point x="473" y="840"/>
      <point x="419" y="869"/>
      <point x="380" y="894" type="curve"/>
      <point x="359" y="868"/>
      <point x="348" y="835"/>
      <point x="348" y="794" type="curve" smooth="yes"/>
      <point x="348" y="730"/>
      <point x="408" y="672"/>
      <point x="503" y="617" type="curve" smooth="yes"/>
      <point x="550" y="590"/>
      <point x="610" y="559"/>
      <point x="683" y="524" type="curve" smooth="yes"/>
      <point x="711" y="511" type="line" smooth="yes"/>
      <point x="786" y="478"/>
      <point x="831" y="455"/>
      <point x="878" y="426" type="curve"/>
    </contour>
  </outline>
</glyph>
<glyph name="dieresis" format="1">
  <advance width="898"/>
  <unicode hex="00A8"/>
  <note>
	dieresis
  </note>
  <outline>
    <contour>
      <point x="50" y="1431"/>
      <point x="108" y="1507"/>
      <point x="223" y="1507" type="curve" smooth="yes"/>
      <point x="224" y="1507" type="line" smooth="yes"/>
      <point x="331" y="1507"/>
      <point x="385" y="1442"/>
      <point x="385" y="1351" type="curve" smooth="yes"/>
      <point x="385" y="1239"/>
      <point x="322" y="1165"/>
      <point x="194" y="1165" type="curve" smooth="yes"/>
      <point x="194" y="1165" type="line" smooth="yes"/>
      <point x="138" y="1165"/>
      <point x="93" y="1195"/>
      <point x="69" y="1244" type="curve"/>
      <point x="56" y="1268"/>
      <point x="50" y="1294"/>
      <point x="50" y="1322" type="curve" smooth="yes"/>
    </contour>
    <contour>
      <point x="516" y="1431"/>
      <point x="575" y="1507"/>
      <point x="688" y="1507" type="curve" smooth="yes"/>
      <point x="689" y="1507" type="line" smooth="yes"/>
      <point x="797" y="1507"/>
      <point x="849" y="1442"/>
      <point x="849" y="1351" type="curve" smooth="yes"/>
      <point x="849" y="1239"/>
      <point x="786" y="1165"/>
      <point x="658" y="1165" type="curve" smooth="yes"/>
      <point x="657" y="1165" type="line" smooth="yes"/>
      <point x="605" y="1165"/>
      <point x="559" y="1200"/>
      <point x="535" y="1249" type="curve"/>
      <point x="522" y="1273"/>
      <point x="516" y="1297"/>
      <point x="516" y="1322" type="curve" smooth="yes"/>
    </contour>
  </outline>
</glyph>
<glyph name="copyright" format="1">
  <advance width="1874"/>
  <unicode hex="00A9"/>
  <note>
	copyright
  </note>
  <outline>
    <contour>
      <point x="1217" y="1641"/>
      <point x="1463" y="1498"/>
      <point x="1598" y="1266" type="curve" smooth="yes"/>
      <point x="1665" y="1149"/>
      <point x="1699" y="1021"/>
      <point x="1699" y="881" type="curve" smooth="yes"/>
      <point x="1699" y="601"/>
      <point x="1555" y="355"/>
      <point x="1323" y="221" type="curve" smooth="yes"/>
      <point x="1206" y="154"/>
      <point x="1079" y="120"/>
      <point x="940" y="120" type="curve" smooth="yes"/>
      <point x="661" y="120"/>
      <point x="414" y="264"/>
      <point x="277" y="497" type="curve" smooth="yes"/>
      <point x="208" y="613"/>
      <point x="174" y="741"/>
      <point x="174" y="881" type="curve" smooth="yes"/>
      <point x="174" y="1160"/>
      <point x="322" y="1405"/>
      <point x="556" y="1540" type="curve" smooth="yes"/>
      <point x="673" y="1607"/>
      <point x="801" y="1641"/>
      <point x="940" y="1641" type="curve" smooth="yes"/>
    </contour>
    <contour>
      <point x="1171" y="236"/>
      <point x="1371" y="360"/>
      <point x="1480" y="558" type="curve" smooth="yes"/>
      <point x="1535" y="657"/>
      <point x="1562" y="764"/>
      <point x="1562" y="881" type="curve" smooth="yes"/>
      <point x="1562" y="1118"/>
      <point x="1446" y="1326"/>
      <point x="1256" y="1440" type="curve" smooth="yes"/>
      <point x="1161" y="1497"/>
      <point x="1055" y="1525"/>
      <point x="940" y="1525" type="curve" smooth="yes"/>
      <point x="705" y="1525"/>
      <point x="505" y="1401"/>
      <point x="395" y="1204" type="curve" smooth="yes"/>
      <point x="340" y="1105"/>
      <point x="312" y="998"/>
      <point x="312" y="881" type="curve" smooth="yes"/>
      <point x="312" y="644"/>
      <point x="431" y="436"/>
      <point x="623" y="322" type="curve" smooth="yes"/>
      <point x="718" y="265"/>
      <point x="824" y="236"/>
      <point x="940" y="236" type="curve" smooth="yes"/>
    </contour>
    <contour>
      <point x="556" y="1047"/>
      <point x="636" y="1187"/>
      <point x="772" y="1264" type="curve" smooth="yes"/>
      <point x="840" y="1302"/>
      <point x="917" y="1321"/>
      <point x="1003" y="1321" type="curve" smooth="yes"/>
      <point x="1088" y="1321"/>
      <point x="1198" y="1299"/>
      <point x="1231" y="1267" type="curve"/>
      <point x="1226" y="1028" type="line"/>
      <point x="1097" y="1028" type="line"/>
      <point x="1056" y="1149" type="line"/>
      <point x="1033" y="1165"/>
      <point x="1011" y="1175"/>
      <point x="950" y="1175" type="curve" smooth="yes"/>
      <point x="833" y="1175"/>
      <point x="769" y="1069"/>
      <point x="769" y="916" type="curve" smooth="yes"/>
      <point x="769" y="807"/>
      <point x="812" y="720"/>
      <point x="885" y="674" type="curve" smooth="yes"/>
      <point x="921" y="651"/>
      <point x="962" y="639"/>
      <point x="1008" y="639" type="curve" smooth="yes"/>
      <point x="1075" y="639"/>
      <point x="1144" y="664"/>
      <point x="1184" y="701" type="curve"/>
      <point x="1246" y="590" type="line"/>
      <point x="1211" y="545"/>
      <point x="1147" y="501"/>
      <point x="1069" y="474" type="curve" smooth="yes"/>
      <point x="1030" y="460"/>
      <point x="990" y="453"/>
      <point x="950" y="453" type="curve" smooth="yes"/>
      <point x="778" y="453"/>
      <point x="659" y="530"/>
      <point x="600" y="659" type="curve" smooth="yes"/>
      <point x="571" y="723"/>
      <point x="556" y="797"/>
      <point x="556" y="882" type="curve" smooth="yes"/>
    </contour>
  </outline>
</glyph>
<glyph name="guillemotleft" format="1">
  <advance width="1738"/>
  <unicode hex="00AB"/>
  <note>
	guillemotleft
  </note>
  <outline>
    <contour>
      <point x="1483" y="1021" type="line"/>
      <point x="1578" y="871" type="line"/>
      <point x="1246" y="536" type="line"/>
      <point x="1578" y="206" type="line"/>
      <point x="1483" y="61" type="line"/>
      <point x="872" y="465" type="line"/>
      <point x="872" y="610" type="line"/>
    </contour>
    <contour>
      <point x="787" y="1021" type="line"/>
      <point x="882" y="871" type="line"/>
      <point x="550" y="536" type="line"/>
      <point x="882" y="206" type="line"/>
      <point x="787" y="61" type="line"/>
      <point x="176" y="465" type="line"/>
      <point x="176" y="610" type="line"/>
    </contour>
  </outline>
</glyph>
<glyph name="logicalnot" format="1">
  <advance width="1240"/>
  <unicode hex="00AC"/>
  <note>
	logicalnot
  </note>
  <outline>
    <contour>
      <point x="1056" y="646" type="line"/>
      <point x="1056" y="141" type="line"/>
      <point x="831" y="141" type="line"/>
      <point x="831" y="452" type="line"/>
      <point x="185" y="452" type="line"/>
      <point x="185" y="646" type="line"/>
    </contour>
  </outline>
</glyph>
<glyph name="registered" format="1">
  <advance width="1874"/>
  <unicode hex="00AE"/>
  <note>
	registered
  </note>
  <outline>
    <contour>
      <point x="1217" y="1641"/>
      <point x="1463" y="1498"/>
      <point x="1598" y="1266" type="curve" smooth="yes"/>
      <point x="1665" y="1149"/>
      <point x="1699" y="1021"/>
      <point x="1699" y="881" type="curve" smooth="yes"/>
      <point x="1699" y="601"/>
      <point x="1555" y="355"/>
      <point x="1323" y="221" type="curve" smooth="yes"/>
      <point x="1206" y="154"/>
      <point x="1079" y="120"/>
      <point x="940" y="120" type="curve" smooth="yes"/>
      <point x="661" y="120"/>
      <point x="414" y="264"/>
      <point x="277" y="497" type="curve" smooth="yes"/>
      <point x="208" y="613"/>
      <point x="174" y="741"/>
      <point x="174" y="881" type="curve" smooth="yes"/>
      <point x="174" y="1160"/>
      <point x="322" y="1405"/>
      <point x="556" y="1540" type="curve" smooth="yes"/>
      <point x="673" y="1607"/>
      <point x="801" y="1641"/>
      <point x="940" y="1641" type="curve" smooth="yes"/>
    </contour>
    <contour>
      <point x="1171" y="236"/>
      <point x="1371" y="360"/>
      <point x="1480" y="558" type="curve" smooth="yes"/>
      <point x="1535" y="657"/>
      <point x="1562" y="764"/>
      <point x="1562" y="881" type="curve" smooth="yes"/>
      <point x="1562" y="1118"/>
      <point x="1446" y="1326"/>
      <point x="1256" y="1440" type="curve" smooth="yes"/>
      <point x="1161" y="1497"/>
      <point x="1055" y="1525"/>
      <point x="940" y="1525" type="curve" smooth="yes"/>
      <point x="705" y="1525"/>
      <point x="505" y="1401"/>
      <point x="395" y="1204" type="curve" smooth="yes"/>
      <point x="340" y="1105"/>
      <point x="312" y="998"/>
      <point x="312" y="881" type="curve" smooth="yes"/>
      <point x="312" y="644"/>
      <point x="431" y="436"/>
      <point x="623" y="322" type="curve" smooth="yes"/>
      <point x="718" y="265"/>
      <point x="824" y="236"/>
      <point x="940" y="236" type="curve" smooth="yes"/>
    </contour>
    <contour>
      <point x="643" y="576" type="line"/>
      <point x="643" y="1182" type="line"/>
      <point x="575" y="1203" type="line"/>
      <point x="575" y="1306" type="line"/>
      <point x="753" y="1306" type="line"/>
      <point x="784" y="1305" type="line" smooth="yes"/>
      <point x="798" y="1305"/>
      <point x="820" y="1306"/>
      <point x="849" y="1307" type="curve" smooth="yes"/>
      <point x="888" y="1309"/>
      <point x="925" y="1310"/>
      <point x="960" y="1310" type="curve" smooth="yes"/>
      <point x="1195" y="1310"/>
      <point x="1295" y="1220"/>
      <point x="1295" y="1075" type="curve" smooth="yes"/>
      <point x="1295" y="958"/>
      <point x="1247" y="860"/>
      <point x="1118" y="836" type="curve"/>
      <point x="1187" y="812"/>
      <point x="1229" y="767"/>
      <point x="1250" y="724" type="curve" smooth="yes"/>
      <point x="1260" y="703"/>
      <point x="1270" y="677"/>
      <point x="1280" y="646" type="curve" smooth="yes"/>
      <point x="1300" y="585"/>
      <point x="1313" y="560"/>
      <point x="1348" y="559" type="curve"/>
      <point x="1348" y="459" type="line"/>
      <point x="1141" y="459" type="line" smooth="yes"/>
      <point x="1120" y="459"/>
      <point x="1104" y="471"/>
      <point x="1093" y="494" type="curve" smooth="yes"/>
      <point x="1081" y="517"/>
      <point x="1069" y="551"/>
      <point x="1058" y="598" type="curve" smooth="yes"/>
      <point x="1039" y="669"/>
      <point x="1028" y="708"/>
      <point x="1001" y="745" type="curve" smooth="yes"/>
      <point x="987" y="763"/>
      <point x="970" y="775"/>
      <point x="950" y="781" type="curve"/>
      <point x="869" y="781" type="line"/>
      <point x="869" y="571" type="line"/>
      <point x="946" y="552" type="line"/>
      <point x="946" y="459" type="line"/>
      <point x="575" y="459" type="line"/>
      <point x="575" y="552" type="line"/>
    </contour>
    <contour>
      <point x="993" y="896"/>
      <point x="1025" y="926"/>
      <point x="1041" y="973" type="curve" smooth="yes"/>
      <point x="1049" y="996"/>
      <point x="1053" y="1020"/>
      <point x="1053" y="1045" type="curve" smooth="yes"/>
      <point x="1053" y="1154"/>
      <point x="1022" y="1197"/>
      <point x="938" y="1197" type="curve" smooth="yes"/>
      <point x="911" y="1197"/>
      <point x="888" y="1194"/>
      <point x="869" y="1187" type="curve"/>
      <point x="869" y="904" type="line"/>
      <point x="894" y="896"/>
      <point x="917" y="896"/>
      <point x="956" y="896" type="curve" smooth="yes"/>
    </contour>
  </outline>
</glyph>
<glyph name="macron" format="1">
  <advance width="599"/>
  <unicode hex="00AF"/>
  <note>
	macron
  </note>
  <outline>
    <contour>
      <point x="595" y="1438" type="line"/>
      <point x="595" y="1244" type="line"/>
      <point x="4" y="1244" type="line"/>
      <point x="4" y="1438" type="line"/>
    </contour>
  </outline>
</glyph>
<glyph name="degree" format="1">
  <advance width="948"/>
  <unicode hex="00B0"/>
  <note>
	degree
  </note>
  <outline>
    <contour>
      <point x="130" y="1265"/>
      <point x="197" y="1372"/>
      <point x="302" y="1432" type="curve" smooth="yes"/>
      <point x="354" y="1461"/>
      <point x="411" y="1476"/>
      <point x="473" y="1476" type="curve" smooth="yes"/>
      <point x="604" y="1476"/>
      <point x="715" y="1410"/>
      <point x="774" y="1307" type="curve" smooth="yes"/>
      <point x="803" y="1255"/>
      <point x="818" y="1199"/>
      <point x="818" y="1138" type="curve" smooth="yes"/>
      <point x="818" y="1011"/>
      <point x="752" y="902"/>
      <point x="647" y="843" type="curve" smooth="yes"/>
      <point x="594" y="814"/>
      <point x="536" y="799"/>
      <point x="473" y="799" type="curve" smooth="yes"/>
      <point x="350" y="799"/>
      <point x="240" y="865"/>
      <point x="177" y="969" type="curve" smooth="yes"/>
      <point x="146" y="1021"/>
      <point x="130" y="1077"/>
      <point x="130" y="1138" type="curve" smooth="yes"/>
    </contour>
    <contour>
      <point x="621" y="1195"/>
      <point x="594" y="1248"/>
      <point x="548" y="1279" type="curve" smooth="yes"/>
      <point x="525" y="1294"/>
      <point x="500" y="1302"/>
      <point x="473" y="1302" type="curve" smooth="yes"/>
      <point x="416" y="1302"/>
      <point x="369" y="1271"/>
      <point x="345" y="1221" type="curve" smooth="yes"/>
      <point x="332" y="1196"/>
      <point x="326" y="1168"/>
      <point x="326" y="1138" type="curve" smooth="yes"/>
      <point x="326" y="1082"/>
      <point x="354" y="1028"/>
      <point x="401" y="997" type="curve" smooth="yes"/>
      <point x="424" y="982"/>
      <point x="449" y="974"/>
      <point x="475" y="974" type="curve" smooth="yes"/>
      <point x="532" y="974"/>
      <point x="579" y="1004"/>
      <point x="603" y="1054" type="curve" smooth="yes"/>
      <point x="615" y="1079"/>
      <point x="621" y="1107"/>
      <point x="621" y="1138" type="curve" smooth="yes"/>
    </contour>
  </outline>
</glyph>
<glyph name="plusminus" format="1">
  <advance width="1190"/>
  <unicode hex="00B1"/>
  <note>
	plusminus
  </note>
  <outline>
    <contour>
      <point x="325" y="774" type="line"/>
      <point x="495" y="764" type="line"/>
      <point x="488" y="895" type="line"/>
      <point x="488" y="1096" type="line"/>
      <point x="702" y="1096" type="line"/>
      <point x="702" y="895" type="line"/>
      <point x="694" y="764" type="line"/>
      <point x="839" y="774" type="line"/>
      <point x="1015" y="774" type="line"/>
      <point x="1015" y="569" type="line"/>
      <point x="839" y="569" type="line"/>
      <point x="694" y="576" type="line"/>
      <point x="702" y="448" type="line"/>
      <point x="702" y="263" type="line"/>
      <point x="488" y="263" type="line"/>
      <point x="488" y="448" type="line"/>
      <point x="495" y="576" type="line"/>
      <point x="325" y="569" type="line"/>
      <point x="176" y="569" type="line"/>
      <point x="176" y="774" type="line"/>
    </contour>
    <contour>
      <point x="1008" y="201" type="line"/>
      <point x="1008" y="-1" type="line"/>
      <point x="180" y="-1" type="line"/>
      <point x="180" y="201" type="line"/>
    </contour>
  </outline>
</glyph>
<glyph name="acute" format="1">
  <advance width="599"/>
  <unicode hex="00B4"/>
  <note>
	acute
  </note>
  <outline>
    <contour>
      <point x="443" y="1632" type="line"/>
      <point x="444" y="1632" type="line"/>
      <point x="634" y="1457" type="line"/>
      <point x="590" y="1381"/>
      <point x="485" y="1283"/>
      <point x="378" y="1209" type="curve" smooth="yes"/>
      <point x="324" y="1172"/>
      <point x="278" y="1146"/>
      <point x="241" y="1132" type="curve"/>
      <point x="239" y="1132" type="line"/>
      <point x="107" y="1235" type="line"/>
    </contour>
  </outline>
</glyph>
<glyph name="paragraph" format="1">
  <advance width="1547"/>
  <unicode hex="00B6"/>
  <note>
	paragraph
  </note>
  <outline>
    <contour>
      <point x="499" y="152" type="line"/>
      <point x="499" y="686" type="line"/>
      <point x="246" y="686"/>
      <point x="119" y="837"/>
      <point x="119" y="1100" type="curve" smooth="yes"/>
      <point x="119" y="1255"/>
      <point x="197" y="1382"/>
      <point x="344" y="1453" type="curve" smooth="yes"/>
      <point x="417" y="1488"/>
      <point x="505" y="1506"/>
      <point x="606" y="1506" type="curve" smooth="yes"/>
      <point x="707" y="1506"/>
      <point x="799" y="1503"/>
      <point x="884" y="1498" type="curve" smooth="yes"/>
      <point x="1001" y="1490"/>
      <point x="1072" y="1488"/>
      <point x="1247" y="1488" type="curve" smooth="yes"/>
      <point x="1397" y="1488" type="line"/>
      <point x="1397" y="1352" type="line"/>
      <point x="1260" y="1331" type="line"/>
      <point x="1260" y="152" type="line"/>
      <point x="1376" y="131" type="line"/>
      <point x="1376" y="0" type="line"/>
      <point x="986" y="0" type="line"/>
      <point x="986" y="1337" type="line"/>
      <point x="925" y="1345"/>
      <point x="870" y="1349"/>
      <point x="820" y="1349" type="curve" smooth="yes"/>
      <point x="795" y="1349"/>
      <point x="780" y="1348"/>
      <point x="774" y="1346" type="curve"/>
      <point x="774" y="0" type="line"/>
      <point x="322" y="0" type="line"/>
      <point x="322" y="131" type="line"/>
    </contour>
  </outline>
</glyph>
<glyph name="cedilla" format="1">
  <advance width="541"/>
  <unicode hex="00B8"/>
  <note>
	cedilla
  </note>
  <outline>
    <contour>
      <point x="340" y="8" type="line"/>
      <point x="375" y="-23"/>
      <point x="420" y="-77"/>
      <point x="450" y="-149" type="curve" smooth="yes"/>
      <point x="480" y="-222"/>
      <point x="476" y="-326"/>
      <point x="431" y="-389" type="curve" smooth="yes"/>
      <point x="386" y="-452"/>
      <point x="306" y="-475"/>
      <point x="181" y="-475" type="curve" smooth="yes"/>
      <point x="180" y="-475" type="line" smooth="yes"/>
      <point x="140" y="-475"/>
      <point x="85" y="-462"/>
      <point x="54" y="-449" type="curve"/>
      <point x="55" y="-260" type="line"/>
      <point x="76" y="-268"/>
      <point x="111" y="-272"/>
      <point x="127" y="-272" type="curve" smooth="yes"/>
      <point x="128" y="-272" type="line" smooth="yes"/>
      <point x="187" y="-272"/>
      <point x="217" y="-265"/>
      <point x="234" y="-229" type="curve"/>
      <point x="243" y="-212"/>
      <point x="247" y="-185"/>
      <point x="247" y="-150" type="curve" smooth="yes"/>
      <point x="247" y="-95"/>
      <point x="215" y="-27"/>
      <point x="190" y="8" type="curve"/>
      <point x="301" y="12" type="line"/>
    </contour>
  </outline>
</glyph>
<glyph name="ordmasculine" format="1">
  <advance width="984"/>
  <unicode hex="00BA"/>
  <note>
	ordmasculine
  </note>
  <outline>
    <contour>
      <point x="51" y="1204"/>
      <point x="145" y="1332"/>
      <point x="282" y="1393" type="curve" smooth="yes"/>
      <point x="351" y="1423"/>
      <point x="424" y="1438"/>
      <point x="503" y="1438" type="curve" smooth="yes"/>
      <point x="782" y="1438"/>
      <point x="933" y="1290"/>
      <point x="933" y="1023" type="curve" smooth="yes"/>
      <point x="933" y="827"/>
      <point x="841" y="696"/>
      <point x="706" y="636" type="curve" smooth="yes"/>
      <point x="639" y="605"/>
      <point x="567" y="590"/>
      <point x="490" y="590" type="curve" smooth="yes"/>
      <point x="317" y="590"/>
      <point x="181" y="653"/>
      <point x="107" y="781" type="curve" smooth="yes"/>
      <point x="70" y="844"/>
      <point x="51" y="923"/>
      <point x="51" y="1016" type="curve" smooth="yes"/>
    </contour>
    <contour>
      <point x="608" y="1108"/>
      <point x="599" y="1189"/>
      <point x="582" y="1243" type="curve" smooth="yes"/>
      <point x="565" y="1297"/>
      <point x="536" y="1324"/>
      <point x="495" y="1324" type="curve" smooth="yes"/>
      <point x="436" y="1324"/>
      <point x="404" y="1287"/>
      <point x="389" y="1203" type="curve" smooth="yes"/>
      <point x="381" y="1160"/>
      <point x="377" y="1102"/>
      <point x="377" y="1029" type="curve" smooth="yes"/>
      <point x="377" y="925"/>
      <point x="387" y="846"/>
      <point x="407" y="791" type="curve" smooth="yes"/>
      <point x="426" y="736"/>
      <point x="454" y="708"/>
      <point x="489" y="708" type="curve" smooth="yes"/>
      <point x="556" y="708"/>
      <point x="585" y="727"/>
      <point x="598" y="808" type="curve" smooth="yes"/>
      <point x="605" y="849"/>
      <point x="608" y="913"/>
      <point x="608" y="1000" type="curve" smooth="yes"/>
    </contour>
  </outline>
</glyph>
<glyph name="guillemotright" format="1">
  <advance width="1734"/>
  <unicode hex="00BB"/>
  <note>
	guillemotright
  </note>
  <outline>
    <contour>
      <point x="870" y="465" type="line"/>
      <point x="260" y="61" type="line"/>
      <point x="165" y="206" type="line"/>
      <point x="496" y="536" type="line"/>
      <point x="165" y="871" type="line"/>
      <point x="260" y="1021" type="line"/>
      <point x="870" y="610" type="line"/>
    </contour>
    <contour>
      <point x="1560" y="465" type="line"/>
      <point x="950" y="61" type="line"/>
      <point x="854" y="206" type="line"/>
      <point x="1186" y="536" type="line"/>
      <point x="854" y="871" type="line"/>
      <point x="950" y="1021" type="line"/>
      <point x="1560" y="610" type="line"/>
    </contour>
  </outline>
</glyph>
<glyph name="onequarter" format="1">
  <advance width="2202"/>
  <unicode hex="00BC"/>
  <note>
	onequarter
  </note>
  <outline>
    <contour>
      <point x="334" y="635" type="line"/>
      <point x="334" y="1192" type="line"/>
      <point x="285" y="1175"/>
      <point x="236" y="1166"/>
      <point x="160" y="1154" type="curve" smooth="yes"/>
      <point x="153" y="1153"/>
      <point x="143" y="1152"/>
      <point x="130" y="1149" type="curve"/>
      <point x="83" y="1294" type="line"/>
      <point x="231" y="1334"/>
      <point x="346" y="1387"/>
      <point x="429" y="1454" type="curve"/>
      <point x="433" y="1454" type="line"/>
      <point x="605" y="1426" type="line"/>
      <point x="605" y="636" type="line"/>
      <point x="819" y="615" type="line"/>
      <point x="819" y="479" type="line"/>
      <point x="103" y="479" type="line"/>
      <point x="103" y="615" type="line"/>
    </contour>
    <contour>
      <point x="1272" y="1451" type="line"/>
      <point x="1469" y="1443" type="line"/>
      <point x="871" y="-184" type="line"/>
      <point x="675" y="-177" type="line"/>
    </contour>
    <contour>
      <point x="1276" y="293" type="line"/>
      <point x="1298" y="332"/>
      <point x="1332" y="398"/>
      <point x="1377" y="490" type="curve" smooth="yes"/>
      <point x="1422" y="581"/>
      <point x="1451" y="641"/>
      <point x="1465" y="669" type="curve" smooth="yes"/>
      <point x="1545" y="832"/>
      <point x="1598" y="940"/>
      <point x="1624" y="991" type="curve"/>
      <point x="1870" y="991" type="line"/>
      <point x="1918" y="936" type="line"/>
      <point x="1624" y="471" type="line"/>
      <point x="1510" y="324" type="line"/>
      <point x="1791" y="338" type="line"/>
      <point x="1823" y="556" type="line"/>
      <point x="2019" y="567" type="line"/>
      <point x="2019" y="349" type="line"/>
      <point x="2168" y="357" type="line"/>
      <point x="2167" y="185" type="line"/>
      <point x="2019" y="185" type="line"/>
      <point x="2019" y="2" type="line"/>
      <point x="1787" y="2" type="line"/>
      <point x="1786" y="185" type="line"/>
      <point x="1360" y="185" type="line"/>
    </contour>
  </outline>
</glyph>
<glyph name="onehalf" format="1">
  <advance width="2200"/>
  <unicode hex="00BD"/>
  <note>
	onehalf
  </note>
  <outline>
    <contour>
      <point x="334" y="635" type="line"/>
      <point x="334" y="1192" type="line"/>
      <point x="285" y="1175"/>
      <point x="236" y="1166"/>
      <point x="160" y="1154" type="curve" smooth="yes"/>
      <point x="153" y="1153"/>
      <point x="143" y="1152"/>
      <point x="130" y="1149" type="curve"/>
      <point x="83" y="1294" type="line"/>
      <point x="231" y="1334"/>
      <point x="346" y="1387"/>
      <point x="429" y="1454" type="curve"/>
      <point x="433" y="1454" type="line"/>
      <point x="605" y="1426" type="line"/>
      <point x="605" y="636" type="line"/>
      <point x="819" y="615" type="line"/>
      <point x="819" y="479" type="line"/>
      <point x="103" y="479" type="line"/>
      <point x="103" y="615" type="line"/>
    </contour>
    <contour>
      <point x="1272" y="1451" type="line"/>
      <point x="1469" y="1443" type="line"/>
      <point x="871" y="-184" type="line"/>
      <point x="675" y="-177" type="line"/>
    </contour>
    <contour>
      <point x="1316" y="119" type="line"/>
      <point x="1453" y="195"/>
      <point x="1605" y="326"/>
      <point x="1698" y="467" type="curve" smooth="yes"/>
      <point x="1744" y="538"/>
      <point x="1767" y="604"/>
      <point x="1767" y="667" type="curve" smooth="yes"/>
      <point x="1767" y="748"/>
      <point x="1711" y="800"/>
      <point x="1634" y="800" type="curve" smooth="yes"/>
      <point x="1565" y="800"/>
      <point x="1502" y="774"/>
      <point x="1475" y="756" type="curve" smooth="yes"/>
      <point x="1461" y="747"/>
      <point x="1438" y="731"/>
      <point x="1407" y="708" type="curve"/>
      <point x="1324" y="815" type="line"/>
      <point x="1412" y="899"/>
      <point x="1528" y="975"/>
      <point x="1716" y="975" type="curve" smooth="yes"/>
      <point x="1851" y="975"/>
      <point x="1953" y="929"/>
      <point x="2008" y="842" type="curve" smooth="yes"/>
      <point x="2035" y="799"/>
      <point x="2049" y="746"/>
      <point x="2049" y="685" type="curve" smooth="yes"/>
      <point x="2049" y="556"/>
      <point x="1949" y="416"/>
      <point x="1798" y="297" type="curve" smooth="yes"/>
      <point x="1723" y="237"/>
      <point x="1642" y="185"/>
      <point x="1555" y="141" type="curve"/>
      <point x="1951" y="181" type="line"/>
      <point x="2027" y="306" type="line"/>
      <point x="2154" y="281" type="line"/>
      <point x="2107" y="-1" type="line"/>
      <point x="1363" y="-1" type="line"/>
    </contour>
  </outline>
</glyph>
<glyph name="questiondown" format="1">
  <advance width="949"/>
  <unicode hex="00BF"/>
  <note>
	questiondown
  </note>
  <outline>
    <contour>
      <point x="710" y="822" type="line"/>
      <point x="724" y="759" type="line" smooth="yes"/>
      <point x="725" y="752"/>
      <point x="727" y="746"/>
      <point x="728" y="740" type="curve" smooth="yes"/>
      <point x="737" y="704"/>
      <point x="743" y="677"/>
      <point x="743" y="638" type="curve" smooth="yes"/>
      <point x="743" y="544"/>
      <point x="718" y="461"/>
      <point x="666" y="386" type="curve" smooth="yes"/>
      <point x="623" y="323"/>
      <point x="570" y="276"/>
      <point x="519" y="231" type="curve" smooth="yes"/>
      <point x="479" y="196"/>
      <point x="441" y="163"/>
      <point x="415" y="127" type="curve" smooth="yes"/>
      <point x="390" y="93"/>
      <point x="379" y="60"/>
      <point x="379" y="20" type="curve" smooth="yes"/>
      <point x="379" y="-28"/>
      <point x="393" y="-64"/>
      <point x="420" y="-88" type="curve" smooth="yes"/>
      <point x="435" y="-101"/>
      <point x="453" y="-111"/>
      <point x="476" y="-118" type="curve" smooth="yes"/>
      <point x="503" y="-126"/>
      <point x="535" y="-131"/>
      <point x="571" y="-131" type="curve" smooth="yes"/>
      <point x="642" y="-131"/>
      <point x="720" y="-108"/>
      <point x="775" y="-73" type="curve" smooth="yes"/>
      <point x="862" y="-16" type="line"/>
      <point x="943" y="-238" type="line"/>
      <point x="900" y="-274" type="line" smooth="yes"/>
      <point x="876" y="-295"/>
      <point x="824" y="-335"/>
      <point x="747" y="-367" type="curve" smooth="yes"/>
      <point x="671" y="-399"/>
      <point x="592" y="-415"/>
      <point x="512" y="-415" type="curve" smooth="yes"/>
      <point x="440" y="-415"/>
      <point x="374" y="-407"/>
      <point x="316" y="-390" type="curve" smooth="yes"/>
      <point x="255" y="-372"/>
      <point x="202" y="-345"/>
      <point x="159" y="-309" type="curve" smooth="yes"/>
      <point x="114" y="-273"/>
      <point x="80" y="-227"/>
      <point x="57" y="-175" type="curve" smooth="yes"/>
      <point x="35" y="-123"/>
      <point x="23" y="-65"/>
      <point x="23" y="-2" type="curve" smooth="yes"/>
      <point x="23" y="90"/>
      <point x="54" y="171"/>
      <point x="116" y="248" type="curve" smooth="yes"/>
      <point x="166" y="310"/>
      <point x="230" y="360"/>
      <point x="291" y="408" type="curve" smooth="yes"/>
      <point x="344" y="450"/>
      <point x="395" y="489"/>
      <point x="430" y="532" type="curve" smooth="yes"/>
      <point x="464" y="573"/>
      <point x="480" y="611"/>
      <point x="480" y="655" type="curve" smooth="yes"/>
      <point x="480" y="664"/>
      <point x="479" y="667"/>
      <point x="477" y="675" type="curve" smooth="yes"/>
      <point x="476" y="680"/>
      <point x="475" y="686"/>
      <point x="474" y="695" type="curve" smooth="yes"/>
      <point x="472" y="706"/>
      <point x="470" y="718"/>
      <point x="468" y="731" type="curve" smooth="yes"/>
      <point x="457" y="822" type="line"/>
    </contour>
    <contour>
      <point x="650" y="1263"/>
      <point x="688" y="1249"/>
      <point x="718" y="1224" type="curve" smooth="yes"/>
      <point x="748" y="1199"/>
      <point x="768" y="1164"/>
      <point x="775" y="1125" type="curve"/>
      <point x="777" y="1118"/>
      <point x="777" y="1111"/>
      <point x="777" y="1104" type="curve" smooth="yes"/>
      <point x="777" y="1041"/>
      <point x="740" y="982"/>
      <point x="680" y="951" type="curve" smooth="yes"/>
      <point x="652" y="936"/>
      <point x="620" y="929"/>
      <point x="587" y="929" type="curve" smooth="yes"/>
      <point x="544" y="929"/>
      <point x="505" y="943"/>
      <point x="474" y="969" type="curve" smooth="yes"/>
      <point x="445" y="994"/>
      <point x="425" y="1030"/>
      <point x="418" y="1069" type="curve" smooth="yes"/>
      <point x="418" y="1071" type="line"/>
      <point x="418" y="1075" type="line" smooth="yes"/>
      <point x="417" y="1083"/>
      <point x="416" y="1090"/>
      <point x="416" y="1096" type="curve" smooth="yes"/>
      <point x="416" y="1142"/>
      <point x="433" y="1181"/>
      <point x="466" y="1211" type="curve" smooth="yes"/>
      <point x="497" y="1239"/>
      <point x="539" y="1256"/>
      <point x="588" y="1261" type="curve" smooth="yes"/>
      <point x="590" y="1261"/>
      <point x="592" y="1261"/>
      <point x="593" y="1262" type="curve" smooth="yes"/>
      <point x="600" y="1262"/>
      <point x="606" y="1263"/>
      <point x="612" y="1263" type="curve" smooth="yes"/>
    </contour>
  </outline>
</glyph>
<glyph name="Agrave" format="1">
  <advance width="1289"/>
  <unicode hex="00C0"/>
  <note>
	Agrave
  </note>
  <outline>
    <contour>
      <point x="62" y="155" type="line"/>
      <point x="446" y="1342" type="line"/>
      <point x="835" y="1342" type="line"/>
      <point x="1221" y="154" type="line"/>
      <point x="1315" y="134" type="line"/>
      <point x="1315" y="0" type="line"/>
      <point x="701" y="0" type="line"/>
      <point x="701" y="134" type="line"/>
      <point x="818" y="154" type="line"/>
      <point x="767" y="345" type="line"/>
      <point x="384" y="345" type="line"/>
      <point x="334" y="150" type="line"/>
      <point x="468" y="134" type="line"/>
      <point x="468" y="0" type="line"/>
      <point x="-37" y="0" type="line"/>
      <point x="-40" y="134" type="line"/>
    </contour>
    <contour>
      <point x="728" y="497" type="line"/>
      <point x="591" y="1015" type="line"/>
      <point x="572" y="1126" type="line"/>
      <point x="551" y="1015" type="line"/>
      <point x="422" y="497" type="line"/>
    </contour>
    <contour>
      <point x="524" y="1772" type="line"/>
      <point x="525" y="1772" type="line"/>
      <point x="785" y="1492" type="line"/>
      <point x="657" y="1402" type="line"/>
      <point x="656" y="1402" type="line"/>
      <point x="607" y="1415"/>
      <point x="507" y="1469"/>
      <point x="418" y="1535" type="curve" smooth="yes"/>
      <point x="373" y="1568"/>
      <point x="338" y="1600"/>
      <point x="311" y="1632" type="curve"/>
    </contour>
  </outline>
</glyph>
<glyph name="Aacute" format="1">
  <advance width="1289"/>
  <unicode hex="00C1"/>
  <note>
	Aacute
  </note>
  <outline>
    <contour>
      <point x="62" y="155" type="line"/>
      <point x="446" y="1342" type="line"/>
      <point x="835" y="1342" type="line"/>
      <point x="1221" y="154" type="line"/>
      <point x="1315" y="134" type="line"/>
      <point x="1315" y="0" type="line"/>
      <point x="701" y="0" type="line"/>
      <point x="701" y="134" type="line"/>
      <point x="818" y="154" type="line"/>
      <point x="767" y="345" type="line"/>
      <point x="384" y="345" type="line"/>
      <point x="334" y="150" type="line"/>
      <point x="468" y="134" type="line"/>
      <point x="468" y="0" type="line"/>
      <point x="-37" y="0" type="line"/>
      <point x="-40" y="134" type="line"/>
    </contour>
    <contour>
      <point x="728" y="497" type="line"/>
      <point x="591" y="1015" type="line"/>
      <point x="572" y="1126" type="line"/>
      <point x="551" y="1015" type="line"/>
      <point x="422" y="497" type="line"/>
    </contour>
    <contour>
      <point x="758" y="1772" type="line"/>
      <point x="758" y="1772" type="line"/>
      <point x="971" y="1632" type="line"/>
      <point x="903" y="1559"/>
      <point x="803" y="1489"/>
      <point x="720" y="1445" type="curve" smooth="yes"/>
      <point x="679" y="1422"/>
      <point x="647" y="1408"/>
      <point x="626" y="1402" type="curve"/>
      <point x="625" y="1402" type="line"/>
      <point x="498" y="1492" type="line"/>
    </contour>
  </outline>
</glyph>
<glyph name="Atilde" format="1">
  <advance width="1289"/>
  <unicode hex="00C3"/>
  <note>
	Atilde
  </note>
  <outline>
    <contour>
      <point x="62" y="155" type="line"/>
      <point x="446" y="1342" type="line"/>
      <point x="835" y="1342" type="line"/>
      <point x="1221" y="154" type="line"/>
      <point x="1315" y="134" type="line"/>
      <point x="1315" y="0" type="line"/>
      <point x="701" y="0" type="line"/>
      <point x="701" y="134" type="line"/>
      <point x="818" y="154" type="line"/>
      <point x="767" y="345" type="line"/>
      <point x="384" y="345" type="line"/>
      <point x="334" y="150" type="line"/>
      <point x="468" y="134" type="line"/>
      <point x="468" y="0" type="line"/>
      <point x="-37" y="0" type="line"/>
      <point x="-40" y="134" type="line"/>
    </contour>
    <contour>
      <point x="728" y="497" type="line"/>
      <point x="591" y="1015" type="line"/>
      <point x="572" y="1126" type="line"/>
      <point x="551" y="1015" type="line"/>
      <point x="422" y="497" type="line"/>
    </contour>
    <contour>
      <point x="401" y="1566"/>
      <point x="364" y="1544"/>
      <point x="344" y="1525" type="curve" smooth="yes"/>
      <point x="333" y="1515"/>
      <point x="319" y="1500"/>
      <point x="301" y="1481" type="curve"/>
      <point x="208" y="1578" type="line"/>
      <point x="264" y="1679"/>
      <point x="356" y="1767"/>
      <point x="496" y="1767" type="curve" smooth="yes"/>
      <point x="573" y="1767"/>
      <point x="625" y="1740"/>
      <point x="698" y="1691" type="curve" smooth="yes"/>
      <point x="757" y="1652"/>
      <point x="789" y="1634"/>
      <point x="832" y="1634" type="curve" smooth="yes"/>
      <point x="896" y="1634"/>
      <point x="928" y="1664"/>
      <point x="952" y="1692" type="curve" smooth="yes"/>
      <point x="964" y="1706"/>
      <point x="972" y="1715"/>
      <point x="975" y="1720" type="curve"/>
      <point x="1069" y="1624" type="line"/>
      <point x="1006" y="1511"/>
      <point x="922" y="1433"/>
      <point x="795" y="1433" type="curve" smooth="yes"/>
      <point x="722" y="1433"/>
      <point x="672" y="1458"/>
      <point x="593" y="1507" type="curve" smooth="yes"/>
      <point x="530" y="1546"/>
      <point x="492" y="1566"/>
      <point x="444" y="1566" type="curve" smooth="yes"/>
    </contour>
  </outline>
</glyph>
<glyph name="Aring" format="1">
  <advance width="1289"/>
  <unicode hex="00C5"/>
  <note>
	Aring
  </note>
  <outline>
    <contour>
      <point x="1315" y="134" type="line"/>
      <point x="1315" y="0" type="line"/>
      <point x="701" y="0" type="line"/>
      <point x="701" y="134" type="line"/>
      <point x="818" y="154" type="line"/>
      <point x="767" y="345" type="line"/>
      <point x="384" y="345" type="line"/>
      <point x="334" y="150" type="line"/>
      <point x="468" y="134" type="line"/>
      <point x="468" y="0" type="line"/>
      <point x="-37" y="0" type="line"/>
      <point x="-40" y="134" type="line"/>
      <point x="62" y="155" type="line"/>
      <point x="440" y="1324" type="line"/>
      <point x="353" y="1361"/>
      <point x="310" y="1430"/>
      <point x="310" y="1529" type="curve" smooth="yes"/>
      <point x="310" y="1628"/>
      <point x="368" y="1703"/>
      <point x="470" y="1743" type="curve" smooth="yes"/>
      <point x="521" y="1762"/>
      <point x="580" y="1772"/>
      <point x="649" y="1772" type="curve" smooth="yes"/>
      <point x="650" y="1772" type="line" smooth="yes"/>
      <point x="875" y="1772"/>
      <point x="969" y="1676"/>
      <point x="969" y="1532" type="curve" smooth="yes"/>
      <point x="969" y="1443"/>
      <point x="923" y="1373"/>
      <point x="839" y="1332" type="curve"/>
      <point x="1221" y="154" type="line"/>
    </contour>
    <contour>
      <point x="640" y="1656" type="line" smooth="yes"/>
      <point x="543" y="1656"/>
      <point x="507" y="1611"/>
      <point x="507" y="1534" type="curve" smooth="yes"/>
      <point x="507" y="1463"/>
      <point x="547" y="1406"/>
      <point x="639" y="1406" type="curve" smooth="yes"/>
      <point x="640" y="1406" type="line" smooth="yes"/>
      <point x="739" y="1406"/>
      <point x="772" y="1447"/>
      <point x="772" y="1523" type="curve" smooth="yes"/>
      <point x="772" y="1602"/>
      <point x="734" y="1656"/>
      <point x="641" y="1656" type="curve" smooth="yes"/>
    </contour>
    <contour>
      <point x="728" y="497" type="line"/>
      <point x="591" y="1015" type="line"/>
      <point x="572" y="1126" type="line"/>
      <point x="551" y="1015" type="line"/>
      <point x="422" y="497" type="line"/>
    </contour>
  </outline>
</glyph>
<glyph name="AE" format="1">
  <advance width="1729"/>
  <unicode hex="00C6"/>
  <note>
	AE
  </note>
  <outline>
    <contour>
      <point x="719" y="153" type="line"/>
      <point x="719" y="361" type="line"/>
      <point x="335" y="361" type="line"/>
      <point x="263" y="153" type="line"/>
      <point x="395" y="132" type="line"/>
      <point x="395" y="0" type="line"/>
      <point x="-140" y="0" type="line"/>
      <point x="-140" y="132" type="line"/>
      <point x="-14" y="154" type="line"/>
      <point x="396" y="1170" type="line"/>
      <point x="172" y="1197" type="line"/>
      <point x="172" y="1339" type="line"/>
      <point x="1602" y="1339" type="line"/>
      <point x="1627" y="1001" type="line"/>
      <point x="1464" y="1001" type="line"/>
      <point x="1399" y="1186" type="line"/>
      <point x="1083" y="1209" type="line"/>
      <point x="1083" y="759" type="line"/>
      <point x="1265" y="766" type="line"/>
      <point x="1298" y="910" type="line"/>
      <point x="1434" y="910" type="line"/>
      <point x="1434" y="440" type="line"/>
      <point x="1299" y="440" type="line"/>
      <point x="1266" y="596" type="line"/>
      <point x="1083" y="602" type="line"/>
      <point x="1083" y="137" type="line"/>
      <point x="1426" y="165" type="line"/>
      <point x="1544" y="400" type="line"/>
      <point x="1742" y="345" type="line"/>
      <point x="1684" y="0" type="line"/>
      <point x="586" y="0" type="line"/>
      <point x="586" y="132" type="line"/>
    </contour>
    <contour>
      <point x="719" y="519" type="line"/>
      <point x="719" y="1192" type="line"/>
      <point x="621" y="1192" type="line"/>
      <point x="535" y="933" type="line"/>
      <point x="391" y="519" type="line"/>
    </contour>
  </outline>
</glyph>
<glyph name="Ccedilla" format="1">
  <advance width="1200"/>
  <unicode hex="00C7"/>
  <note>
	Ccedilla
  </note>
  <outline>
    <contour>
      <point x="943" y="378" type="line"/>
      <point x="1149" y="361" type="line"/>
      <point x="1120" y="49" type="line"/>
      <point x="1079" y="45"/>
      <point x="1044" y="37"/>
      <point x="989" y="22" type="curve" smooth="yes"/>
      <point x="909" y="1"/>
      <point x="859" y="-10"/>
      <point x="779" y="-17" type="curve"/>
      <point x="838" y="-80"/>
      <point x="888" y="-169"/>
      <point x="884" y="-261" type="curve" smooth="yes"/>
      <point x="877" y="-369"/>
      <point x="831" y="-429"/>
      <point x="750" y="-455" type="curve" smooth="yes"/>
      <point x="709" y="-468"/>
      <point x="658" y="-475"/>
      <point x="596" y="-475" type="curve" smooth="yes"/>
      <point x="595" y="-475" type="line" smooth="yes"/>
      <point x="555" y="-475"/>
      <point x="500" y="-462"/>
      <point x="468" y="-449" type="curve"/>
      <point x="469" y="-260" type="line"/>
      <point x="492" y="-268"/>
      <point x="526" y="-272"/>
      <point x="541" y="-272" type="curve" smooth="yes"/>
      <point x="542" y="-272" type="line" smooth="yes"/>
      <point x="601" y="-272"/>
      <point x="631" y="-265"/>
      <point x="649" y="-229" type="curve" smooth="yes"/>
      <point x="658" y="-212"/>
      <point x="662" y="-185"/>
      <point x="662" y="-150" type="curve" smooth="yes"/>
      <point x="662" y="-109"/>
      <point x="644" y="-58"/>
      <point x="621" y="-18" type="curve"/>
      <point x="364" y="-2"/>
      <point x="189" y="115"/>
      <point x="104" y="310" type="curve" smooth="yes"/>
      <point x="61" y="407"/>
      <point x="40" y="521"/>
      <point x="40" y="651" type="curve" smooth="yes"/>
      <point x="40" y="943"/>
      <point x="163" y="1161"/>
      <point x="368" y="1271" type="curve" smooth="yes"/>
      <point x="470" y="1326"/>
      <point x="587" y="1353"/>
      <point x="718" y="1353" type="curve" smooth="yes"/>
      <point x="815" y="1353"/>
      <point x="896" y="1343"/>
      <point x="1024" y="1327" type="curve" smooth="yes"/>
      <point x="1076" y="1320"/>
      <point x="1126" y="1314"/>
      <point x="1153" y="1314" type="curve"/>
      <point x="1129" y="872" type="line"/>
      <point x="901" y="872" type="line"/>
      <point x="832" y="1174" type="line"/>
      <point x="809" y="1199"/>
      <point x="766" y="1211"/>
      <point x="703" y="1211" type="curve" smooth="yes"/>
      <point x="623" y="1211"/>
      <point x="561" y="1167"/>
      <point x="517" y="1079" type="curve" smooth="yes"/>
      <point x="473" y="990"/>
      <point x="451" y="857"/>
      <point x="451" y="679" type="curve" smooth="yes"/>
      <point x="451" y="454"/>
      <point x="491" y="283"/>
      <point x="568" y="192" type="curve" smooth="yes"/>
      <point x="606" y="147"/>
      <point x="653" y="124"/>
      <point x="708" y="124" type="curve" smooth="yes"/>
      <point x="792" y="124"/>
      <point x="826" y="143"/>
      <point x="857" y="176" type="curve"/>
    </contour>
  </outline>
</glyph>
<glyph name="Ecircumflex" format="1">
  <advance width="1188"/>
  <unicode hex="00CA"/>
  <note>
	Ecircumflex
  </note>
  <outline>
    <contour>
      <point x="184" y="154" type="line"/>
      <point x="184" y="1170" type="line"/>
      <point x="48" y="1197" type="line"/>
      <point x="48" y="1339" type="line"/>
      <point x="1065" y="1339" type="line"/>
      <point x="1089" y="1001" type="line"/>
      <point x="927" y="1001" type="line"/>
      <point x="859" y="1186" type="line"/>
      <point x="550" y="1208" type="line"/>
      <point x="550" y="759" type="line"/>
      <point x="730" y="764" type="line"/>
      <point x="765" y="910" type="line"/>
      <point x="900" y="910" type="line"/>
      <point x="900" y="440" type="line"/>
      <point x="765" y="440" type="line"/>
      <point x="732" y="598" type="line"/>
      <point x="550" y="602" type="line"/>
      <point x="550" y="137" type="line"/>
      <point x="888" y="165" type="line"/>
      <point x="1004" y="400" type="line"/>
      <point x="1181" y="351" type="line"/>
      <point x="1142" y="0" type="line"/>
      <point x="53" y="0" type="line"/>
      <point x="53" y="134" type="line"/>
    </contour>
    <contour>
      <point x="524" y="1764" type="line"/>
      <point x="708" y="1764" type="line"/>
      <point x="992" y="1500" type="line"/>
      <point x="881" y="1404" type="line"/>
      <point x="615" y="1567" type="line"/>
      <point x="349" y="1404" type="line"/>
      <point x="238" y="1500" type="line"/>
    </contour>
  </outline>
</glyph>
<glyph name="Edieresis" format="1">
  <advance width="1188"/>
  <unicode hex="00CB"/>
  <note>
	Edieresis
  </note>
  <outline>
    <contour>
      <point x="207" y="1689"/>
      <point x="267" y="1761"/>
      <point x="380" y="1761" type="curve" smooth="yes"/>
      <point x="381" y="1761" type="line" smooth="yes"/>
      <point x="488" y="1761"/>
      <point x="541" y="1698"/>
      <point x="541" y="1611" type="curve" smooth="yes"/>
      <point x="541" y="1503"/>
      <point x="478" y="1431"/>
      <point x="350" y="1431" type="curve" smooth="yes"/>
      <point x="349" y="1431" type="line" smooth="yes"/>
      <point x="296" y="1431"/>
      <point x="250" y="1460"/>
      <point x="226" y="1507" type="curve"/>
      <point x="213" y="1530"/>
      <point x="207" y="1555"/>
      <point x="207" y="1582" type="curve" smooth="yes"/>
    </contour>
    <contour>
      <point x="691" y="1689"/>
      <point x="750" y="1761"/>
      <point x="863" y="1761" type="curve" smooth="yes"/>
      <point x="864" y="1761" type="line" smooth="yes"/>
      <point x="971" y="1761"/>
      <point x="1025" y="1698"/>
      <point x="1025" y="1611" type="curve" smooth="yes"/>
      <point x="1025" y="1503"/>
      <point x="962" y="1431"/>
      <point x="834" y="1431" type="curve" smooth="yes"/>
      <point x="833" y="1431" type="line" smooth="yes"/>
      <point x="781" y="1431"/>
      <point x="734" y="1465"/>
      <point x="710" y="1512" type="curve"/>
      <point x="697" y="1535"/>
      <point x="691" y="1559"/>
      <point x="691" y="1582" type="curve" smooth="yes"/>
    </contour>
    <contour>
      <point x="184" y="154" type="line"/>
      <point x="184" y="1170" type="line"/>
      <point x="48" y="1197" type="line"/>
      <point x="48" y="1339" type="line"/>
      <point x="1065" y="1339" type="line"/>
      <point x="1089" y="1001" type="line"/>
      <point x="927" y="1001" type="line"/>
      <point x="859" y="1186" type="line"/>
      <point x="550" y="1208" type="line"/>
      <point x="550" y="759" type="line"/>
      <point x="730" y="764" type="line"/>
      <point x="765" y="910" type="line"/>
      <point x="900" y="910" type="line"/>
      <point x="900" y="440" type="line"/>
      <point x="765" y="440" type="line"/>
      <point x="732" y="598" type="line"/>
      <point x="550" y="602" type="line"/>
      <point x="550" y="137" type="line"/>
      <point x="888" y="165" type="line"/>
      <point x="1004" y="400" type="line"/>
      <point x="1181" y="351" type="line"/>
      <point x="1142" y="0" type="line"/>
      <point x="53" y="0" type="line"/>
      <point x="53" y="134" type="line"/>
    </contour>
  </outline>
</glyph>
<glyph name="Igrave" format="1">
  <advance width="765"/>
  <unicode hex="00CC"/>
  <note>
	Igrave
  </note>
  <outline>
    <contour>
      <point x="200" y="155" type="line"/>
      <point x="200" y="1170" type="line"/>
      <point x="62" y="1197" type="line"/>
      <point x="62" y="1339" type="line"/>
      <point x="708" y="1339" type="line"/>
      <point x="708" y="1197" type="line"/>
      <point x="566" y="1170" type="line"/>
      <point x="566" y="154" type="line"/>
      <point x="708" y="132" type="line"/>
      <point x="708" y="0" type="line"/>
      <point x="65" y="0" type="line"/>
      <point x="65" y="134" type="line"/>
    </contour>
    <contour>
      <point x="265" y="1772" type="line"/>
      <point x="266" y="1772" type="line"/>
      <point x="526" y="1492" type="line"/>
      <point x="398" y="1402" type="line"/>
      <point x="397" y="1402" type="line"/>
      <point x="348" y="1415"/>
      <point x="248" y="1469"/>
      <point x="159" y="1535" type="curve" smooth="yes"/>
      <point x="114" y="1568"/>
      <point x="79" y="1600"/>
      <point x="52" y="1632" type="curve"/>
    </contour>
  </outline>
</glyph>
<glyph name="Iacute" format="1">
  <advance width="765"/>
  <unicode hex="00CD"/>
  <note>
	Iacute
  </note>
  <outline>
    <contour>
      <point x="200" y="155" type="line"/>
      <point x="200" y="1170" type="line"/>
      <point x="62" y="1197" type="line"/>
      <point x="62" y="1339" type="line"/>
      <point x="708" y="1339" type="line"/>
      <point x="708" y="1197" type="line"/>
      <point x="566" y="1170" type="line"/>
      <point x="566" y="154" type="line"/>
      <point x="708" y="132" type="line"/>
      <point x="708" y="0" type="line"/>
      <point x="65" y="0" type="line"/>
      <point x="65" y="134" type="line"/>
    </contour>
    <contour>
      <point x="498" y="1772" type="line"/>
      <point x="498" y="1772" type="line"/>
      <point x="711" y="1632" type="line"/>
      <point x="643" y="1559"/>
      <point x="543" y="1489"/>
      <point x="460" y="1445" type="curve" smooth="yes"/>
      <point x="419" y="1422"/>
      <point x="387" y="1408"/>
      <point x="366" y="1402" type="curve"/>
      <point x="365" y="1402" type="line"/>
      <point x="238" y="1492" type="line"/>
    </contour>
  </outline>
</glyph>
<glyph name="Icircumflex" format="1">
  <advance width="765"/>
  <unicode hex="00CE"/>
  <note>
	Icircumflex
  </note>
  <outline>
    <contour>
      <point x="200" y="155" type="line"/>
      <point x="200" y="1170" type="line"/>
      <point x="62" y="1197" type="line"/>
      <point x="62" y="1339" type="line"/>
      <point x="708" y="1339" type="line"/>
      <point x="708" y="1197" type="line"/>
      <point x="566" y="1170" type="line"/>
      <point x="566" y="154" type="line"/>
      <point x="708" y="132" type="line"/>
      <point x="708" y="0" type="line"/>
      <point x="65" y="0" type="line"/>
      <point x="65" y="134" type="line"/>
    </contour>
    <contour>
      <point x="286" y="1764" type="line"/>
      <point x="470" y="1764" type="line"/>
      <point x="754" y="1500" type="line"/>
      <point x="643" y="1404" type="line"/>
      <point x="377" y="1567" type="line"/>
      <point x="111" y="1404" type="line"/>
      <point x="0" y="1500" type="line"/>
    </contour>
  </outline>
</glyph>
<glyph name="Ntilde" format="1">
  <advance width="1461"/>
  <unicode hex="00D1"/>
  <note>
	Ntilde
  </note>
  <outline>
    <contour>
      <point x="511" y="1566"/>
      <point x="474" y="1544"/>
      <point x="454" y="1525" type="curve" smooth="yes"/>
      <point x="443" y="1515"/>
      <point x="429" y="1500"/>
      <point x="411" y="1481" type="curve"/>
      <point x="318" y="1578" type="line"/>
      <point x="374" y="1679"/>
      <point x="466" y="1767"/>
      <point x="606" y="1767" type="curve" smooth="yes"/>
      <point x="683" y="1767"/>
      <point x="735" y="1740"/>
      <point x="808" y="1691" type="curve" smooth="yes"/>
      <point x="867" y="1652"/>
      <point x="899" y="1634"/>
      <point x="942" y="1634" type="curve" smooth="yes"/>
      <point x="1006" y="1634"/>
      <point x="1038" y="1664"/>
      <point x="1062" y="1692" type="curve" smooth="yes"/>
      <point x="1074" y="1706"/>
      <point x="1082" y="1715"/>
      <point x="1085" y="1720" type="curve"/>
      <point x="1179" y="1624" type="line"/>
      <point x="1116" y="1511"/>
      <point x="1032" y="1433"/>
      <point x="905" y="1433" type="curve" smooth="yes"/>
      <point x="832" y="1433"/>
      <point x="782" y="1458"/>
      <point x="703" y="1507" type="curve" smooth="yes"/>
      <point x="640" y="1546"/>
      <point x="602" y="1566"/>
      <point x="554" y="1566" type="curve" smooth="yes"/>
    </contour>
    <contour>
      <point x="189" y="154" type="line"/>
      <point x="189" y="1171" type="line"/>
      <point x="48" y="1197" type="line"/>
      <point x="48" y="1339" type="line"/>
      <point x="558" y="1339" type="line"/>
      <point x="1007" y="627" type="line"/>
      <point x="1109" y="398" type="line"/>
      <point x="1109" y="1171" type="line"/>
      <point x="957" y="1197" type="line"/>
      <point x="957" y="1339" type="line"/>
      <point x="1435" y="1339" type="line"/>
      <point x="1435" y="1197" type="line"/>
      <point x="1302" y="1171" type="line"/>
      <point x="1302" y="0" type="line"/>
      <point x="978" y="0" type="line"/>
      <point x="491" y="786" type="line"/>
      <point x="383" y="1023" type="line"/>
      <point x="383" y="155" type="line"/>
      <point x="583" y="134" type="line"/>
      <point x="583" y="0" type="line"/>
      <point x="48" y="0" type="line"/>
      <point x="48" y="134" type="line"/>
    </contour>
  </outline>
</glyph>
<glyph name="Oacute" format="1">
  <advance width="1334"/>
  <unicode hex="00D3"/>
  <note>
	Oacute
  </note>
  <outline>
    <contour>
      <point x="787" y="1772" type="line"/>
      <point x="787" y="1772" type="line"/>
      <point x="1000" y="1632" type="line"/>
      <point x="932" y="1559"/>
      <point x="832" y="1489"/>
      <point x="749" y="1445" type="curve" smooth="yes"/>
      <point x="708" y="1422"/>
      <point x="676" y="1408"/>
      <point x="655" y="1402" type="curve"/>
      <point x="654" y="1402" type="line"/>
      <point x="527" y="1492" type="line"/>
    </contour>
    <contour>
      <point x="46" y="947"/>
      <point x="150" y="1161"/>
      <point x="338" y="1274" type="curve" smooth="yes"/>
      <point x="432" y="1330"/>
      <point x="543" y="1358"/>
      <point x="672" y="1358" type="curve" smooth="yes"/>
      <point x="1101" y="1358"/>
      <point x="1287" y="1123"/>
      <point x="1287" y="695" type="curve" smooth="yes"/>
      <point x="1287" y="416"/>
      <point x="1182" y="192"/>
      <point x="993" y="72" type="curve" smooth="yes"/>
      <point x="804" y="-49"/>
      <point x="389" y="-81"/>
      <point x="193" y="161" type="curve" smooth="yes"/>
      <point x="95" y="282"/>
      <point x="46" y="451"/>
      <point x="46" y="670" type="curve" smooth="yes"/>
    </contour>
    <contour>
      <point x="447" y="473"/>
      <point x="466" y="331"/>
      <point x="503" y="244" type="curve" smooth="yes"/>
      <point x="540" y="157"/>
      <point x="594" y="113"/>
      <point x="665" y="113" type="curve" smooth="yes"/>
      <point x="736" y="113"/>
      <point x="790" y="163"/>
      <point x="829" y="263" type="curve" smooth="yes"/>
      <point x="867" y="362"/>
      <point x="886" y="506"/>
      <point x="886" y="694" type="curve" smooth="yes"/>
      <point x="886" y="827"/>
      <point x="877" y="933"/>
      <point x="860" y="1011" type="curve" smooth="yes"/>
      <point x="825" y="1167"/>
      <point x="763" y="1225"/>
      <point x="668" y="1225" type="curve" smooth="yes"/>
      <point x="595" y="1225"/>
      <point x="540" y="1179"/>
      <point x="503" y="1088" type="curve" smooth="yes"/>
      <point x="466" y="996"/>
      <point x="447" y="857"/>
      <point x="447" y="671" type="curve" smooth="yes"/>
    </contour>
  </outline>
</glyph>
<glyph name="Otilde" format="1">
  <advance width="1334"/>
  <unicode hex="00D5"/>
  <note>
	Otilde
  </note>
  <outline>
    <contour>
      <point x="431" y="1566"/>
      <point x="394" y="1544"/>
      <point x="374" y="1525" type="curve" smooth="yes"/>
      <point x="363" y="1515"/>
      <point x="349" y="1500"/>
      <point x="331" y="1481" type="curve"/>
      <point x="238" y="1578" type="line"/>
      <point x="294" y="1679"/>
      <point x="386" y="1767"/>
      <point x="526" y="1767" type="curve" smooth="yes"/>
      <point x="603" y="1767"/>
      <point x="655" y="1740"/>
      <point x="728" y="1691" type="curve" smooth="yes"/>
      <point x="787" y="1652"/>
      <point x="819" y="1634"/>
      <point x="862" y="1634" type="curve" smooth="yes"/>
      <point x="926" y="1634"/>
      <point x="958" y="1664"/>
      <point x="982" y="1692" type="curve" smooth="yes"/>
      <point x="994" y="1706"/>
      <point x="1002" y="1715"/>
      <point x="1005" y="1720" type="curve"/>
      <point x="1099" y="1624" type="line"/>
      <point x="1036" y="1511"/>
      <point x="952" y="1433"/>
      <point x="825" y="1433" type="curve" smooth="yes"/>
      <point x="752" y="1433"/>
      <point x="702" y="1458"/>
      <point x="623" y="1507" type="curve" smooth="yes"/>
      <point x="560" y="1546"/>
      <point x="522" y="1566"/>
      <point x="474" y="1566" type="curve" smooth="yes"/>
    </contour>
    <contour>
      <point x="46" y="947"/>
      <point x="150" y="1161"/>
      <point x="338" y="1274" type="curve" smooth="yes"/>
      <point x="432" y="1330"/>
      <point x="543" y="1358"/>
      <point x="672" y="1358" type="curve" smooth="yes"/>
      <point x="1101" y="1358"/>
      <point x="1287" y="1123"/>
      <point x="1287" y="695" type="curve" smooth="yes"/>
      <point x="1287" y="416"/>
      <point x="1182" y="192"/>
      <point x="993" y="72" type="curve" smooth="yes"/>
      <point x="804" y="-49"/>
      <point x="389" y="-81"/>
      <point x="193" y="161" type="curve" smooth="yes"/>
      <point x="95" y="282"/>
      <point x="46" y="451"/>
      <point x="46" y="670" type="curve" smooth="yes"/>
    </contour>
    <contour>
      <point x="447" y="473"/>
      <point x="466" y="331"/>
      <point x="503" y="244" type="curve" smooth="yes"/>
      <point x="540" y="157"/>
      <point x="594" y="113"/>
      <point x="665" y="113" type="curve" smooth="yes"/>
      <point x="736" y="113"/>
      <point x="790" y="163"/>
      <point x="829" y="263" type="curve" smooth="yes"/>
      <point x="867" y="362"/>
      <point x="886" y="506"/>
      <point x="886" y="694" type="curve" smooth="yes"/>
      <point x="886" y="827"/>
      <point x="877" y="933"/>
      <point x="860" y="1011" type="curve" smooth="yes"/>
      <point x="825" y="1167"/>
      <point x="763" y="1225"/>
      <point x="668" y="1225" type="curve" smooth="yes"/>
      <point x="595" y="1225"/>
      <point x="540" y="1179"/>
      <point x="503" y="1088" type="curve" smooth="yes"/>
      <point x="466" y="996"/>
      <point x="447" y="857"/>
      <point x="447" y="671" type="curve" smooth="yes"/>
    </contour>
  </outline>
</glyph>
<glyph name="multiply" format="1">
  <advance width="1122"/>
  <unicode hex="00D7"/>
  <note>
	multiply
  </note>
  <outline>
    <contour>
      <point x="407" y="542" type="line"/>
      <point x="106" y="824" type="line"/>
      <point x="287" y="1002" type="line"/>
      <point x="563" y="693" type="line"/>
      <point x="838" y="1002" type="line"/>
      <point x="1015" y="825" type="line"/>
      <point x="720" y="542" type="line"/>
      <point x="1015" y="261" type="line"/>
      <point x="838" y="84" type="line"/>
      <point x="563" y="392" type="line"/>
      <point x="289" y="84" type="line"/>
      <point x="113" y="260" type="line"/>
    </contour>
  </outline>
</glyph>
<glyph name="Ugrave" format="1">
  <advance width="1346"/>
  <unicode hex="00D9"/>
  <note>
	Ugrave
  </note>
  <outline>
    <contour>
      <point x="601" y="1772" type="line"/>
      <point x="602" y="1772" type="line"/>
      <point x="862" y="1492" type="line"/>
      <point x="734" y="1402" type="line"/>
      <point x="733" y="1402" type="line"/>
      <point x="684" y="1415"/>
      <point x="584" y="1469"/>
      <point x="495" y="1535" type="curve" smooth="yes"/>
      <point x="450" y="1568"/>
      <point x="415" y="1600"/>
      <point x="388" y="1632" type="curve"/>
    </contour>
    <contour>
      <point x="126" y="1170" type="line"/>
      <point x="21" y="1197" type="line"/>
      <point x="21" y="1339" type="line"/>
      <point x="654" y="1339" type="line"/>
      <point x="654" y="1197" type="line"/>
      <point x="504" y="1167" type="line"/>
      <point x="504" y="506" type="line" smooth="yes"/>
      <point x="504" y="251"/>
      <point x="589" y="124"/>
      <point x="759" y="124" type="curve" smooth="yes"/>
      <point x="931" y="124"/>
      <point x="1003" y="273"/>
      <point x="1003" y="506" type="curve" smooth="yes"/>
      <point x="1003" y="1170" type="line"/>
      <point x="846" y="1197" type="line"/>
      <point x="846" y="1339" type="line"/>
      <point x="1338" y="1339" type="line"/>
      <point x="1338" y="1197" type="line"/>
      <point x="1227" y="1170" type="line"/>
      <point x="1227" y="526" type="line" smooth="yes"/>
      <point x="1227" y="153"/>
      <point x="1026" y="-14"/>
      <point x="702" y="-14" type="curve" smooth="yes"/>
      <point x="318" y="-14"/>
      <point x="126" y="155"/>
      <point x="126" y="536" type="curve" smooth="yes"/>
    </contour>
  </outline>
</glyph>
<glyph name="Uacute" format="1">
  <advance width="1346"/>
  <unicode hex="00DA"/>
  <note>
	Uacute
  </note>
  <outline>
    <contour>
      <point x="828" y="1772" type="line"/>
      <point x="828" y="1772" type="line"/>
      <point x="1041" y="1632" type="line"/>
      <point x="973" y="1559"/>
      <point x="873" y="1489"/>
      <point x="790" y="1445" type="curve" smooth="yes"/>
      <point x="749" y="1422"/>
      <point x="717" y="1408"/>
      <point x="696" y="1402" type="curve"/>
      <point x="695" y="1402" type="line"/>
      <point x="568" y="1492" type="line"/>
    </contour>
    <contour>
      <point x="126" y="1170" type="line"/>
      <point x="21" y="1197" type="line"/>
      <point x="21" y="1339" type="line"/>
      <point x="654" y="1339" type="line"/>
      <point x="654" y="1197" type="line"/>
      <point x="504" y="1167" type="line"/>
      <point x="504" y="506" type="line" smooth="yes"/>
      <point x="504" y="251"/>
      <point x="589" y="124"/>
      <point x="759" y="124" type="curve" smooth="yes"/>
      <point x="931" y="124"/>
      <point x="1003" y="273"/>
      <point x="1003" y="506" type="curve" smooth="yes"/>
      <point x="1003" y="1170" type="line"/>
      <point x="846" y="1197" type="line"/>
      <point x="846" y="1339" type="line"/>
      <point x="1338" y="1339" type="line"/>
      <point x="1338" y="1197" type="line"/>
      <point x="1227" y="1170" type="line"/>
      <point x="1227" y="526" type="line" smooth="yes"/>
      <point x="1227" y="153"/>
      <point x="1026" y="-14"/>
      <point x="702" y="-14" type="curve" smooth="yes"/>
      <point x="318" y="-14"/>
      <point x="126" y="155"/>
      <point x="126" y="536" type="curve" smooth="yes"/>
    </contour>
  </outline>
</glyph>
<glyph name="Ucircumflex" format="1">
  <advance width="1346"/>
  <unicode hex="00DB"/>
  <note>
	Ucircumflex
  </note>
  <outline>
    <contour>
      <point x="126" y="1170" type="line"/>
      <point x="21" y="1197" type="line"/>
      <point x="21" y="1339" type="line"/>
      <point x="654" y="1339" type="line"/>
      <point x="654" y="1197" type="line"/>
      <point x="504" y="1167" type="line"/>
      <point x="504" y="506" type="line" smooth="yes"/>
      <point x="504" y="251"/>
      <point x="589" y="124"/>
      <point x="759" y="124" type="curve" smooth="yes"/>
      <point x="931" y="124"/>
      <point x="1003" y="273"/>
      <point x="1003" y="506" type="curve" smooth="yes"/>
      <point x="1003" y="1170" type="line"/>
      <point x="846" y="1197" type="line"/>
      <point x="846" y="1339" type="line"/>
      <point x="1338" y="1339" type="line"/>
      <point x="1338" y="1197" type="line"/>
      <point x="1227" y="1170" type="line"/>
      <point x="1227" y="526" type="line" smooth="yes"/>
      <point x="1227" y="153"/>
      <point x="1026" y="-14"/>
      <point x="702" y="-14" type="curve" smooth="yes"/>
      <point x="318" y="-14"/>
      <point x="126" y="155"/>
      <point x="126" y="536" type="curve" smooth="yes"/>
    </contour>
    <contour>
      <point x="617" y="1764" type="line"/>
      <point x="801" y="1764" type="line"/>
      <point x="1085" y="1500" type="line"/>
      <point x="974" y="1404" type="line"/>
      <point x="708" y="1567" type="line"/>
      <point x="442" y="1404" type="line"/>
      <point x="331" y="1500" type="line"/>
    </contour>
  </outline>
</glyph>
<glyph name="Udieresis" format="1">
  <advance width="1346"/>
  <unicode hex="00DC"/>
  <note>
	Udieresis
  </note>
  <outline>
    <contour>
      <point x="301" y="1689"/>
      <point x="361" y="1761"/>
      <point x="474" y="1761" type="curve" smooth="yes"/>
      <point x="475" y="1761" type="line" smooth="yes"/>
      <point x="582" y="1761"/>
      <point x="635" y="1698"/>
      <point x="635" y="1611" type="curve" smooth="yes"/>
      <point x="635" y="1503"/>
      <point x="572" y="1431"/>
      <point x="444" y="1431" type="curve" smooth="yes"/>
      <point x="443" y="1431" type="line" smooth="yes"/>
      <point x="390" y="1431"/>
      <point x="344" y="1460"/>
      <point x="320" y="1507" type="curve"/>
      <point x="307" y="1530"/>
      <point x="301" y="1555"/>
      <point x="301" y="1582" type="curve" smooth="yes"/>
    </contour>
    <contour>
      <point x="785" y="1689"/>
      <point x="844" y="1761"/>
      <point x="957" y="1761" type="curve" smooth="yes"/>
      <point x="958" y="1761" type="line" smooth="yes"/>
      <point x="1065" y="1761"/>
      <point x="1119" y="1698"/>
      <point x="1119" y="1611" type="curve" smooth="yes"/>
      <point x="1119" y="1503"/>
      <point x="1056" y="1431"/>
      <point x="928" y="1431" type="curve" smooth="yes"/>
      <point x="927" y="1431" type="line" smooth="yes"/>
      <point x="875" y="1431"/>
      <point x="828" y="1465"/>
      <point x="804" y="1512" type="curve"/>
      <point x="791" y="1535"/>
      <point x="785" y="1559"/>
      <point x="785" y="1582" type="curve" smooth="yes"/>
    </contour>
    <contour>
      <point x="126" y="1170" type="line"/>
      <point x="21" y="1197" type="line"/>
      <point x="21" y="1339" type="line"/>
      <point x="654" y="1339" type="line"/>
      <point x="654" y="1197" type="line"/>
      <point x="504" y="1167" type="line"/>
      <point x="504" y="506" type="line" smooth="yes"/>
      <point x="504" y="251"/>
      <point x="589" y="124"/>
      <point x="759" y="124" type="curve" smooth="yes"/>
      <point x="931" y="124"/>
      <point x="1003" y="273"/>
      <point x="1003" y="506" type="curve" smooth="yes"/>
      <point x="1003" y="1170" type="line"/>
      <point x="846" y="1197" type="line"/>
      <point x="846" y="1339" type="line"/>
      <point x="1338" y="1339" type="line"/>
      <point x="1338" y="1197" type="line"/>
      <point x="1227" y="1170" type="line"/>
      <point x="1227" y="526" type="line" smooth="yes"/>
      <point x="1227" y="153"/>
      <point x="1026" y="-14"/>
      <point x="702" y="-14" type="curve" smooth="yes"/>
      <point x="318" y="-14"/>
      <point x="126" y="155"/>
      <point x="126" y="536" type="curve" smooth="yes"/>
    </contour>
  </outline>
</glyph>
<glyph name="Yacute" format="1">
  <advance width="1191"/>
  <unicode hex="00DD"/>
  <note>
	Yacute
  </note>
  <outline>
    <contour>
      <point x="412" y="155" type="line"/>
      <point x="412" y="545" type="line"/>
      <point x="55" y="1171" type="line"/>
      <point x="-42" y="1197" type="line"/>
      <point x="-42" y="1339" type="line"/>
      <point x="577" y="1339" type="line"/>
      <point x="577" y="1197" type="line"/>
      <point x="470" y="1170" type="line"/>
      <point x="653" y="790" type="line"/>
      <point x="690" y="683" type="line"/>
      <point x="728" y="788" type="line"/>
      <point x="889" y="1170" type="line"/>
      <point x="756" y="1197" type="line"/>
      <point x="756" y="1339" type="line"/>
      <point x="1241" y="1339" type="line"/>
      <point x="1241" y="1197" type="line"/>
      <point x="1134" y="1175" type="line"/>
      <point x="803" y="546" type="line"/>
      <point x="803" y="154" type="line"/>
      <point x="990" y="134" type="line"/>
      <point x="990" y="0" type="line"/>
      <point x="233" y="0" type="line"/>
      <point x="233" y="134" type="line"/>
    </contour>
    <contour>
      <point x="740" y="1772" type="line"/>
      <point x="740" y="1772" type="line"/>
      <point x="953" y="1632" type="line"/>
      <point x="885" y="1559"/>
      <point x="785" y="1489"/>
      <point x="702" y="1445" type="curve" smooth="yes"/>
      <point x="661" y="1422"/>
      <point x="629" y="1408"/>
      <point x="608" y="1402" type="curve"/>
      <point x="607" y="1402" type="line"/>
      <point x="480" y="1492" type="line"/>
    </contour>
  </outline>
</glyph>
<glyph name="Thorn" format="1">
  <advance width="1229"/>
  <unicode hex="00DE"/>
  <note>
	Thorn
  </note>
  <outline>
    <contour>
      <point x="183" y="153" type="line"/>
      <point x="183" y="1170" type="line"/>
      <point x="46" y="1199" type="line"/>
      <point x="46" y="1339" type="line"/>
      <point x="694" y="1339" type="line"/>
      <point x="696" y="1198" type="line"/>
      <point x="550" y="1170" type="line"/>
      <point x="550" y="1040" type="line"/>
      <point x="627" y="1048" type="line" smooth="yes"/>
      <point x="699" y="1055"/>
      <point x="735" y="1059"/>
      <point x="802" y="1059" type="curve" smooth="yes"/>
      <point x="1067" y="1059"/>
      <point x="1198" y="942"/>
      <point x="1198" y="697" type="curve" smooth="yes"/>
      <point x="1198" y="417"/>
      <point x="1037" y="277"/>
      <point x="753" y="277" type="curve" smooth="yes"/>
      <point x="685" y="277"/>
      <point x="601" y="285"/>
      <point x="550" y="290" type="curve"/>
      <point x="550" y="154" type="line"/>
      <point x="730" y="132" type="line"/>
      <point x="730" y="0" type="line"/>
      <point x="48" y="0" type="line"/>
      <point x="48" y="132" type="line"/>
    </contour>
    <contour>
      <point x="816" y="816"/>
      <point x="766" y="918"/>
      <point x="651" y="918" type="curve" smooth="yes"/>
      <point x="616" y="918"/>
      <point x="573" y="913"/>
      <point x="550" y="906" type="curve"/>
      <point x="550" y="418" type="line"/>
      <point x="587" y="411"/>
      <point x="618" y="410"/>
      <point x="674" y="410" type="curve" smooth="yes"/>
      <point x="729" y="410"/>
      <point x="774" y="459"/>
      <point x="798" y="543" type="curve" smooth="yes"/>
      <point x="810" y="584"/>
      <point x="816" y="632"/>
      <point x="816" y="685" type="curve" smooth="yes"/>
    </contour>
  </outline>
</glyph>
<glyph name="germandbls" format="1">
  <advance width="1225"/>
  <unicode hex="00DF"/>
  <note>
	germandbls
  </note>
  <outline>
    <contour>
      <point x="126" y="153" type="line"/>
      <point x="126" y="857" type="line" smooth="yes"/>
      <point x="126" y="1065"/>
      <point x="220" y="1245"/>
      <point x="396" y="1346" type="curve" smooth="yes"/>
      <point x="484" y="1396"/>
      <point x="588" y="1421"/>
      <point x="708" y="1421" type="curve" smooth="yes"/>
      <point x="968" y="1421"/>
      <point x="1089" y="1334"/>
      <point x="1089" y="1183" type="curve" smooth="yes"/>
      <point x="1089" y="1112"/>
      <point x="1064" y="1062"/>
      <point x="1033" y="1030" type="curve" smooth="yes"/>
      <point x="1017" y="1014"/>
      <point x="997" y="996"/>
      <point x="972" y="977" type="curve"/>
      <point x="933" y="945"/>
      <point x="915" y="929"/>
      <point x="900" y="901" type="curve" smooth="yes"/>
      <point x="893" y="887"/>
      <point x="889" y="871"/>
      <point x="889" y="854" type="curve" smooth="yes"/>
      <point x="889" y="822"/>
      <point x="908" y="791"/>
      <point x="935" y="764" type="curve"/>
      <point x="948" y="750"/>
      <point x="968" y="731"/>
      <point x="994" y="707" type="curve" smooth="yes"/>
      <point x="1078" y="628"/>
      <point x="1130" y="577"/>
      <point x="1171" y="482" type="curve" smooth="yes"/>
      <point x="1191" y="435"/>
      <point x="1201" y="381"/>
      <point x="1201" y="321" type="curve" smooth="yes"/>
      <point x="1201" y="186"/>
      <point x="1138" y="82"/>
      <point x="1001" y="24" type="curve" smooth="yes"/>
      <point x="932" y="-5"/>
      <point x="846" y="-20"/>
      <point x="741" y="-20" type="curve" smooth="yes"/>
      <point x="705" y="-20"/>
      <point x="623" y="-9"/>
      <point x="590" y="0" type="curve"/>
      <point x="590" y="164" type="line"/>
      <point x="614" y="152"/>
      <point x="661" y="141"/>
      <point x="701" y="141" type="curve" smooth="yes"/>
      <point x="778" y="141"/>
      <point x="825" y="200"/>
      <point x="825" y="279" type="curve" smooth="yes"/>
      <point x="825" y="354"/>
      <point x="800" y="415"/>
      <point x="769" y="459" type="curve" smooth="yes"/>
      <point x="753" y="481"/>
      <point x="732" y="507"/>
      <point x="707" y="537" type="curve" smooth="yes"/>
      <point x="663" y="588"/>
      <point x="638" y="617"/>
      <point x="621" y="662" type="curve" smooth="yes"/>
      <point x="612" y="684"/>
      <point x="608" y="708"/>
      <point x="608" y="734" type="curve" smooth="yes"/>
      <point x="608" y="783"/>
      <point x="622" y="820"/>
      <point x="642" y="848" type="curve" smooth="yes"/>
      <point x="651" y="861"/>
      <point x="664" y="878"/>
      <point x="680" y="898" type="curve" smooth="yes"/>
      <point x="721" y="947"/>
      <point x="745" y="978"/>
      <point x="762" y="1039" type="curve" smooth="yes"/>
      <point x="771" y="1069"/>
      <point x="775" y="1105"/>
      <point x="775" y="1148" type="curve" smooth="yes"/>
      <point x="775" y="1233"/>
      <point x="739" y="1275"/>
      <point x="667" y="1275" type="curve" smooth="yes"/>
      <point x="542" y="1275"/>
      <point x="479" y="1147"/>
      <point x="479" y="892" type="curve" smooth="yes"/>
      <point x="479" y="0" type="line"/>
      <point x="36" y="0" type="line"/>
      <point x="36" y="134" type="line"/>
    </contour>
  </outline>
</glyph>
